<?xml version="1.0" encoding="utf-8"?>
<!-- Generator: Adobe Illustrator 24.1.3, SVG Export Plug-In . SVG Version: 6.00 Build 0)  -->
<svg version="1.1" id="Capa_1" xmlns="http://www.w3.org/2000/svg" xmlns:xlink="http://www.w3.org/1999/xlink" x="0px" y="0px"
	 viewBox="0 0 440.7 440.7" style="enable-background:new 0 0 440.7 440.7;" xml:space="preserve">
<style type="text/css">
	.st0{fill:#ADADAD;}
	.st1{fill:none;stroke:#ADADAD;stroke-width:17;stroke-miterlimit:10;}
</style>
<g>
	<path class="st0" d="M90.7,183.4c-3.3-1.2-5.5-4.3-5.5-7.8c0-3.5,2.2-6.6,5.5-7.8l132.9-46.9c1.8-0.6,3.7-0.6,5.5,0L362,167.8
		c3.3,1.2,5.5,4.3,5.5,7.8c0,3.5-2.2,6.6-5.5,7.8l-52.7,18.7v54c0,8.9-9.3,16.4-27.6,22.4c-16,5.2-35.7,8-55.4,8s-39.4-2.9-55.4-8
		c-18.3-5.9-27.6-13.5-27.6-22.4v-54l-21.7-7.7v74.8c9.7,3.4,16.6,12.6,16.6,23.5c0,10.8-6.9,20.1-16.6,23.5v31.6
		c0,4.6-3.7,8.3-8.3,8.3s-8.3-3.7-8.3-8.3v-31.6c-9.7-3.4-16.6-12.6-16.6-23.5c0-10.8,6.9-20.1,16.6-23.5v-80.7L90.7,183.4z
		 M113.3,301c4.6,0,8.3-3.7,8.3-8.3c0-4.6-3.7-8.3-8.3-8.3c-4.6,0-8.3,3.7-8.3,8.3C105,297.2,108.7,301,113.3,301z M226.4,137.5
		l-108.1,38.2l108.1,38.4l108.1-38.4L226.4,137.5z M159.9,254.8c1.6,1.6,7.3,5.4,20.1,9.1c13.7,3.9,30.2,6,46.4,6s32.7-2.1,46.4-6
		c12.8-3.7,18.5-7.5,20.1-9.1V208l-63.7,22.7c-0.9,0.3-1.8,0.5-2.8,0.5c-0.9,0-1.9-0.2-2.8-0.5L159.9,208L159.9,254.8L159.9,254.8z"
		/>
	<circle class="st1" cx="220.4" cy="220.4" r="211.9"/>
</g>
</svg>
