<svg xmlns="http://www.w3.org/2000/svg" width="81.721" height="81.721" viewBox="0 0 81.721 81.721">
  <g id="Grupo_13219" data-name="Grupo 13219" transform="translate(-223 -2216)">
    <circle id="Elipse_773" data-name="Elipse 773" cx="39.361" cy="39.361" r="39.361" transform="translate(224.5 2217.5)" fill="#fff" stroke="#695a88" stroke-width="3"/>
    <g id="Grupo_13214" data-name="Grupo 13214" transform="translate(7.21 -58.787)">
      <path id="Trazado_19239" data-name="Trazado 19239" d="M1056.4,557.491v-2.28a3.581,3.581,0,1,0-7.162,0v2.28a2.146,2.146,0,0,0-1.432,2.017v5.73a2.151,2.151,0,0,0,2.149,2.149h5.729a2.151,2.151,0,0,0,2.149-2.149v-5.73A2.146,2.146,0,0,0,1056.4,557.491Zm-3.581-4.429a2.152,2.152,0,0,1,2.149,2.149v2.149h-4.3v-2.149A2.151,2.151,0,0,1,1052.816,553.062Zm3.581,12.175a.718.718,0,0,1-.717.717h-5.729a.717.717,0,0,1-.716-.717v-5.73a.717.717,0,0,1,.716-.716h5.729a.717.717,0,0,1,.717.716Z" transform="translate(-781.365 1766.94)" fill="#787878"/>
      <path id="Trazado_19240" data-name="Trazado 19240" d="M1053.31,560.865a2.143,2.143,0,0,0-.717,4.165v1.564h1.432V565.03a2.143,2.143,0,0,0-.716-4.165Zm0,2.865a.716.716,0,1,1,.716-.717A.718.718,0,0,1,1053.31,563.73Z" transform="translate(-781.859 1765.583)" fill="#787878"/>
      <path id="Trazado_19241" data-name="Trazado 19241" d="M1047.88,544.323a10.671,10.671,0,0,0-6.3,2.057,5,5,0,0,0-2.353-1.488l-1.243-.356a8.976,8.976,0,0,0,3.234-1.853l.657-.648-.792-.475a6.7,6.7,0,0,1-3.233-5.711v-5.134a9.311,9.311,0,0,0-18.622,0v5.134A6.693,6.693,0,0,1,1016,541.56l-.8.477.663.649a8.962,8.962,0,0,0,3.263,1.843l-1.274.363a5.033,5.033,0,0,0-3.636,4.82v7.5h23.134a10.743,10.743,0,1,0,10.527-12.891Zm-23.126.088,2.728,2.729-3.03,2.525-2.477-4.46Zm-2.627-7.374a2.118,2.118,0,0,1-.031-4.019v3.427C1022.1,536.644,1022.109,536.84,1022.127,537.036Zm1.4-4.181a7.983,7.983,0,0,0,5.013-1.885,7.984,7.984,0,0,0,5.013,1.885v3.589a5.013,5.013,0,1,1-10.026,0Zm11.459,3.589v-3.427a2.163,2.163,0,0,1,1.422,1.782,2.115,2.115,0,0,1-1.452,2.237C1034.976,536.84,1034.989,536.644,1034.989,536.445Zm-6.446,9.73-2.865-2.865v-1.1a6.376,6.376,0,0,0,5.73,0v1.1Zm3.789-1.764,2.779.794-2.477,4.46-3.03-2.525Zm7.176-2.2a8.768,8.768,0,0,1-4.658,1.434l-2.011-.574v-1.831a6.456,6.456,0,0,0,1.786-2.679,3.561,3.561,0,0,0,2.007-.877A8.158,8.158,0,0,0,1039.509,542.207Zm-10.966-19.37a7.887,7.887,0,0,1,7.878,7.878v1.494a3.756,3.756,0,0,0-2.272-.777h-.419a6.577,6.577,0,0,1-4.682-1.939l-.506-.507-.507.507a6.574,6.574,0,0,1-4.68,1.939h-.543v0a3.761,3.761,0,0,0-2.149.775v-1.494A7.887,7.887,0,0,1,1028.543,522.837ZM1017.582,542.2a8.166,8.166,0,0,0,2.871-4.524,3.566,3.566,0,0,0,2.007.877,6.451,6.451,0,0,0,1.786,2.679v1.831l-1.882.537A8.54,8.54,0,0,1,1017.582,542.2Zm-1.93,7.508a3.6,3.6,0,0,1,2.6-3.443l2.313-.66,3.479,6.264,3.787-3.156v7.066h-6.446v-4.3h-1.432v4.3h-4.3Zm13.607,6.07v-7.066l3.787,3.156,3.479-6.264,2.312.66a3.577,3.577,0,0,1,1.65,1.023,10.7,10.7,0,0,0-3.35,7.774c0,.242.02.479.037.717Zm18.622,8.594a9.31,9.31,0,1,1,9.311-9.311A9.321,9.321,0,0,1,1047.88,564.376Z" transform="translate(-776.429 1771.382)" fill="#787878"/>
    </g>
  </g>
</svg>
