<svg xmlns="http://www.w3.org/2000/svg" xmlns:xlink="http://www.w3.org/1999/xlink" width="265" height="431.95" viewBox="0 0 265 431.95">
  <defs>
    <clipPath id="clip-path">
      <path id="Trazado_19290" data-name="Trazado 19290" d="M518.293,622.558H422.265A11.646,11.646,0,0,1,410.6,610.893V514.865A11.646,11.646,0,0,1,422.265,503.2h96.028a11.646,11.646,0,0,1,11.665,11.665v96.028A11.646,11.646,0,0,1,518.293,622.558Z" transform="translate(-410.6 -503.2)"/>
    </clipPath>
    <clipPath id="clip-path-3">
      <rect id="Rectángulo_3183" data-name="Rectángulo 3183" width="221.322" height="11.769"/>
    </clipPath>
  </defs>
  <g id="Grupo_13234" data-name="Grupo 13234" transform="translate(658 2188.95)">
    <rect id="Rectángulo_3288" data-name="Rectángulo 3288" width="265" height="298" rx="7" transform="translate(-658 -2077)" fill="#e8eef3"/>
    <circle id="Elipse_816" data-name="Elipse 816" cx="111.9" cy="111.9" r="111.9" transform="translate(-637.3 -2188.95)" fill="#ff9100"/>
    <circle id="Elipse_818" data-name="Elipse 818" cx="106.3" cy="106.3" r="106.3" transform="translate(-631.7 -2183.35)" fill="#fff"/>
    <path id="Trazado_19374" data-name="Trazado 19374" d="M47.543,16.156a5.454,5.454,0,0,1-3.133-.863,3.462,3.462,0,0,1-1.523-2.418l2.422-.555a2.056,2.056,0,0,0,.746,1.426,2.476,2.476,0,0,0,1.582.5,2.044,2.044,0,0,0,1.234-.348,1.173,1.173,0,0,0,.469-1.027,1.1,1.1,0,0,0-.4-.836,2.6,2.6,0,0,0-.793-.512q-.395-.152-1.27-.418-.117-.039-.172-.055-.445-.141-.719-.234t-.676-.262a4.5,4.5,0,0,1-.656-.328,4.8,4.8,0,0,1-.543-.406,2.128,2.128,0,0,1-.453-.52,2.76,2.76,0,0,1-.273-.648,2.862,2.862,0,0,1-.109-.8A3.022,3.022,0,0,1,43.8,6.066a3.23,3.23,0,0,1,1.422-1.133,5.175,5.175,0,0,1,2.035-.379,6.429,6.429,0,0,1,1.473.164,5.158,5.158,0,0,1,1.316.5,3.225,3.225,0,0,1,1.051.93,3.5,3.5,0,0,1,.6,1.371l-2.266.563A1.836,1.836,0,0,0,47.4,6.469a2.224,2.224,0,0,0-1.258.328,1.112,1.112,0,0,0-.492.992q0,.617.82,1a12.224,12.224,0,0,0,1.57.539q.461.141.75.234t.727.273a5.049,5.049,0,0,1,.711.348,5.261,5.261,0,0,1,.594.434,2.335,2.335,0,0,1,.5.563,3.042,3.042,0,0,1,.309.7,2.922,2.922,0,0,1,.125.871,3.423,3.423,0,0,1-.227,1.273,2.771,2.771,0,0,1-.621.961,3.607,3.607,0,0,1-.934.66,4.529,4.529,0,0,1-1.148.391A6.605,6.605,0,0,1,47.543,16.156Zm13.641-4.289-.023.539H55.207a2.079,2.079,0,0,0,.641,1.469,2.049,2.049,0,0,0,1.414.508,1.974,1.974,0,0,0,1.059-.277A1.7,1.7,0,0,0,59,13.3l2.063.3a3.506,3.506,0,0,1-1.406,1.883,4.181,4.181,0,0,1-2.375.672,4.348,4.348,0,0,1-3.129-1.105,4.034,4.034,0,0,1-1.16-3.066,4.058,4.058,0,0,1,1.164-3.066A4.219,4.219,0,0,1,57.207,7.8,4.032,4.032,0,0,1,60.09,8.82,4.015,4.015,0,0,1,61.184,11.867ZM57.223,9.391a1.778,1.778,0,0,0-1.953,1.547h3.688A1.691,1.691,0,0,0,58.4,9.789,1.758,1.758,0,0,0,57.223,9.391Zm8.656-3.57a.44.44,0,0,0-.406.273,1.6,1.6,0,0,0-.141.727h-1.07a2.4,2.4,0,0,1,.426-1.477,1.363,1.363,0,0,1,1.152-.57,1.528,1.528,0,0,1,1.367.8.547.547,0,0,0,.469.3q.523,0,.523-1h1.078a2.44,2.44,0,0,1-.418,1.473,1.355,1.355,0,0,1-1.16.574,1.56,1.56,0,0,1-1.375-.8A.545.545,0,0,0,65.879,5.82Zm1.758,1.992a3.131,3.131,0,0,1,2.219.723,2.68,2.68,0,0,1,.773,2.059V16H68.371V11.078a1.4,1.4,0,0,0-.4-1.109,1.516,1.516,0,0,0-1.035-.352,2.115,2.115,0,0,0-.672.1,1.726,1.726,0,0,0-.562.316,1.4,1.4,0,0,0-.4.605,2.8,2.8,0,0,0-.152.93V16h-2.25V7.969h2.25v.891A3.1,3.1,0,0,1,67.637,7.813ZM79.395,13.82a7.513,7.513,0,0,0,.2,1.961V16h-2.1l-.18-.875a2.611,2.611,0,0,1-1.125.773,4.146,4.146,0,0,1-1.453.258,3.821,3.821,0,0,1-.75-.07,2.55,2.55,0,0,1-.676-.238,2.051,2.051,0,0,1-.559-.418,1.833,1.833,0,0,1-.375-.637,2.536,2.536,0,0,1-.141-.871,2.416,2.416,0,0,1,.148-.871,2.042,2.042,0,0,1,.391-.652,2.369,2.369,0,0,1,.633-.477,4.842,4.842,0,0,1,.8-.344,9.521,9.521,0,0,1,.953-.25l1.32-.3a1.456,1.456,0,0,0,.6-.254.506.506,0,0,0,.176-.4.829.829,0,0,0-.395-.773,1.842,1.842,0,0,0-.957-.234,1.377,1.377,0,0,0-1.57,1.227l-1.992-.359A2.7,2.7,0,0,1,73.5,8.4a4.627,4.627,0,0,1,2.523-.59q3.375,0,3.375,2.9Zm-3.961.813a1.81,1.81,0,0,0,1.391-.582,2.453,2.453,0,0,0,.539-1.723l-1.906.539a2.253,2.253,0,0,0-.8.328.674.674,0,0,0-.277.578.748.748,0,0,0,.3.637A1.229,1.229,0,0,0,75.434,14.633ZM81.582,16V4h2.273V16Zm5.75-9.234a1.263,1.263,0,0,1-.922-.379,1.244,1.244,0,0,1-.383-.918,1.229,1.229,0,0,1,.387-.91,1.267,1.267,0,0,1,.918-.379,1.3,1.3,0,0,1,1.289,1.289,1.3,1.3,0,0,1-1.289,1.3ZM86.184,16V7.969h2.266V16ZM96.637,7.969l-3.531,6.3h3.422V16H89.91l3.516-6.3H90.184V7.969Zm7.852,5.852a7.513,7.513,0,0,0,.2,1.961V16h-2.1l-.18-.875a2.611,2.611,0,0,1-1.125.773,4.146,4.146,0,0,1-1.453.258,3.821,3.821,0,0,1-.75-.07,2.55,2.55,0,0,1-.676-.238,2.051,2.051,0,0,1-.559-.418,1.833,1.833,0,0,1-.375-.637,2.536,2.536,0,0,1-.141-.871,2.416,2.416,0,0,1,.148-.871,2.042,2.042,0,0,1,.391-.652,2.369,2.369,0,0,1,.633-.477,4.842,4.842,0,0,1,.8-.344,9.521,9.521,0,0,1,.953-.25l1.32-.3a1.456,1.456,0,0,0,.6-.254.506.506,0,0,0,.176-.4.829.829,0,0,0-.395-.773,1.842,1.842,0,0,0-.957-.234,1.377,1.377,0,0,0-1.57,1.227l-1.992-.359A2.7,2.7,0,0,1,98.59,8.4a4.627,4.627,0,0,1,2.523-.59q3.375,0,3.375,2.9Zm-3.961.813a1.81,1.81,0,0,0,1.391-.582,2.453,2.453,0,0,0,.539-1.723l-1.906.539a2.253,2.253,0,0,0-.8.328.674.674,0,0,0-.277.578.748.748,0,0,0,.3.637A1.229,1.229,0,0,0,100.527,14.633Zm8.3-5.391a2.607,2.607,0,0,1,1.055-.965,3.218,3.218,0,0,1,1.57-.4V9.883a3.043,3.043,0,0,0-1.922.484,2.115,2.115,0,0,0-.594,1.719V16h-2.266V7.969h2.156Zm8.1,6.758V4h2.273V16Zm11.188-2.18a7.514,7.514,0,0,0,.2,1.961V16h-2.1l-.18-.875a2.611,2.611,0,0,1-1.125.773,4.146,4.146,0,0,1-1.453.258,3.821,3.821,0,0,1-.75-.07,2.55,2.55,0,0,1-.676-.238,2.051,2.051,0,0,1-.559-.418,1.833,1.833,0,0,1-.375-.637,2.536,2.536,0,0,1-.141-.871,2.416,2.416,0,0,1,.148-.871,2.042,2.042,0,0,1,.391-.652,2.369,2.369,0,0,1,.633-.477,4.842,4.842,0,0,1,.8-.344,9.521,9.521,0,0,1,.953-.25l1.32-.3a1.456,1.456,0,0,0,.6-.254.506.506,0,0,0,.176-.4.829.829,0,0,0-.395-.773,1.842,1.842,0,0,0-.957-.234,1.377,1.377,0,0,0-1.57,1.227l-1.992-.359A2.7,2.7,0,0,1,122.223,8.4a4.627,4.627,0,0,1,2.523-.59q3.375,0,3.375,2.9Zm-3.961.813a1.81,1.81,0,0,0,1.391-.582,2.453,2.453,0,0,0,.539-1.723l-1.906.539a2.253,2.253,0,0,0-.8.328.674.674,0,0,0-.277.578.748.748,0,0,0,.3.637A1.229,1.229,0,0,0,124.16,14.633Zm8.977,1.523a4.488,4.488,0,0,1-2.344-.562,2.378,2.378,0,0,1-1.148-1.672l1.883-.531a1.513,1.513,0,0,0,1.609,1.2,1.662,1.662,0,0,0,.82-.184.639.639,0,0,0,.32-.621.657.657,0,0,0-.133-.414,1.052,1.052,0,0,0-.41-.3,5.11,5.11,0,0,0-.547-.211q-.27-.086-.715-.207t-.742-.23a4.972,4.972,0,0,1-.707-.3,3.016,3.016,0,0,1-.586-.414,1.669,1.669,0,0,1-.437-.629,2.269,2.269,0,0,1-.152-.859,2.052,2.052,0,0,1,.871-1.8A3.892,3.892,0,0,1,133,7.813a3.99,3.99,0,0,1,2.1.516,2.334,2.334,0,0,1,1.078,1.609l-1.742.391A1.365,1.365,0,0,0,133,9.313a1.566,1.566,0,0,0-.789.18.577.577,0,0,0-.312.531.609.609,0,0,0,.047.242.479.479,0,0,0,.164.2,2.392,2.392,0,0,0,.227.148,1.709,1.709,0,0,0,.32.129q.211.066.352.1l.41.105.418.109q.43.117.754.234a4.416,4.416,0,0,1,.691.328,2.481,2.481,0,0,1,.605.473,2.108,2.108,0,0,1,.395.664,2.453,2.453,0,0,1,.156.895,2.416,2.416,0,0,1-.27,1.164,2.023,2.023,0,0,1-.738.785,3.593,3.593,0,0,1-1.043.422A5.41,5.41,0,0,1,133.137,16.156ZM147.926,4.773l-1.773,2.094H144.77l2.047-2.875Zm.875,9.047a7.514,7.514,0,0,0,.2,1.961V16h-2.1l-.18-.875a2.611,2.611,0,0,1-1.125.773,4.146,4.146,0,0,1-1.453.258,3.821,3.821,0,0,1-.75-.07,2.55,2.55,0,0,1-.676-.238,2.051,2.051,0,0,1-.559-.418,1.833,1.833,0,0,1-.375-.637,2.536,2.536,0,0,1-.141-.871,2.416,2.416,0,0,1,.148-.871,2.042,2.042,0,0,1,.391-.652,2.369,2.369,0,0,1,.633-.477,4.842,4.842,0,0,1,.8-.344,9.521,9.521,0,0,1,.953-.25l1.32-.3a1.456,1.456,0,0,0,.6-.254.506.506,0,0,0,.176-.4.829.829,0,0,0-.395-.773,1.842,1.842,0,0,0-.957-.234,1.377,1.377,0,0,0-1.57,1.227l-1.992-.359A2.7,2.7,0,0,1,142.9,8.4a4.627,4.627,0,0,1,2.523-.59q3.375,0,3.375,2.9Zm-3.961.813a1.81,1.81,0,0,0,1.391-.582,2.453,2.453,0,0,0,.539-1.723l-1.906.539a2.253,2.253,0,0,0-.8.328.674.674,0,0,0-.277.578.748.748,0,0,0,.3.637A1.229,1.229,0,0,0,144.84,14.633Zm8.3-5.391a2.607,2.607,0,0,1,1.055-.965,3.218,3.218,0,0,1,1.57-.4V9.883a3.042,3.042,0,0,0-1.922.484,2.115,2.115,0,0,0-.594,1.719V16h-2.266V7.969h2.156ZM164.6,11.867l-.023.539h-5.953a2.079,2.079,0,0,0,.641,1.469,2.049,2.049,0,0,0,1.414.508,1.974,1.974,0,0,0,1.059-.277,1.7,1.7,0,0,0,.676-.809l2.063.3a3.506,3.506,0,0,1-1.406,1.883,4.181,4.181,0,0,1-2.375.672,4.348,4.348,0,0,1-3.129-1.105,4.034,4.034,0,0,1-1.16-3.066,4.058,4.058,0,0,1,1.164-3.066A4.219,4.219,0,0,1,160.621,7.8,4.032,4.032,0,0,1,163.5,8.82,4.015,4.015,0,0,1,164.6,11.867Zm-3.961-2.477a1.778,1.778,0,0,0-1.953,1.547h3.688a1.691,1.691,0,0,0-.555-1.148A1.758,1.758,0,0,0,160.637,9.391Zm12.258,4.43a7.514,7.514,0,0,0,.2,1.961V16h-2.1l-.18-.875a2.611,2.611,0,0,1-1.125.773,4.146,4.146,0,0,1-1.453.258,3.821,3.821,0,0,1-.75-.07,2.55,2.55,0,0,1-.676-.238,2.051,2.051,0,0,1-.559-.418,1.833,1.833,0,0,1-.375-.637,2.536,2.536,0,0,1-.141-.871,2.416,2.416,0,0,1,.148-.871,2.042,2.042,0,0,1,.391-.652,2.369,2.369,0,0,1,.633-.477,4.842,4.842,0,0,1,.8-.344,9.521,9.521,0,0,1,.953-.25l1.32-.3a1.456,1.456,0,0,0,.6-.254.506.506,0,0,0,.176-.4.829.829,0,0,0-.395-.773,1.842,1.842,0,0,0-.957-.234,1.377,1.377,0,0,0-1.57,1.227l-1.992-.359A2.7,2.7,0,0,1,167,8.4a4.627,4.627,0,0,1,2.523-.59q3.375,0,3.375,2.9Zm-3.961.813a1.81,1.81,0,0,0,1.391-.582,2.453,2.453,0,0,0,.539-1.723l-1.906.539a2.253,2.253,0,0,0-.8.328.674.674,0,0,0-.277.578.748.748,0,0,0,.3.637A1.229,1.229,0,0,0,168.934,14.633Zm8.977,1.523a4.488,4.488,0,0,1-2.344-.562,2.378,2.378,0,0,1-1.148-1.672l1.883-.531a1.513,1.513,0,0,0,1.609,1.2,1.662,1.662,0,0,0,.82-.184.639.639,0,0,0,.32-.621.657.657,0,0,0-.133-.414,1.052,1.052,0,0,0-.41-.3,5.11,5.11,0,0,0-.547-.211q-.27-.086-.715-.207t-.742-.23a4.972,4.972,0,0,1-.707-.3,3.016,3.016,0,0,1-.586-.414,1.669,1.669,0,0,1-.437-.629,2.269,2.269,0,0,1-.152-.859,2.052,2.052,0,0,1,.871-1.8,3.892,3.892,0,0,1,2.277-.609,3.99,3.99,0,0,1,2.1.516,2.334,2.334,0,0,1,1.078,1.609l-1.742.391a1.365,1.365,0,0,0-1.43-1.016,1.566,1.566,0,0,0-.789.18.577.577,0,0,0-.312.531.609.609,0,0,0,.047.242.479.479,0,0,0,.164.2,2.392,2.392,0,0,0,.227.148,1.709,1.709,0,0,0,.32.129q.211.066.352.1l.41.105.418.109q.43.117.754.234a4.416,4.416,0,0,1,.691.328,2.481,2.481,0,0,1,.605.473,2.108,2.108,0,0,1,.395.664,2.453,2.453,0,0,1,.156.895,2.416,2.416,0,0,1-.27,1.164,2.023,2.023,0,0,1-.738.785,3.593,3.593,0,0,1-1.043.422A5.41,5.41,0,0,1,177.91,16.156ZM79.746,22H82V34H79.863l-.055-1.047a2.294,2.294,0,0,1-1.02.91,3.432,3.432,0,0,1-1.5.324,3.906,3.906,0,0,1-1.5-.289,3.613,3.613,0,0,1-2.062-2.141,4.885,4.885,0,0,1-.3-1.758,4.566,4.566,0,0,1,.531-2.238,3.64,3.64,0,0,1,1.4-1.457,3.862,3.862,0,0,1,1.934-.492,3.518,3.518,0,0,1,1.457.293,2.275,2.275,0,0,1,1,.832ZM77.8,32.32a2,2,0,0,0,1.52-.641,2.632,2.632,0,0,0,0-3.363,2,2,0,0,0-1.516-.645,2.024,2.024,0,0,0-1.527.633,2.665,2.665,0,0,0,0,3.383A2.024,2.024,0,0,0,77.8,32.32Zm14.078-2.453-.023.539H85.9a2.079,2.079,0,0,0,.641,1.469,2.049,2.049,0,0,0,1.414.508,1.974,1.974,0,0,0,1.059-.277,1.7,1.7,0,0,0,.676-.809l2.063.3a3.506,3.506,0,0,1-1.406,1.883,4.181,4.181,0,0,1-2.375.672,4.348,4.348,0,0,1-3.129-1.105,4.034,4.034,0,0,1-1.16-3.066,4.058,4.058,0,0,1,1.164-3.066A4.219,4.219,0,0,1,87.9,25.8a3.676,3.676,0,0,1,3.977,4.07Zm-3.961-2.477a1.778,1.778,0,0,0-1.953,1.547h3.688a1.691,1.691,0,0,0-.555-1.148A1.758,1.758,0,0,0,87.918,27.391ZM100.738,34a2.426,2.426,0,0,1-1.812-.652,2.537,2.537,0,0,1-.641-1.855V27.7H96.707V25.969h.508a1.325,1.325,0,0,0,1-.336,1.73,1.73,0,0,0,.32-1.2V23.375h2.031v2.594h1.656V27.7h-1.656V31.25q0,1.039.93,1.039h.727V34Zm5.383-6.758a2.607,2.607,0,0,1,1.055-.965,3.218,3.218,0,0,1,1.57-.4v2.008a3.043,3.043,0,0,0-1.922.484,2.115,2.115,0,0,0-.594,1.719V34h-2.266V25.969h2.156Zm10.484,4.578a7.513,7.513,0,0,0,.2,1.961V34h-2.1l-.18-.875a2.611,2.611,0,0,1-1.125.773,4.146,4.146,0,0,1-1.453.258,3.821,3.821,0,0,1-.75-.07,2.55,2.55,0,0,1-.676-.238,2.051,2.051,0,0,1-.559-.418,1.833,1.833,0,0,1-.375-.637,2.536,2.536,0,0,1-.141-.871,2.416,2.416,0,0,1,.148-.871,2.042,2.042,0,0,1,.391-.652,2.369,2.369,0,0,1,.633-.477,4.842,4.842,0,0,1,.8-.344,9.522,9.522,0,0,1,.953-.25l1.32-.3a1.456,1.456,0,0,0,.6-.254.506.506,0,0,0,.176-.4.829.829,0,0,0-.395-.773,1.842,1.842,0,0,0-.957-.234,1.377,1.377,0,0,0-1.57,1.227l-1.992-.359a2.7,2.7,0,0,1,1.164-1.832,4.627,4.627,0,0,1,2.523-.59q3.375,0,3.375,2.9Zm-3.961.813a1.81,1.81,0,0,0,1.391-.582,2.453,2.453,0,0,0,.539-1.723l-1.906.539a2.253,2.253,0,0,0-.8.328.674.674,0,0,0-.277.578.748.748,0,0,0,.3.637A1.229,1.229,0,0,0,112.645,32.633Zm10.867-6.82A3.886,3.886,0,0,1,125,26.1a3.613,3.613,0,0,1,2.063,2.141,5.223,5.223,0,0,1,0,3.516A3.613,3.613,0,0,1,125,33.9a3.886,3.886,0,0,1-1.492.289,3.469,3.469,0,0,1-1.52-.324,2.246,2.246,0,0,1-1.012-.91L120.926,34h-2.133V22h2.25v4.945a2.242,2.242,0,0,1,1-.836A3.531,3.531,0,0,1,123.512,25.813Zm-.523,6.508a2.024,2.024,0,0,0,1.527-.633,2.665,2.665,0,0,0,0-3.383,2.024,2.024,0,0,0-1.527-.633,2,2,0,0,0-1.516.645,2.632,2.632,0,0,0,0,3.363A2,2,0,0,0,122.988,32.32Zm12.664-.5a7.514,7.514,0,0,0,.2,1.961V34h-2.1l-.18-.875a2.611,2.611,0,0,1-1.125.773,4.146,4.146,0,0,1-1.453.258,3.821,3.821,0,0,1-.75-.07,2.55,2.55,0,0,1-.676-.238A2.051,2.051,0,0,1,129,33.43a1.833,1.833,0,0,1-.375-.637,2.536,2.536,0,0,1-.141-.871,2.416,2.416,0,0,1,.148-.871,2.042,2.042,0,0,1,.391-.652,2.369,2.369,0,0,1,.633-.477,4.842,4.842,0,0,1,.8-.344,9.522,9.522,0,0,1,.953-.25l1.32-.3a1.456,1.456,0,0,0,.6-.254.506.506,0,0,0,.176-.4.829.829,0,0,0-.395-.773,1.842,1.842,0,0,0-.957-.234,1.377,1.377,0,0,0-1.57,1.227l-1.992-.359a2.7,2.7,0,0,1,1.164-1.832,4.627,4.627,0,0,1,2.523-.59q3.375,0,3.375,2.9Zm-3.961.813a1.81,1.81,0,0,0,1.391-.582,2.453,2.453,0,0,0,.539-1.723l-1.906.539a2.253,2.253,0,0,0-.8.328.674.674,0,0,0-.277.578.748.748,0,0,0,.3.637A1.229,1.229,0,0,0,131.691,32.633Zm7.3-7.867a1.263,1.263,0,0,1-.922-.379,1.244,1.244,0,0,1-.383-.918,1.229,1.229,0,0,1,.387-.91A1.267,1.267,0,0,1,139,22.18a1.293,1.293,0,0,1,0,2.586Zm-2.8,13V36.008a2.588,2.588,0,0,0,.844-.113.943.943,0,0,0,.5-.4,1.781,1.781,0,0,0,.238-.691,7.8,7.8,0,0,0,.059-1.074V25.969h2.281v7.758a4.362,4.362,0,0,1-.914,3.07A3.989,3.989,0,0,1,136.2,37.766Zm10-3.609a5.05,5.05,0,0,1-2.273-.492,3.679,3.679,0,0,1-1.559-1.445,4.307,4.307,0,0,1-.566-2.242,3.928,3.928,0,0,1,1.219-3.047,5.095,5.095,0,0,1,6.367,0,3.928,3.928,0,0,1,1.219,3.047,3.951,3.951,0,0,1-1.219,3.059A4.523,4.523,0,0,1,146.2,34.156Zm-.023-1.789a2.061,2.061,0,0,0,1.59-.656,2.787,2.787,0,0,0,0-3.469,2.061,2.061,0,0,0-1.59-.656,1.986,1.986,0,0,0-1.543.66,2.8,2.8,0,0,0,0,3.461A1.986,1.986,0,0,0,146.176,32.367Z" transform="translate(-637 -1943)" fill="#002b45"/>
    <path id="Trazado_19375" data-name="Trazado 19375" d="M52.09,6.273H47.621v3.6h3.938v1.258H47.621v3.594H52.09V16h-5.9V5h5.9Zm4.758,9.875a3.641,3.641,0,0,1-2.07-.555,2.294,2.294,0,0,1-1.008-1.578l1.18-.336a1.645,1.645,0,0,0,.629,1.066,2.04,2.04,0,0,0,1.262.379,2.518,2.518,0,0,0,.738-.1,1.184,1.184,0,0,0,.566-.379,1.057,1.057,0,0,0,.164-1.016,1.356,1.356,0,0,0-.125-.254.774.774,0,0,0-.219-.211A2.884,2.884,0,0,0,57.7,13a2.726,2.726,0,0,0-.348-.145q-.23-.082-.371-.125t-.43-.125q-.289-.082-.445-.129a8.33,8.33,0,0,1-.8-.281,3.5,3.5,0,0,1-.648-.371,1.493,1.493,0,0,1-.5-.605,2.049,2.049,0,0,1-.168-.859,1.986,1.986,0,0,1,.375-1.227,2.11,2.11,0,0,1,.973-.723A3.888,3.888,0,0,1,56.7,8.188a3.337,3.337,0,0,1,1.871.5,2.134,2.134,0,0,1,.934,1.5l-1.109.281a1.471,1.471,0,0,0-.586-.973,1.865,1.865,0,0,0-1.1-.324,1.9,1.9,0,0,0-1.031.27.906.906,0,0,0-.43.824.82.82,0,0,0,.113.426,1.352,1.352,0,0,0,.23.3,1.417,1.417,0,0,0,.422.23q.3.121.453.164t.563.145q.078.023.117.031.453.117.738.207a4.538,4.538,0,0,1,.664.281,2.208,2.208,0,0,1,.6.418,1.936,1.936,0,0,1,.375.594,2.1,2.1,0,0,1,.156.828,2.237,2.237,0,0,1-.23,1.035,1.8,1.8,0,0,1-.629.707,3.042,3.042,0,0,1-.895.387A4.262,4.262,0,0,1,56.848,16.148Zm9.008-7.977a3.493,3.493,0,0,1,1.391.281,3.421,3.421,0,0,1,1.141.789,3.688,3.688,0,0,1,.77,1.266,4.667,4.667,0,0,1,.285,1.656,4.061,4.061,0,0,1-1.035,2.9,3.362,3.362,0,0,1-2.551,1.1,3.04,3.04,0,0,1-1.605-.437,2.867,2.867,0,0,1-1.1-1.18v5.32H61.8V8.32h1.3l.031,1.492a2.811,2.811,0,0,1,1.094-1.2A3.068,3.068,0,0,1,65.855,8.172Zm-.266,6.82a2.332,2.332,0,0,0,1.777-.777,2.891,2.891,0,0,0,.723-2.051,2.877,2.877,0,0,0-.723-2.047,2.423,2.423,0,0,0-3.582.035,2.88,2.88,0,0,0-.734,2.012,2.891,2.891,0,0,0,.734,2.02A2.343,2.343,0,0,0,65.59,14.992Zm7.758,1.156a2.613,2.613,0,0,1-1.684-.527A1.894,1.894,0,0,1,71,14.047a2.237,2.237,0,0,1,.211-1,1.77,1.77,0,0,1,.625-.7,3.749,3.749,0,0,1,.9-.434,8.341,8.341,0,0,1,1.168-.277l1.242-.2q.68-.125.68-.711a1.342,1.342,0,0,0-.48-1.145,1.958,1.958,0,0,0-1.215-.363,1.994,1.994,0,0,0-1.2.352,1.471,1.471,0,0,0-.57,1.078l-1.219-.258a2.346,2.346,0,0,1,.961-1.645A3.59,3.59,0,0,1,74.2,8.188a4.247,4.247,0,0,1,1.113.137,3.025,3.025,0,0,1,.93.43,1.927,1.927,0,0,1,.664.828,3.081,3.081,0,0,1,.238,1.262v3.172a1.3,1.3,0,0,0,.176.8.759.759,0,0,0,.605.207h.125V16h-.672a1.281,1.281,0,0,1-1.453-1.039h-.062A2.935,2.935,0,0,1,73.348,16.148Zm.313-1.094a2.049,2.049,0,0,0,1.648-.742,3.056,3.056,0,0,0,.625-2.031l-2.031.391a2.734,2.734,0,0,0-1.191.426.99.99,0,0,0-.387.84.979.979,0,0,0,.371.844A1.586,1.586,0,0,0,73.66,15.055Zm9.328,1.086a3.7,3.7,0,0,1-2.75-1.1,3.929,3.929,0,0,1-1.086-2.883,3.937,3.937,0,0,1,1.082-2.883,4,4,0,0,1,4.977-.43A3.391,3.391,0,0,1,86.5,10.711l-1.266.2a2.337,2.337,0,0,0-.867-1.2A2.361,2.361,0,0,0,82.98,9.3a2.27,2.27,0,0,0-1.777.789,3.006,3.006,0,0,0-.7,2.07,2.991,2.991,0,0,0,.7,2.066,2.275,2.275,0,0,0,1.777.785,2.361,2.361,0,0,0,1.391-.422,2.337,2.337,0,0,0,.867-1.2L86.5,13.6a3.4,3.4,0,0,1-1.3,1.863A3.72,3.72,0,0,1,82.988,16.141Zm6.2-9.625A.92.92,0,0,1,88.27,5.6a.867.867,0,0,1,.27-.641.886.886,0,0,1,.645-.266.877.877,0,0,1,.637.266.867.867,0,0,1,.27.641.88.88,0,0,1-.27.645A.871.871,0,0,1,89.184,6.516ZM88.5,16V8.32h1.359V16Zm7.344.148a4.048,4.048,0,0,1-1.969-.477,3.47,3.47,0,0,1-1.387-1.395,4.283,4.283,0,0,1-.512-2.121,3.912,3.912,0,0,1,1.09-2.895,4.089,4.089,0,0,1,5.559,0,3.92,3.92,0,0,1,1.086,2.895,3.923,3.923,0,0,1-1.09,2.9A3.762,3.762,0,0,1,95.84,16.148Zm-.008-1.125a2.359,2.359,0,0,0,1.816-.789,2.957,2.957,0,0,0,.723-2.078,2.945,2.945,0,0,0-.723-2.07A2.359,2.359,0,0,0,95.832,9.3a2.326,2.326,0,0,0-1.8.789,2.965,2.965,0,0,0-.715,2.07,2.976,2.976,0,0,0,.715,2.078A2.326,2.326,0,0,0,95.832,15.023Zm8.422,1.125a3.641,3.641,0,0,1-2.07-.555,2.294,2.294,0,0,1-1.008-1.578l1.18-.336a1.645,1.645,0,0,0,.629,1.066,2.04,2.04,0,0,0,1.262.379,2.518,2.518,0,0,0,.738-.1,1.184,1.184,0,0,0,.566-.379,1.057,1.057,0,0,0,.164-1.016,1.357,1.357,0,0,0-.125-.254.774.774,0,0,0-.219-.211,2.885,2.885,0,0,0-.266-.164,2.726,2.726,0,0,0-.348-.145q-.23-.082-.371-.125t-.43-.125q-.289-.082-.445-.129a8.331,8.331,0,0,1-.8-.281,3.5,3.5,0,0,1-.648-.371,1.493,1.493,0,0,1-.5-.605,2.049,2.049,0,0,1-.168-.859,1.986,1.986,0,0,1,.375-1.227,2.11,2.11,0,0,1,.973-.723,3.888,3.888,0,0,1,1.363-.223,3.337,3.337,0,0,1,1.871.5,2.134,2.134,0,0,1,.934,1.5l-1.109.281a1.471,1.471,0,0,0-.586-.973,1.865,1.865,0,0,0-1.1-.324,1.9,1.9,0,0,0-1.031.27.906.906,0,0,0-.43.824.82.82,0,0,0,.113.426,1.352,1.352,0,0,0,.23.3,1.417,1.417,0,0,0,.422.23q.3.121.453.164t.563.145q.078.023.117.031.453.117.738.207a4.538,4.538,0,0,1,.664.281,2.208,2.208,0,0,1,.6.418,1.936,1.936,0,0,1,.375.594,2.1,2.1,0,0,1,.156.828,2.237,2.237,0,0,1-.23,1.035,1.8,1.8,0,0,1-.629.707,3.042,3.042,0,0,1-.895.387A4.262,4.262,0,0,1,104.254,16.148Zm10.43-6.477a2.322,2.322,0,0,1,.953-1.031,2.87,2.87,0,0,1,1.477-.406V9.508a2.53,2.53,0,0,0-1.785.57,2.382,2.382,0,0,0-.613,1.82V16h-1.352V8.32h1.32Zm7.156,6.477a4.048,4.048,0,0,1-1.969-.477,3.47,3.47,0,0,1-1.387-1.395,4.283,4.283,0,0,1-.512-2.121,3.912,3.912,0,0,1,1.09-2.895,4.089,4.089,0,0,1,5.559,0,3.92,3.92,0,0,1,1.086,2.895,3.923,3.923,0,0,1-1.09,2.9A3.762,3.762,0,0,1,121.84,16.148Zm-.008-1.125a2.359,2.359,0,0,0,1.816-.789,2.957,2.957,0,0,0,.723-2.078,2.945,2.945,0,0,0-.723-2.07,2.359,2.359,0,0,0-1.816-.789,2.326,2.326,0,0,0-1.8.789,2.965,2.965,0,0,0-.715,2.07,2.976,2.976,0,0,0,.715,2.078A2.326,2.326,0,0,0,121.832,15.023Zm8.445.977a2.019,2.019,0,0,1-1.5-.551,2.084,2.084,0,0,1-.547-1.535V9.4h-1.57V8.32h.578a1.11,1.11,0,0,0,.848-.27,1.326,1.326,0,0,0,.246-.9V5.758h1.258V8.32h1.766V9.4H129.59v4.375a1.164,1.164,0,0,0,.293.848,1.026,1.026,0,0,0,.77.3h.7V16Zm7.813-7.68h1.352V16h-1.3l-.031-1.016a2.4,2.4,0,0,1-.953.863,2.932,2.932,0,0,1-1.344.3,2.671,2.671,0,0,1-1.934-.7,2.594,2.594,0,0,1-.723-1.961V8.32h1.352v4.867a1.822,1.822,0,0,0,.473,1.375,1.673,1.673,0,0,0,1.207.453,1.837,1.837,0,0,0,1.363-.531,2.164,2.164,0,0,0,.535-1.57Zm4.1,7.68V4h1.367V16Zm5.891.148a2.613,2.613,0,0,1-1.684-.527,1.894,1.894,0,0,1-.66-1.574,2.237,2.237,0,0,1,.211-1,1.77,1.77,0,0,1,.625-.7,3.749,3.749,0,0,1,.9-.434,8.341,8.341,0,0,1,1.168-.277l1.242-.2q.68-.125.68-.711a1.342,1.342,0,0,0-.48-1.145,1.958,1.958,0,0,0-1.215-.363,1.994,1.994,0,0,0-1.2.352,1.471,1.471,0,0,0-.57,1.078l-1.219-.258a2.346,2.346,0,0,1,.961-1.645,3.59,3.59,0,0,1,2.094-.551,4.247,4.247,0,0,1,1.113.137,3.026,3.026,0,0,1,.93.43,1.927,1.927,0,0,1,.664.828,3.081,3.081,0,0,1,.238,1.262v3.172a1.3,1.3,0,0,0,.176.8.759.759,0,0,0,.605.207h.125V16h-.672a1.281,1.281,0,0,1-1.453-1.039H150.6A2.935,2.935,0,0,1,148.082,16.148Zm.313-1.094a2.049,2.049,0,0,0,1.648-.742,3.056,3.056,0,0,0,.625-2.031l-2.031.391a2.734,2.734,0,0,0-1.191.426.99.99,0,0,0-.387.84.979.979,0,0,0,.371.844A1.586,1.586,0,0,0,148.395,15.055ZM160.207,4h1.352V16h-1.3l-.031-1.492a2.826,2.826,0,0,1-1.094,1.211,3.048,3.048,0,0,1-1.625.445,3.49,3.49,0,0,1-2.535-1.082,3.7,3.7,0,0,1-.773-1.27,4.644,4.644,0,0,1-.285-1.648,4.038,4.038,0,0,1,1.043-2.883A3.367,3.367,0,0,1,157.5,8.172a3.061,3.061,0,0,1,1.605.434,2.842,2.842,0,0,1,1.1,1.176Zm-2.422,10.992a2.3,2.3,0,0,0,1.785-.809,2.919,2.919,0,0,0,.723-2.02,2.913,2.913,0,0,0-.727-2.016,2.3,2.3,0,0,0-1.781-.812,2.35,2.35,0,0,0-1.8.785,2.889,2.889,0,0,0-.727,2.043,2.889,2.889,0,0,0,.727,2.043A2.35,2.35,0,0,0,157.785,14.992Zm9.758,1.156a4.048,4.048,0,0,1-1.969-.477,3.47,3.47,0,0,1-1.387-1.395,4.284,4.284,0,0,1-.512-2.121,3.912,3.912,0,0,1,1.09-2.895,4.089,4.089,0,0,1,5.559,0,3.92,3.92,0,0,1,1.086,2.895,3.923,3.923,0,0,1-1.09,2.9A3.762,3.762,0,0,1,167.543,16.148Zm-.008-1.125a2.359,2.359,0,0,0,1.816-.789,2.957,2.957,0,0,0,.723-2.078,2.945,2.945,0,0,0-.723-2.07,2.359,2.359,0,0,0-1.816-.789,2.326,2.326,0,0,0-1.8.789,2.965,2.965,0,0,0-.715,2.07,2.976,2.976,0,0,0,.715,2.078A2.326,2.326,0,0,0,167.535,15.023Zm8.422,1.125a3.641,3.641,0,0,1-2.07-.555,2.294,2.294,0,0,1-1.008-1.578l1.18-.336a1.645,1.645,0,0,0,.629,1.066,2.04,2.04,0,0,0,1.262.379,2.518,2.518,0,0,0,.738-.1,1.183,1.183,0,0,0,.566-.379,1.057,1.057,0,0,0,.164-1.016,1.356,1.356,0,0,0-.125-.254.774.774,0,0,0-.219-.211,2.884,2.884,0,0,0-.266-.164,2.727,2.727,0,0,0-.348-.145q-.23-.082-.371-.125t-.43-.125q-.289-.082-.445-.129a8.329,8.329,0,0,1-.8-.281,3.5,3.5,0,0,1-.648-.371,1.493,1.493,0,0,1-.5-.605,2.048,2.048,0,0,1-.168-.859,1.986,1.986,0,0,1,.375-1.227,2.11,2.11,0,0,1,.973-.723,3.888,3.888,0,0,1,1.363-.223,3.337,3.337,0,0,1,1.871.5,2.134,2.134,0,0,1,.934,1.5l-1.109.281a1.471,1.471,0,0,0-.586-.973,1.866,1.866,0,0,0-1.1-.324,1.9,1.9,0,0,0-1.031.27.906.906,0,0,0-.43.824.82.82,0,0,0,.113.426,1.352,1.352,0,0,0,.23.3,1.417,1.417,0,0,0,.422.23q.3.121.453.164t.563.145q.078.023.117.031.453.117.738.207a4.538,4.538,0,0,1,.664.281,2.208,2.208,0,0,1,.6.418,1.937,1.937,0,0,1,.375.594,2.1,2.1,0,0,1,.156.828,2.237,2.237,0,0,1-.23,1.035,1.8,1.8,0,0,1-.629.707,3.042,3.042,0,0,1-.895.387A4.262,4.262,0,0,1,175.957,16.148Z" transform="translate(-637 -1883)" fill="#00223d"/>
    <line id="Línea_216" data-name="Línea 216" x2="218" transform="translate(-634.5 -1893.5)" fill="none" stroke="#707070" stroke-width="3" opacity="0.2"/>
    <rect id="Rectángulo_3292" data-name="Rectángulo 3292" width="115" height="39" rx="3" transform="translate(-583 -1796)" fill="#ff9100"/>
    <path id="Trazado_19376" data-name="Trazado 19376" d="M29.613,4.711a3.4,3.4,0,0,1,2.6,1.051,3.655,3.655,0,0,1,.984,2.6,3.565,3.565,0,0,1-.977,2.582,3.459,3.459,0,0,1-2.609,1.012H27.262V16H24.918V4.711Zm-.391,5.281a1.722,1.722,0,0,0,1.289-.441,1.679,1.679,0,0,0,.43-1.223,1.665,1.665,0,0,0-.434-1.207,1.707,1.707,0,0,0-1.285-.449H27.262v3.32ZM41.59,16l-.82-2.328H36.027L35.207,16h-2.4L36.965,4.711h2.867L43.988,16Zm-4.875-4.289h3.367L38.4,6.922Zm12.719,4.445a5.454,5.454,0,0,1-3.133-.863,3.462,3.462,0,0,1-1.523-2.418L47.2,12.32a2.056,2.056,0,0,0,.746,1.426,2.476,2.476,0,0,0,1.582.5,2.044,2.044,0,0,0,1.234-.348,1.173,1.173,0,0,0,.469-1.027,1.1,1.1,0,0,0-.4-.836,2.6,2.6,0,0,0-.793-.512q-.395-.152-1.27-.418-.117-.039-.172-.055-.445-.141-.719-.234t-.676-.262a4.5,4.5,0,0,1-.656-.328A4.8,4.8,0,0,1,46,9.816a2.128,2.128,0,0,1-.453-.52,2.76,2.76,0,0,1-.273-.648,2.862,2.862,0,0,1-.109-.8A3.022,3.022,0,0,1,45.7,6.066a3.23,3.23,0,0,1,1.422-1.133,5.175,5.175,0,0,1,2.035-.379,6.429,6.429,0,0,1,1.473.164,5.158,5.158,0,0,1,1.316.5,3.225,3.225,0,0,1,1.051.93,3.5,3.5,0,0,1,.6,1.371l-2.266.563a1.836,1.836,0,0,0-2.031-1.617,2.224,2.224,0,0,0-1.258.328,1.112,1.112,0,0,0-.492.992q0,.617.82,1a12.224,12.224,0,0,0,1.57.539q.461.141.75.234t.727.273a5.049,5.049,0,0,1,.711.348,5.261,5.261,0,0,1,.594.434,2.335,2.335,0,0,1,.5.563,3.042,3.042,0,0,1,.309.7,2.922,2.922,0,0,1,.125.871,3.423,3.423,0,0,1-.227,1.273,2.771,2.771,0,0,1-.621.961,3.607,3.607,0,0,1-.934.66,4.529,4.529,0,0,1-1.148.391A6.605,6.605,0,0,1,49.434,16.156Zm11.383,0a6.136,6.136,0,0,1-2.965-.707,5.125,5.125,0,0,1-2.059-2.035,6.121,6.121,0,0,1-.75-3.062,6.115,6.115,0,0,1,.75-3.066,5.106,5.106,0,0,1,2.059-2.027,6.594,6.594,0,0,1,5.926,0,5.113,5.113,0,0,1,2.055,2.027,6.115,6.115,0,0,1,.75,3.066,6.121,6.121,0,0,1-.75,3.063,5.125,5.125,0,0,1-2.059,2.035A6.12,6.12,0,0,1,60.816,16.156ZM58.348,13.02a3.578,3.578,0,0,0,4.938,0,3.646,3.646,0,0,0,.969-2.668A3.622,3.622,0,0,0,63.285,7.7a3.588,3.588,0,0,0-4.937,0,3.622,3.622,0,0,0-.969,2.656A3.646,3.646,0,0,0,58.348,13.02Zm17.875,3.137A3.521,3.521,0,0,1,73.188,14.7a7.38,7.38,0,0,1-1.059-4.344,7.379,7.379,0,0,1,1.055-4.344,3.9,3.9,0,0,1,6.07,0,7.379,7.379,0,0,1,1.055,4.344A7.38,7.38,0,0,1,79.25,14.7,3.513,3.513,0,0,1,76.223,16.156Zm0-2.031a1.484,1.484,0,0,0,1.355-.926,6.446,6.446,0,0,0,.48-2.848A6.4,6.4,0,0,0,77.574,7.5a1.487,1.487,0,0,0-1.352-.926q-1.844,0-1.844,3.773T76.223,14.125Zm13.7-1.914a3.68,3.68,0,0,1-.332,1.586,3.742,3.742,0,0,1-.914,1.254,4.3,4.3,0,0,1-1.34.8,4.543,4.543,0,0,1-3.23-.008,4.011,4.011,0,0,1-1.32-.824,3.881,3.881,0,0,1-1.191-2.8,4.692,4.692,0,0,1,1-2.758l3.516-4.75H88.66l-2.93,3.82a3.806,3.806,0,0,1,.516-.031,3.68,3.68,0,0,1,1.387.266A3.755,3.755,0,0,1,88.8,9.5a3.416,3.416,0,0,1,.809,1.176A3.949,3.949,0,0,1,89.918,12.211Zm-2.2-.055a1.928,1.928,0,0,0-.547-1.457,1.989,1.989,0,0,0-1.477-.566,1.907,1.907,0,0,0-1.43.57,2.015,2.015,0,0,0-.57,1.422,1.852,1.852,0,0,0,1.977,2,2.035,2.035,0,0,0,1.469-.547A1.906,1.906,0,0,0,87.715,12.156Z" transform="translate(-583 -1786)" fill="#fff"/>
    <g id="Grupo_13227" data-name="Grupo 13227" transform="translate(47 65)">
      <circle id="Elipse_810" data-name="Elipse 810" cx="100.345" cy="100.345" r="100.345" transform="translate(-672 -2242)" fill="#fff"/>
      <g id="Grupo_13184" data-name="Grupo 13184" transform="translate(-630.86 -2201.224)">
        <g id="Grupo_13173" data-name="Grupo 13173" transform="translate(0 0)">
          <g id="Grupo_13166" data-name="Grupo 13166" clip-path="url(#clip-path)">
            <path id="Trazado_19289" data-name="Trazado 19289" d="M518.293,622.558H422.265A11.646,11.646,0,0,1,410.6,610.893V514.865A11.646,11.646,0,0,1,422.265,503.2h96.028a11.646,11.646,0,0,1,11.665,11.665v96.028A11.646,11.646,0,0,1,518.293,622.558Z" transform="translate(-410.6 -503.2)" fill="#fff"/>
          </g>
          <g id="Grupo_13169" data-name="Grupo 13169" clip-path="url(#clip-path)">
            <g id="Grupo_13167" data-name="Grupo 13167" transform="translate(-50.93 -6.562)" clip-path="url(#clip-path-3)">
              <rect id="Rectángulo_3169" data-name="Rectángulo 3169" width="14.477" height="14.477" transform="translate(198.55 5.941) rotate(-45)" fill="#65b742"/>
              <rect id="Rectángulo_3170" data-name="Rectángulo 3170" width="14.477" height="14.477" transform="translate(191.18 5.997) rotate(-45)" fill="#fff"/>
              <rect id="Rectángulo_3171" data-name="Rectángulo 3171" width="14.477" height="14.477" transform="translate(183.883 5.983) rotate(-45)" fill="#65b742"/>
              <rect id="Rectángulo_3172" data-name="Rectángulo 3172" width="14.477" height="14.477" transform="translate(176.587 5.971) rotate(-45)" fill="#65b742"/>
              <rect id="Rectángulo_3173" data-name="Rectángulo 3173" width="14.477" height="14.477" transform="translate(169.29 5.953) rotate(-45)" fill="#65b742"/>
              <rect id="Rectángulo_3174" data-name="Rectángulo 3174" width="14.477" height="14.477" transform="translate(161.993 5.938) rotate(-45)" fill="#65b742"/>
              <rect id="Rectángulo_3175" data-name="Rectángulo 3175" width="14.477" height="14.477" transform="translate(154.623 5.997) rotate(-45)" fill="#fff"/>
              <rect id="Rectángulo_3176" data-name="Rectángulo 3176" width="14.477" height="14.477" transform="translate(147.326 5.982) rotate(-45)" fill="#65b742"/>
              <rect id="Rectángulo_3177" data-name="Rectángulo 3177" width="14.477" height="14.477" transform="translate(140.03 5.968) rotate(-45)" fill="#fff"/>
              <rect id="Rectángulo_3178" data-name="Rectángulo 3178" width="14.477" height="14.477" transform="translate(132.733 5.953) rotate(-45)" fill="#65b742"/>
              <rect id="Rectángulo_3179" data-name="Rectángulo 3179" width="14.477" height="14.477" transform="translate(125.436 5.938) rotate(-45)" fill="#fff"/>
              <rect id="Rectángulo_3180" data-name="Rectángulo 3180" width="14.477" height="14.477" transform="translate(118.066 5.997) rotate(-45)" fill="#65b742"/>
              <rect id="Rectángulo_3181" data-name="Rectángulo 3181" width="14.477" height="14.477" transform="translate(110.769 5.982) rotate(-45)" fill="#fff"/>
              <rect id="Rectángulo_3182" data-name="Rectángulo 3182" width="14.477" height="14.477" transform="translate(103.473 5.967) rotate(-45)" fill="#65b742"/>
            </g>
            <g id="Grupo_13168" data-name="Grupo 13168" transform="translate(-50.93 -6.562)" clip-path="url(#clip-path-3)">
              <rect id="Rectángulo_3184" data-name="Rectángulo 3184" width="14.477" height="14.477" transform="translate(96.805 5.963) rotate(-45)" fill="#fff"/>
              <rect id="Rectángulo_3185" data-name="Rectángulo 3185" width="14.477" height="14.477" transform="translate(89.509 5.948) rotate(-45)" fill="#65b742"/>
              <rect id="Rectángulo_3186" data-name="Rectángulo 3186" width="14.477" height="14.477" transform="translate(82.212 5.934) rotate(-45)" fill="#fff"/>
              <rect id="Rectángulo_3187" data-name="Rectángulo 3187" width="14.477" height="14.477" transform="translate(74.842 5.993) rotate(-45)" fill="#65b742"/>
              <rect id="Rectángulo_3188" data-name="Rectángulo 3188" width="14.477" height="14.477" transform="translate(67.545 5.978) rotate(-45)" fill="#fff"/>
              <rect id="Rectángulo_3189" data-name="Rectángulo 3189" width="14.477" height="14.477" transform="translate(60.248 5.963) rotate(-45)" fill="#65b742"/>
              <rect id="Rectángulo_3190" data-name="Rectángulo 3190" width="14.477" height="14.477" transform="translate(52.952 5.948) rotate(-45)" fill="#fff"/>
              <rect id="Rectángulo_3191" data-name="Rectángulo 3191" width="14.477" height="14.477" transform="translate(45.655 5.933) rotate(-45)" fill="#65b742"/>
              <rect id="Rectángulo_3192" data-name="Rectángulo 3192" width="14.477" height="14.477" transform="translate(38.285 5.992) rotate(-45)" fill="#fff"/>
              <rect id="Rectángulo_3193" data-name="Rectángulo 3193" width="14.477" height="14.477" transform="translate(30.988 5.978) rotate(-45)" fill="#65b742"/>
              <rect id="Rectángulo_3194" data-name="Rectángulo 3194" width="14.477" height="14.477" transform="translate(23.691 5.963) rotate(-45)" fill="#65b742"/>
              <rect id="Rectángulo_3195" data-name="Rectángulo 3195" width="14.477" height="14.477" transform="translate(16.395 5.948) rotate(-45)" fill="#fff"/>
              <rect id="Rectángulo_3196" data-name="Rectángulo 3196" width="14.477" height="14.477" transform="translate(9.098 5.933) rotate(-45)" fill="#65b742"/>
              <rect id="Rectángulo_3197" data-name="Rectángulo 3197" width="14.477" height="14.477" transform="translate(1.728 5.992) rotate(-45)" fill="#fff"/>
            </g>
          </g>
          <g id="Grupo_13172" data-name="Grupo 13172" clip-path="url(#clip-path)">
            <g id="Grupo_13170" data-name="Grupo 13170" transform="translate(-50.93 113.421)" clip-path="url(#clip-path-3)">
              <rect id="Rectángulo_3199" data-name="Rectángulo 3199" width="14.477" height="14.477" transform="translate(198.494 5.856) rotate(-45)" fill="#65b742"/>
              <rect id="Rectángulo_3200" data-name="Rectángulo 3200" width="14.477" height="14.477" transform="translate(191.124 5.912) rotate(-45)" fill="#fff"/>
              <rect id="Rectángulo_3201" data-name="Rectángulo 3201" width="14.477" height="14.477" transform="translate(183.827 5.897) rotate(-45)" fill="#65b742"/>
              <rect id="Rectángulo_3202" data-name="Rectángulo 3202" width="14.477" height="14.477" transform="translate(176.53 5.886) rotate(-45)" fill="#65b742"/>
              <rect id="Rectángulo_3203" data-name="Rectángulo 3203" width="14.477" height="14.477" transform="translate(169.234 5.868) rotate(-45)" fill="#65b742"/>
              <rect id="Rectángulo_3204" data-name="Rectángulo 3204" width="14.477" height="14.477" transform="translate(161.937 5.853) rotate(-45)" fill="#65b742"/>
              <rect id="Rectángulo_3205" data-name="Rectángulo 3205" width="14.477" height="14.477" transform="translate(154.567 5.912) rotate(-45)" fill="#fff"/>
              <rect id="Rectángulo_3206" data-name="Rectángulo 3206" width="14.477" height="14.477" transform="translate(147.27 5.897) rotate(-45)" fill="#65b742"/>
              <rect id="Rectángulo_3207" data-name="Rectángulo 3207" width="14.477" height="14.477" transform="translate(139.974 5.883) rotate(-45)" fill="#fff"/>
              <rect id="Rectángulo_3208" data-name="Rectángulo 3208" width="14.477" height="14.477" transform="translate(132.677 5.868) rotate(-45)" fill="#65b742"/>
              <rect id="Rectángulo_3209" data-name="Rectángulo 3209" width="14.477" height="14.477" transform="translate(125.381 5.853) rotate(-45)" fill="#fff"/>
              <rect id="Rectángulo_3210" data-name="Rectángulo 3210" width="14.477" height="14.477" transform="translate(118.01 5.912) rotate(-45)" fill="#65b742"/>
              <rect id="Rectángulo_3211" data-name="Rectángulo 3211" width="14.477" height="14.477" transform="translate(110.714 5.897) rotate(-45)" fill="#fff"/>
              <rect id="Rectángulo_3212" data-name="Rectángulo 3212" width="14.477" height="14.477" transform="translate(103.417 5.883) rotate(-45)" fill="#65b742"/>
            </g>
            <g id="Grupo_13171" data-name="Grupo 13171" transform="translate(-50.93 113.421)" clip-path="url(#clip-path-3)">
              <rect id="Rectángulo_3214" data-name="Rectángulo 3214" width="14.477" height="14.477" transform="translate(96.75 5.878) rotate(-45)" fill="#fff"/>
              <rect id="Rectángulo_3215" data-name="Rectángulo 3215" width="14.477" height="14.477" transform="translate(89.453 5.864) rotate(-45)" fill="#65b742"/>
              <rect id="Rectángulo_3216" data-name="Rectángulo 3216" width="14.477" height="14.477" transform="translate(82.156 5.849) rotate(-45)" fill="#fff"/>
              <rect id="Rectángulo_3217" data-name="Rectángulo 3217" width="14.477" height="14.477" transform="translate(74.786 5.908) rotate(-45)" fill="#65b742"/>
              <rect id="Rectángulo_3218" data-name="Rectángulo 3218" width="14.477" height="14.477" transform="translate(67.489 5.893) rotate(-45)" fill="#fff"/>
              <rect id="Rectángulo_3219" data-name="Rectángulo 3219" width="14.477" height="14.477" transform="translate(60.193 5.878) rotate(-45)" fill="#65b742"/>
              <rect id="Rectángulo_3220" data-name="Rectángulo 3220" width="14.477" height="14.477" transform="translate(52.896 5.863) rotate(-45)" fill="#fff"/>
              <rect id="Rectángulo_3221" data-name="Rectángulo 3221" width="14.477" height="14.477" transform="translate(45.599 5.849) rotate(-45)" fill="#65b742"/>
              <rect id="Rectángulo_3222" data-name="Rectángulo 3222" width="14.477" height="14.477" transform="translate(38.229 5.908) rotate(-45)" fill="#fff"/>
              <rect id="Rectángulo_3223" data-name="Rectángulo 3223" width="14.477" height="14.477" transform="translate(30.932 5.893) rotate(-45)" fill="#65b742"/>
              <rect id="Rectángulo_3224" data-name="Rectángulo 3224" width="14.477" height="14.477" transform="translate(23.636 5.878) rotate(-45)" fill="#65b742"/>
              <rect id="Rectángulo_3225" data-name="Rectángulo 3225" width="14.477" height="14.477" transform="translate(16.339 5.863) rotate(-45)" fill="#fff"/>
              <rect id="Rectángulo_3226" data-name="Rectángulo 3226" width="14.477" height="14.477" transform="translate(9.042 5.849) rotate(-45)" fill="#65b742"/>
              <rect id="Rectángulo_3227" data-name="Rectángulo 3227" width="14.477" height="14.477" transform="translate(1.672 5.908) rotate(-45)" fill="#fff"/>
            </g>
          </g>
        </g>
        <g id="Grupo_13183" data-name="Grupo 13183" transform="translate(16.039 41.14)">
          <g id="Grupo_13182" data-name="Grupo 13182">
            <g id="Grupo_13177" data-name="Grupo 13177">
              <g id="Grupo_13174" data-name="Grupo 13174">
                <path id="Trazado_19293" data-name="Trazado 19293" d="M439.065,547.283a4.583,4.583,0,1,1-4.583-4.583A4.556,4.556,0,0,1,439.065,547.283Z" transform="translate(-425.838 -542.7)" fill="#65b742"/>
                <path id="Trazado_19294" data-name="Trazado 19294" d="M432.1,589.972H430.95a1.266,1.266,0,0,1-1.25-1.25V570.6h3.749v18.122A1.359,1.359,0,0,1,432.1,589.972Z" transform="translate(-425.846 -541.542)" fill="#65b742"/>
                <path id="Trazado_19295" data-name="Trazado 19295" d="M437.8,589.972H436.65a1.266,1.266,0,0,1-1.25-1.25V570.6h3.749v18.122A1.291,1.291,0,0,1,437.8,589.972Z" transform="translate(-425.61 -541.542)" fill="#65b742"/>
                <rect id="Rectángulo_3229" data-name="Rectángulo 3229" width="9.79" height="19.476" transform="translate(3.749 9.999)" fill="#65b742"/>
                <path id="Trazado_19296" data-name="Trazado 19296" d="M426,554.175v15.414a1.266,1.266,0,0,0,1.25,1.25h.417a1.266,1.266,0,0,0,1.25-1.25V555.425h11.248v14.165a1.266,1.266,0,0,0,1.25,1.25h.417a1.266,1.266,0,0,0,1.25-1.25V554.175a1.867,1.867,0,0,0-1.875-1.875h-13.54A1.836,1.836,0,0,0,426,554.175Z" transform="translate(-426 -542.301)" fill="#65b742"/>
              </g>
              <g id="Grupo_13175" data-name="Grupo 13175" transform="translate(35.099 0)">
                <circle id="Elipse_752" data-name="Elipse 752" cx="4.583" cy="4.583" r="4.583" transform="translate(3.958)" fill="#65b742"/>
                <path id="Trazado_19297" data-name="Trazado 19297" d="M465.7,589.972H464.55a1.266,1.266,0,0,1-1.25-1.25V570.6h3.749v18.122A1.359,1.359,0,0,1,465.7,589.972Z" transform="translate(-459.551 -541.542)" fill="#65b742"/>
                <path id="Trazado_19298" data-name="Trazado 19298" d="M471.5,589.972H470.35a1.266,1.266,0,0,1-1.25-1.25V570.6h3.749v18.122A1.359,1.359,0,0,1,471.5,589.972Z" transform="translate(-459.31 -541.542)" fill="#65b742"/>
                <rect id="Rectángulo_3230" data-name="Rectángulo 3230" width="9.79" height="19.476" transform="translate(3.645 9.999)" fill="#65b742"/>
                <path id="Trazado_19299" data-name="Trazado 19299" d="M459.7,554.175v15.414a1.266,1.266,0,0,0,1.25,1.25h.417a1.266,1.266,0,0,0,1.25-1.25V555.425h11.248v14.165a1.266,1.266,0,0,0,1.25,1.25h.417a1.266,1.266,0,0,0,1.25-1.25V554.175a1.867,1.867,0,0,0-1.875-1.875h-13.54A1.836,1.836,0,0,0,459.7,554.175Z" transform="translate(-459.7 -542.301)" fill="#65b742"/>
              </g>
              <g id="Grupo_13176" data-name="Grupo 13176" transform="translate(70.094)">
                <path id="Trazado_19300" data-name="Trazado 19300" d="M506.265,547.283a4.583,4.583,0,1,1-4.583-4.583A4.493,4.493,0,0,1,506.265,547.283Z" transform="translate(-493.142 -542.7)" fill="#65b742"/>
                <path id="Trazado_19301" data-name="Trazado 19301" d="M499.3,589.972H498.15a1.266,1.266,0,0,1-1.25-1.25V570.6h3.749v18.122A1.291,1.291,0,0,1,499.3,589.972Z" transform="translate(-493.151 -541.542)" fill="#65b742"/>
                <path id="Trazado_19302" data-name="Trazado 19302" d="M505.1,589.972H503.95a1.266,1.266,0,0,1-1.25-1.25V570.6h3.75v18.122A1.359,1.359,0,0,1,505.1,589.972Z" transform="translate(-492.91 -541.542)" fill="#65b742"/>
                <rect id="Rectángulo_3231" data-name="Rectángulo 3231" width="9.79" height="19.476" transform="translate(3.645 9.999)" fill="#65b742"/>
                <path id="Trazado_19303" data-name="Trazado 19303" d="M493.3,554.175v15.414a1.266,1.266,0,0,0,1.25,1.25h.417a1.266,1.266,0,0,0,1.25-1.25V555.425h11.248v14.165a1.266,1.266,0,0,0,1.25,1.25h.417a1.266,1.266,0,0,0,1.25-1.25V554.175a1.867,1.867,0,0,0-1.875-1.875h-13.54A1.836,1.836,0,0,0,493.3,554.175Z" transform="translate(-493.3 -542.301)" fill="#65b742"/>
              </g>
            </g>
            <g id="Grupo_13179" data-name="Grupo 13179" transform="translate(8.02 54.159)">
              <g id="Grupo_13178" data-name="Grupo 13178" transform="translate(3.125 1.771)">
                <rect id="Rectángulo_3232" data-name="Rectángulo 3232" width="28.85" height="1.042" fill="#65b742"/>
              </g>
              <path id="Trazado_19304" data-name="Trazado 19304" d="M433.7,596.991l4.062,2.291V594.7l-4.062,2.291,4.062,2.291V594.7Z" transform="translate(-433.7 -594.7)" fill="#65b742"/>
              <path id="Trazado_19305" data-name="Trazado 19305" d="M467.358,596.991,463.4,594.7v4.583l3.958-2.291L463.4,594.7v4.583Z" transform="translate(-432.467 -594.7)" fill="#65b742"/>
            </g>
            <text id="_2m" data-name="2m" transform="translate(20.862 50.717)" fill="#65b742" font-size="6" font-family="ArialMT, Arial"><tspan x="0" y="0">2m</tspan></text>
            <g id="Grupo_13181" data-name="Grupo 13181" transform="translate(44.264 54.159)">
              <g id="Grupo_13180" data-name="Grupo 13180" transform="translate(3.125 1.771)">
                <rect id="Rectángulo_3233" data-name="Rectángulo 3233" width="28.85" height="1.042" fill="#65b742"/>
              </g>
              <path id="Trazado_19306" data-name="Trazado 19306" d="M468.5,596.991l4.062,2.291V594.7l-4.062,2.291,4.062,2.291V594.7Z" transform="translate(-468.5 -594.7)" fill="#65b742"/>
              <path id="Trazado_19307" data-name="Trazado 19307" d="M502.162,596.991,498.1,594.7v4.583l4.062-2.291L498.1,594.7v4.583Z" transform="translate(-467.271 -594.7)" fill="#65b742"/>
            </g>
            <text id="_2m-2" data-name="2m" transform="translate(57.082 50.717)" fill="#65b742" font-size="6" font-family="ArialMT, Arial"><tspan x="0" y="0">2m</tspan></text>
          </g>
        </g>
        <g id="Grupo" transform="translate(20.865 11.921)">
          <text id="Mantenga_su_distancia" data-name="Mantenga su distancia" transform="translate(0 9)" fill="#65b742" font-size="10" font-family="BebasNeueBold, Bebas Neue"><tspan x="0" y="0">Mantenga su distancia</tspan></text>
          <text id="de_otras_personas" data-name="de otras personas" transform="translate(7.186 18.27)" fill="#65b742" font-size="10" font-family="BebasNeueBold, Bebas Neue"><tspan x="0" y="0">de otras personas</tspan></text>
        </g>
      </g>
    </g>
  </g>
</svg>
