<svg id="google-analytics" xmlns="http://www.w3.org/2000/svg" width="32.79" height="32.79" viewBox="0 0 32.79 32.79">
  <g id="Grupo_11260" data-name="Grupo 11260">
    <g id="Grupo_11259" data-name="Grupo 11259">
      <path id="Trazado_9924" data-name="Trazado 9924" d="M32.15,13.369h-4.1a.64.64,0,0,0-.64.64v3.234a.64.64,0,0,0,1.281,0V14.65h2.818V31.509H28.691V22.047a.64.64,0,1,0-1.281,0v9.462H26.13V18.252a.64.64,0,0,0-.64-.64h-4.1a.64.64,0,0,0-.64.64V31.509H19.469V22.735a.64.64,0,0,0-.64-.64h-4.1a.64.64,0,0,0-.64.64v8.774H12.809v-5.1a.64.64,0,0,0-.64-.64h-4.1a.64.64,0,0,0-.64.64v5.1H1.921a.641.641,0,0,1-.64-.64V1.921a.641.641,0,0,1,.64-.64H18.443V5.508a1.923,1.923,0,0,0,1.921,1.921h4.227v7.877a.64.64,0,1,0,1.281,0V6.789a.641.641,0,0,0-.188-.453L19.536.188A.641.641,0,0,0,19.083,0H1.921A1.923,1.923,0,0,0,0,1.921V30.869A1.923,1.923,0,0,0,1.921,32.79H32.15a.64.64,0,0,0,.64-.64V14.009A.64.64,0,0,0,32.15,13.369ZM19.724,2.187l3.962,3.962H20.364a.641.641,0,0,1-.64-.64Zm-8.2,29.323H8.71V27.05h2.818Zm6.66,0H15.37V23.376h2.818Zm6.66,0H22.031V18.893h2.818Z" fill="#ff8f00"/>
    </g>
  </g>
  <g id="Grupo_11262" data-name="Grupo 11262" transform="translate(27.41 18.886)">
    <g id="Grupo_11261" data-name="Grupo 11261">
      <path id="Trazado_9925" data-name="Trazado 9925" d="M429.093,295.078a.64.64,0,1,0,.188.453A.643.643,0,0,0,429.093,295.078Z" transform="translate(-428 -294.89)" fill="#ff8f00"/>
    </g>
  </g>
  <g id="Grupo_11264" data-name="Grupo 11264" transform="translate(3.433 3.505)">
    <g id="Grupo_11263" data-name="Grupo 11263">
      <path id="Trazado_9926" data-name="Trazado 9926" d="M59.492,54.729a.64.64,0,0,0-.64.64v1.152a5.891,5.891,0,1,0,6.5,6.5H66.5a.64.64,0,0,0,.64-.64A7.657,7.657,0,0,0,59.492,54.729Zm0,12.258a4.61,4.61,0,0,1-.64-9.175v4.565a.64.64,0,0,0,.64.64h4.565A4.617,4.617,0,0,1,59.492,66.987Zm.64-5.25h0V56.042a6.38,6.38,0,0,1,5.695,5.7Z" transform="translate(-53.602 -54.729)" fill="#ff8f00"/>
    </g>
  </g>
  <g id="Grupo_11266" data-name="Grupo 11266" transform="translate(3.458 18.845)">
    <g id="Grupo_11265" data-name="Grupo 11265">
      <path id="Trazado_9927" data-name="Trazado 9927" d="M66.873,294.25H54.64a.64.64,0,0,0,0,1.281H66.873a.64.64,0,0,0,0-1.281Z" transform="translate(-54 -294.25)" fill="#ff8f00"/>
    </g>
  </g>
  <g id="Grupo_11268" data-name="Grupo 11268" transform="translate(3.458 21.935)">
    <g id="Grupo_11267" data-name="Grupo 11267">
      <path id="Trazado_9928" data-name="Trazado 9928" d="M58.739,342.5h-4.1a.64.64,0,0,0,0,1.281h4.1a.64.64,0,0,0,0-1.281Z" transform="translate(-54 -342.5)" fill="#ff8f00"/>
    </g>
  </g>
  <g id="Grupo_11270" data-name="Grupo 11270" transform="translate(10.764 21.935)">
    <g id="Grupo_11269" data-name="Grupo 11269">
      <path id="Trazado_9929" data-name="Trazado 9929" d="M169.173,342.688a.64.64,0,1,0,.188.453A.645.645,0,0,0,169.173,342.688Z" transform="translate(-168.08 -342.5)" fill="#ff8f00"/>
    </g>
  </g>
</svg>
