<?xml version="1.0" encoding="utf-8"?>
<!-- Generator: Adobe Illustrator 24.2.1, SVG Export Plug-In . SVG Version: 6.00 Build 0)  -->
<svg version="1.1" id="Layer_1" xmlns="http://www.w3.org/2000/svg" xmlns:xlink="http://www.w3.org/1999/xlink" x="0px" y="0px"
	 viewBox="0 0 969 803.8" style="enable-background:new 0 0 969 803.8;" xml:space="preserve">
<style type="text/css">
	.st0{opacity:0.64;fill:#FEFEFE;enable-background:new    ;}
	.st1{opacity:0.5;fill:#FEFEFE;enable-background:new    ;}
	.st2{opacity:0.61;fill:#FEFEFE;}
	.st3{fill:url(#SVGID_1_);}
	.st4{opacity:0.53;fill:#FFFFFF;}
	.st5{fill:#4745AA;}
	.st6{fill:url(#SVGID_2_);}
	.st7{fill:url(#SVGID_3_);}
	.st8{fill:url(#SVGID_4_);}
	.st9{fill:url(#SVGID_5_);}
	.st10{fill:url(#SVGID_6_);}
	.st11{fill:url(#SVGID_7_);}
	.st12{fill:url(#SVGID_8_);}
	.st13{fill:url(#SVGID_9_);}
	.st14{fill:url(#SVGID_10_);}
	.st15{fill:url(#SVGID_11_);}
	.st16{fill:url(#SVGID_12_);}
	.st17{fill:url(#SVGID_13_);}
	.st18{fill:url(#SVGID_14_);}
	.st19{fill:url(#SVGID_15_);}
	.st20{fill:url(#SVGID_16_);}
	.st21{fill:url(#SVGID_17_);}
	.st22{fill:url(#SVGID_18_);}
	.st23{fill:url(#SVGID_19_);}
	.st24{fill:url(#SVGID_20_);}
	.st25{fill:#48484A;}
	.st26{fill:#92959A;}
	.st27{fill:#D3D7D8;}
	.st28{fill:#787878;}
	.st29{fill:#A9AEB2;}
	.st30{fill:#FFFFFF;}
	.st31{fill:#F7BE97;}
	.st32{fill:#000062;}
	.st33{fill:#FF970B;}
	.st34{fill:#EF8E1B;}
	.st35{fill:#E8A679;}
	.st36{fill:#157C75;}
	.st37{fill:#F55D59;}
	.st38{fill:#D83B1D;}
	.st39{fill:#3BB1AC;}
	.st40{fill:#FFC23B;}
	.st41{fill:#39A4A0;}
	.st42{opacity:0.37;fill:#39A4A0;}
	.st43{fill:#3BB8BA;}
	.st44{fill:#E34F51;}
	.st45{fill:#E6E7E8;}
	.st46{fill:#0086DA;}
	.st47{fill:#0075DA;}
	.st48{fill:#CE7000;}
	.st49{fill:#E98212;}
	.st50{fill:#2C2C4C;}
	.st51{fill:#4C4C75;}
	.st52{fill:#FFC8A4;}
	.st53{fill:#C03F3C;}
	.st54{fill:#181733;}
	.st55{opacity:0.48;fill:#FFFFFF;}
	.st56{fill:#39395C;}
	.st57{fill:#2699DF;}
	.st58{fill:#A7A9AC;}
	.st59{opacity:0.78;fill:#C03F3C;}
	.st60{fill:#D1CDC9;}
	.st61{fill:#1871BF;}
	.st62{fill:#808285;}
	.st63{opacity:0.88;fill:#FFFFFF;}
	.st64{fill:#F27E7E;}
	.st65{fill:#A5A5A5;}
	.st66{fill:url(#SVGID_21_);}
	.st67{fill:#ADADAD;}
	.st68{fill:#F7931E;}
</style>
<g>
	<g id="Grupo_1448" transform="translate(0 0)">
		<path id="Trazado_7440" class="st0" d="M195.2,345.2c17.3,171.9,281.2,475.6,458.3,457.8S854,452.7,836.7,280.7
			c-17.3-171.9-174.9-296.9-352-279S177.9,173.3,195.2,345.2z"/>
		<path id="Trazado_7441" class="st1" d="M131.4,626c46,99,254.6,131.7,426.8,103.7s444.9-156,407.3-387
			c-14.6-89.9-109.9-251.2-465.6-145.1C302.5,256.4,67.8,489.1,131.4,626z"/>
		<path id="Trazado_7442" class="st2" d="M52.3,333.7c0,172.2,310,360.4,481,360.4S888.1,506,888.1,333.7S815.9,44.9,563.4,175.4
			C411.2,254.1,52.3,161.5,52.3,333.7z"/>
		<path id="Trazado_7444" class="st1" d="M101.7,544.7c9.8-18.3-7-72.1-34.2-86.8S13,473.4,3.1,491.7s4.3,45,31.5,59.6
			S91.9,562.9,101.7,544.7z"/>
		<path id="Trazado_7445" class="st1" d="M818.7,83.9c-6.1,11.4,7.1,46.3,26.2,56.5c19,10.2,36.7-8.2,42.7-19.5s-4.4-28.9-23.4-39.1
			C845.1,71.6,824.8,72.6,818.7,83.9z"/>
	</g>
	<g>
		
			<linearGradient id="SVGID_1_" gradientUnits="userSpaceOnUse" x1="1335.2065" y1="346.0096" x2="1232.9216" y2="469.1836" gradientTransform="matrix(-0.9806 -0.1959 -0.1959 0.9806 1625.9711 105.1414)">
			<stop  offset="0" style="stop-color:#A6C979"/>
			<stop  offset="1" style="stop-color:#39A4A0"/>
		</linearGradient>
		<path class="st3" d="M356,286.8c0.3-4.5,0.4-9.2-1.3-13.4c-1.7-4.2-5.7-7.8-10.3-7.6c-4.2,0.2-8.1,3.4-12.2,2.3
			c-5.3-1.5-5.8-8.9-4.9-14.3c1.4-8.4,3.5-17.1,1.1-25.3c-2.4-8.2-11.4-15.2-19.3-11.9c-2.8,1.2-5.1,3.5-8.1,4.2
			c-4.4,1.1-9-1.7-11.8-5.4c-2.7-3.7-4.1-8.2-6-12.3c-3.1-6.5-8-12.5-14.5-15.5c-6.5-3.1-14.9-2.8-20.5,1.7c-5,4.1-7.2,11-6.6,17.5
			c0.6,6.5,3.6,12.5,7.4,17.7c3.1,4.3,6.9,9.8,4.1,14.2c-2.5,4.1-8.6,3.7-12.9,5.9c-6.8,3.5-8.1,13.5-4.1,20
			c4,6.5,11.7,9.9,19.2,11.5c4.3,0.9,8.9,1.3,12.8,3.5c3.9,2.2,6.8,6.8,5.3,11c-1,2.9-3.8,4.7-5.2,7.4c-2,3.8-1,8.7,1.4,12.2
			c2.5,3.5,6.2,6,9.9,8.2c15.6,9.4,42.7,24.2,61.7,22.4C354.9,339.6,355.3,298.4,356,286.8z"/>
		<path class="st4" d="M359.8,401.4c-19.9-78-57.6-151.9-109-213.6l1.7-1.4C304.2,248.3,342,322.4,362,400.8L359.8,401.4z"/>
	</g>
	<g>
		<g>
			<g>
				<g>
					<g>
						<path class="st5" d="M198.4,266.8c9.4,1.4,18,3.1,26,5c4,1,7.9,2.1,11.6,3.2c3.7,1.2,7.3,2.4,10.8,3.8c3.4,1.4,6.8,2.8,10,4.4
							c3.2,1.6,6.3,3.2,9.2,5c5.9,3.5,11.4,7.6,16.4,12.1c2.5,2.3,4.9,4.7,7.1,7.3c0.6,0.6,1.1,1.3,1.7,1.9c0.3,0.3,0.5,0.7,0.8,1
							l0.8,1c0.5,0.7,1,1.4,1.6,2.1l0.4,0.5l0.4,0.5l0.7,1.1c3.9,5.7,7.4,12,10.4,18.8c3,6.8,5.6,14.2,8,22.2
							c2.4,8,4.5,16.5,6.7,25.8c0.3,1.3,1.9,0.9,1.6-0.4c-2.2-9.2-4.3-17.8-6.7-25.8c-2.4-8-5-15.4-8.1-22.3
							c-3-6.9-6.5-13.3-10.5-19.1l-0.7-1.1l-0.4-0.5l-0.4-0.5c-0.5-0.7-1.1-1.4-1.6-2.1l-0.8-1c-0.3-0.3-0.5-0.7-0.8-1
							c-0.6-0.7-1.1-1.3-1.7-2c-2.2-2.7-4.7-5.1-7.2-7.4c-5.1-4.6-10.6-8.8-16.7-12.3c-3-1.8-6.1-3.5-9.4-5.1
							c-3.2-1.6-6.6-3-10.1-4.4c-3.5-1.4-7.1-2.6-10.9-3.8c-3.8-1.2-7.7-2.2-11.7-3.2c-8.1-2-16.8-3.6-26.2-5.1
							C197.3,264.9,197.1,266.5,198.4,266.8z"/>
						<path class="st5" d="M308.6,338.2c0.2-1.2,0.3-2.3,0.5-3.5c0.2-1.1,0.4-2.3,0.6-3.4c0.2-1.2,0.4-2.3,0.6-3.4
							c0.2-1.1,0.4-2.3,0.7-3.4c0.9-4.5,2.1-8.9,3.4-13.2c0.5-1.8,1.6-2.6,2.9-2.7c1.3-0.1,2.8,0.5,4.2,1.6c2.7,2.2,4.8,6.4,3.4,9.9
							c-1.6,4.2-4,7.9-6.8,10.9C315.4,334.1,312.2,336.4,308.6,338.2z"/>
						<path class="st5" d="M299.4,322.5c0,0,0.2-1.5,0.4-4c0.1-1.3,0.2-2.7,0.3-4.4c0-0.9,0.1-1.7,0.1-2.7c0-0.5,0.1-1,0.1-1.4
							c0-0.5,0-1,0-1.5c0-1,0-2,0-3.1c0-0.5,0-1.1,0-1.6c0-0.5,0-1.1,0-1.6c-0.1-2.2-0.2-4.4-0.2-6.5c-0.1-2.2-0.3-4.3-0.3-6.3
							c-0.1-2-0.2-3.9-0.2-5.5c0-1.7,0.8-2.8,1.9-3.2c1.1-0.4,2.7-0.2,4.3,0.5c1.6,0.7,3.1,2,4.3,3.5c0.3,0.4,0.6,0.8,0.8,1.2
							c0.2,0.4,0.4,0.8,0.6,1.3c0.3,0.9,0.5,1.8,0.5,2.7c0,0.8-0.1,1.7-0.2,2.6c-0.1,0.9-0.2,1.8-0.4,2.7c-0.3,1.9-0.8,3.8-1.4,5.7
							c-0.3,0.9-0.6,1.9-0.9,2.8c-0.3,0.9-0.7,1.9-1,2.8c-0.7,1.8-1.5,3.5-2.3,5.2c-0.8,1.6-1.6,3.1-2.3,4.4
							c-0.8,1.3-1.5,2.5-2.1,3.5C300.2,321.4,299.4,322.5,299.4,322.5z"/>
						<g>
							<path class="st5" d="M287.1,270.9c3.1,11.1,1.8,21.8-1.6,32.1c-1.3-6.1-3.1-11.9-4.9-17.5c-1.8-5.5-3.7-10.9-5.4-16.1
								c-0.5-1.6-0.2-2.8,0.6-3.5c0.8-0.7,2.2-1,3.7-0.9c0.7,0.1,1.5,0.3,2.3,0.5c0.8,0.3,1.5,0.7,2.2,1.2c0.7,0.5,1.3,1.1,1.9,1.8
								C286.4,269.3,286.8,270,287.1,270.9z"/>
						</g>
						<g>
							<path class="st5" d="M262.6,255c6,11.1,7.6,23,6.8,34.9c-3-6.2-6.4-12-9.7-17.5c-3.3-5.5-6.5-10.8-9.4-16
								c-1.8-3.1,0.2-5.2,3.4-5.6c1.5-0.2,3.3,0,5,0.7C260.2,252.2,261.7,253.3,262.6,255z"/>
						</g>
						<g>
							<path class="st5" d="M238.5,252.8c5.6,7.6,8.5,16.3,10.6,26.2c-3.8-4.5-7.5-8.4-10.8-12.2c-3.4-3.7-6.4-7.3-9.1-11
								c-1.8-2.4-0.5-4.4,1.8-5.2c1.2-0.4,2.6-0.5,3.9-0.1C236.2,250.8,237.5,251.6,238.5,252.8z"/>
						</g>
						<path class="st5" d="M179.5,259.8c8.6,1.2,17.2,3.2,24.6,6.8c-8.4,0.6-17,0.3-25.5-1.1C173.8,264.8,174.7,259.2,179.5,259.8z"
							/>
						<path class="st5" d="M232.8,273.4c-6-5.9-13.1-10.8-18.8-16.3c-1.9-1.8-1.2-3.8,0.5-4.8c1.7-1,4.4-1,6.5,0.8
							c3.6,3.3,6.7,8.4,8.7,12.6c1,2.1,1.8,4.1,2.3,5.4C232.6,272.5,232.8,273.4,232.8,273.4z"/>
						<path class="st5" d="M213.7,269.4c-4.7-3.8-9.8-7-14-10.8c-1.4-1.3-0.9-2.6,0.2-3.4c1.2-0.8,3.1-0.9,4.5,0.3
							c2.6,2.2,4.9,5.7,6.6,8.6c0.8,1.5,1.5,2.8,1.9,3.7C213.4,268.8,213.7,269.4,213.7,269.4z"/>
						<path class="st5" d="M306.4,339.1c-0.4-0.4-0.9-0.7-1.3-1.1c-0.5-0.3-0.9-0.7-1.4-1c-0.9-0.6-1.9-1.2-2.8-1.8
							c-0.9-0.6-1.9-1.1-2.9-1.5c-1-0.5-2-0.9-2.9-1.3c-4-1.5-7.9-2.4-11.9-2.5c-1.6-0.1-2.8,0.6-3.6,1.5c-0.8,0.9-1.2,2.2-1.3,3.4
							c-0.1,2.5,1.3,5,4.5,5.4c4,0.5,8,0.8,12,0.7C298.8,340.8,302.7,340.2,306.4,339.1z"/>
						<path class="st5" d="M300.1,322.1c0,0-1.4-0.6-3.7-1.5c-1.1-0.5-2.5-0.9-4-1.4c-0.8-0.2-1.6-0.5-2.4-0.7
							c-0.4-0.1-0.8-0.2-1.3-0.3c-0.4-0.1-0.9-0.2-1.3-0.3c-0.9-0.2-1.8-0.4-2.7-0.5c-0.5-0.1-0.9-0.2-1.4-0.2
							c-0.5-0.1-0.9-0.1-1.4-0.2c-1.9-0.2-3.7-0.3-5.5-0.3c-1.8,0-3.6,0.2-5.1,0.4c-1.6,0.2-3.1,0.6-4.4,1c-1.4,0.4-2.3,1.3-2.8,2.3
							c-0.5,1-0.7,2.1-0.6,3.1c0.2,1,0.5,1.9,1.3,2.4c0.2,0.1,0.4,0.3,0.6,0.4c0.2,0.1,0.5,0.2,0.7,0.3c0.5,0.1,1.1,0.1,1.8,0
							c0.6-0.1,1.3-0.2,2-0.4c0.7-0.1,1.5-0.3,2.2-0.4c1.6-0.3,3.3-0.6,4.9-0.9c0.9-0.2,1.8-0.3,2.6-0.5c0.9-0.2,1.8-0.3,2.6-0.4
							c1.8-0.2,3.5-0.5,5.2-0.7c1.7-0.2,3.4-0.4,4.8-0.5c1.5-0.1,2.8-0.2,3.9-0.3C298.8,322.2,300.1,322.1,300.1,322.1z"/>
						<g>
							<path class="st5" d="M257.4,312.7c8.6-2.7,17.6-6.5,28-9.7c-6.1-1.4-11.7-1.9-16.8-1.6c-5.2,0.3-9.8,1.3-14.2,3
								c-2.7,1-3,3.6-2.3,5.6c0.2,0.5,0.5,1,0.8,1.4c0.3,0.4,0.7,0.8,1.2,1c0.4,0.3,1,0.4,1.5,0.5C256.1,313,256.7,313,257.4,312.7z
								"/>
						</g>
						<g>
							<path class="st5" d="M240.4,305.3c9.2-4.3,18.4-10,29.1-15.5c-6.9-0.4-13.2,0.2-18.8,1.4c-5.6,1.2-10.7,3.1-15.3,5.6
								c-2.7,1.5-2.7,4.3-1.4,6.3c0.6,1,1.6,1.8,2.7,2.3C237.7,306,239,305.9,240.4,305.3z"/>
						</g>
						<g>
							<path class="st5" d="M226.5,293.7c7.3-3.7,14-9,22.5-14.5c-5.9,0.4-10.9,1.3-15.5,2.6c-4.5,1.3-8.5,2.9-12.2,5
								c-2.4,1.4-2.2,3.7-0.9,5.4c0.6,0.9,1.6,1.5,2.6,1.8C224.1,294.4,225.3,294.3,226.5,293.7z"/>
						</g>
						<path class="st5" d="M232.9,273.3c-8.2,1.7-16.3,3.2-23.1,6.3c-2.3,1-2.3,3.1-1.3,4.6c1.1,1.5,3.2,2.6,5.5,1.6
							c4.1-1.6,8.7-4.8,12.4-7.5c1.9-1.4,3.5-2.6,4.6-3.5C232.2,273.9,232.9,273.3,232.9,273.3z"/>
						<path class="st5" d="M214,268.1c-5.8,1.7-11.6,3.1-16.5,5.5c-1.7,0.8-1.6,2.3-0.8,3.3c0.8,1.1,2.5,1.8,4.2,1
							c3-1.3,6.2-3.8,8.8-5.9c1.3-1.1,2.4-2.1,3.1-2.8C213.5,268.5,214,268.1,214,268.1z"/>
					</g>
				</g>
			</g>
		</g>
	</g>
	<g>
		
			<linearGradient id="SVGID_2_" gradientUnits="userSpaceOnUse" x1="1523.3782" y1="397.5699" x2="1440.4293" y2="497.4588" gradientTransform="matrix(0.8774 -0.4797 0.4797 0.8774 -800.2526 491.259)">
			<stop  offset="0" style="stop-color:#A6C979"/>
			<stop  offset="1" style="stop-color:#39A4A0"/>
		</linearGradient>
		<path class="st6" d="M669.3,215.7c-1.3-3.4-2.5-7-2.2-10.7s2.5-7.4,6.1-8.4c3.3-0.9,7.1,0.7,10-1.2c3.8-2.5,2.4-8.3,0.3-12.3
			c-3.1-6.2-6.9-12.4-7-19.3s5.2-14.5,12-13.9c2.5,0.2,4.8,1.4,7.3,1.3c3.7-0.2,6.6-3.5,7.8-7c1.2-3.5,1.2-7.3,1.7-11
			c0.8-5.8,3.1-11.6,7.5-15.5c4.3-4,10.8-5.8,16.3-3.6c4.9,1.9,8.2,6.8,9.3,11.9c1.1,5.1,0.2,10.5-1.4,15.5c-1.4,4.1-3,9.2,0.3,12
			c3,2.5,7.5,0.8,11.4,1.5c6.1,1,9.6,8.5,8,14.5c-1.5,6-6.6,10.5-12,13.5c-3.1,1.7-6.6,3.2-9,5.8c-2.5,2.6-3.6,6.9-1.5,9.8
			c1.5,2,4.1,2.7,5.8,4.5c2.5,2.4,2.9,6.5,1.8,9.8s-3.3,6.1-5.7,8.7c-9.8,11-27.2,29-42.3,32.3C682.9,256.3,672.7,224.5,669.3,215.7
			z"/>
		<path class="st4" d="M692.3,305.4c-3.5-65.5,7.8-132,32.8-192.5l1.7,0.7c-24.8,60.2-36.1,126.5-32.6,191.7L692.3,305.4z"/>
	</g>
	<g>
		
			<linearGradient id="SVGID_3_" gradientUnits="userSpaceOnUse" x1="1328.6686" y1="391.5779" x2="1352.8738" y2="511.9307" gradientTransform="matrix(0.8962 -0.4436 0.4436 0.8962 -1138.1173 553.0695)">
			<stop  offset="0" style="stop-color:#6FD7D3"/>
			<stop  offset="1" style="stop-color:#1A7FB0"/>
		</linearGradient>
		<path class="st7" d="M218.3,335.7c-3.8,9.1-0.3,20.8,8,26.2c3.4,2.2,7.5,3.6,9.8,6.9c4.2,6.1-0.4,14.1-2,21.3
			c-2.7,12.2,5,25.7,16.8,29.7c10.2,3.4,21.7,0.3,31.8,3.9c7.2,2.6,12.7,8.3,19.3,12c6.6,3.8,15.9,5.1,21.2-0.4
			c3.4-3.6,4-9,3.4-13.8c-0.6-4.9-2.3-9.6-2.9-14.5c-1.1-9.2,2-18.4,2.9-27.7c0.9-9.3-1.1-20-9.1-24.8c-4.3-2.6-9.6-2.9-14.2-5.1
			c-6.5-3.1-10.6-9.5-15.7-14.5c-9.3-9.2-22.7-14-35.8-13.3C239.5,322.3,224,322.2,218.3,335.7z"/>
		<path class="st4" d="M366.2,520.9c-13-68.6-51.6-132.9-105.9-176.6l1.3-1.6c54.7,43.9,93.5,108.8,106.6,177.8L366.2,520.9z"/>
	</g>
	<g>
		
			<linearGradient id="SVGID_4_" gradientUnits="userSpaceOnUse" x1="13.7633" y1="336.7762" x2="-0.2273" y2="423.8284" gradientTransform="matrix(-0.7854 0.619 0.619 0.7854 68.0265 183.3913)">
			<stop  offset="0" style="stop-color:#A6C979"/>
			<stop  offset="1" style="stop-color:#39A4A0"/>
		</linearGradient>
		<path class="st8" d="M290,513.3c8.3,4,20,9.3,28.9,7.9c1.9-0.3,23.2-11.5,23.1-11.7c-2.7-8.8-5.2-20.2-10.3-28
			c-4.7-7.1-14.5-11-22.5-13.5c-17.6-5.5-36.4-4.9-54.9-4.2c5.7,8.7,9.5,18.4,14.6,27.4C274,500.2,280.7,508.8,290,513.3z"/>
		<path class="st4" d="M342.6,505.9c-22.5-17.6-49.1-29.6-76.8-34.6l0.2-1.3c27.9,5,54.7,17.1,77.4,34.8L342.6,505.9z"/>
	</g>
	<g>
		<g>
			<g>
				
					<linearGradient id="SVGID_5_" gradientUnits="userSpaceOnUse" x1="281.7177" y1="567.563" x2="332.0888" y2="642.5471" gradientTransform="matrix(0.9641 0.2655 -0.2655 0.9641 147.8223 -245.6888)">
					<stop  offset="0" style="stop-color:#F9A3A1"/>
					<stop  offset="1" style="stop-color:#FFC23B"/>
				</linearGradient>
				<path class="st9" d="M287.2,452.1c1.8-0.1,7.4,1.4,12.5,3.2c5.1,1.7,9.7,3.8,9.7,3.8s-3.2,1.7-6.8,3.5c-3.6,1.8-7.6,3.6-9.4,3.7
					c-3.7,0.1-7.8-2.9-9.5-6.7C282,455.7,283.4,452.3,287.2,452.1z"/>
				
					<linearGradient id="SVGID_6_" gradientUnits="userSpaceOnUse" x1="298.1271" y1="556.5406" x2="348.498" y2="631.5245" gradientTransform="matrix(0.9641 0.2655 -0.2655 0.9641 147.8223 -245.6888)">
					<stop  offset="0" style="stop-color:#F9A3A1"/>
					<stop  offset="1" style="stop-color:#FFC23B"/>
				</linearGradient>
				<path class="st10" d="M318.1,441c0.1,1.9-1.8,6-3.7,9.5c-1.9,3.5-3.9,6.5-3.9,6.5s-1.8-4.6-3.9-9.7c-2-5.1-4.4-10.6-4.5-12.5
					c-0.3-3.7,3-5.6,7.5-3.9C314.2,432.6,318,437.2,318.1,441z"/>
			</g>
			<g>
				
					<linearGradient id="SVGID_7_" gradientUnits="userSpaceOnUse" x1="271.2878" y1="574.5691" x2="321.6591" y2="649.5534" gradientTransform="matrix(0.9641 0.2655 -0.2655 0.9641 147.8223 -245.6888)">
					<stop  offset="0" style="stop-color:#F9A3A1"/>
					<stop  offset="1" style="stop-color:#FFC23B"/>
				</linearGradient>
				<path class="st11" d="M268,434.8c1.7-0.2,7,0.8,11.9,2.1c4.8,1.3,9.3,2.8,9.3,2.8s-2.9,1.7-6.2,3.5c-3.3,1.8-6.9,3.7-8.6,3.8
					c-3.5,0.3-7.5-2.1-9.3-5.4C263.3,438.3,264.5,435.2,268,434.8z"/>
				
					<linearGradient id="SVGID_8_" gradientUnits="userSpaceOnUse" x1="284.0308" y1="566.0095" x2="334.4017" y2="640.9933" gradientTransform="matrix(0.9641 0.2655 -0.2655 0.9641 147.8223 -245.6888)">
					<stop  offset="0" style="stop-color:#F9A3A1"/>
					<stop  offset="1" style="stop-color:#FFC23B"/>
				</linearGradient>
				<path class="st12" d="M294.2,423.7c0.3,1.8-0.9,5.7-2.2,9.2c-1.3,3.5-2.7,6.5-2.7,6.5s-2.2-4.1-4.5-8.5
					c-1.2-2.2-2.4-4.5-3.4-6.5c-1-2-1.8-3.6-1.9-4.5c-0.7-3.5,2-5.5,6.2-4.5C289.8,416.4,293.7,420.2,294.2,423.7z"/>
			</g>
			<g>
				
					<linearGradient id="SVGID_9_" gradientUnits="userSpaceOnUse" x1="261.3797" y1="581.2249" x2="311.751" y2="656.2092" gradientTransform="matrix(0.9641 0.2655 -0.2655 0.9641 147.8223 -245.6888)">
					<stop  offset="0" style="stop-color:#F9A3A1"/>
					<stop  offset="1" style="stop-color:#FFC23B"/>
				</linearGradient>
				<path class="st13" d="M251.7,422.6c1.6-0.3,6.3,0.5,10.8,1.4c4.4,0.9,8.4,2,8.4,2s-2.6,1.6-5.5,3.2c-2.9,1.6-6.2,3.3-7.8,3.5
					c-3.2,0.4-6.8-1.5-8.5-4.2C247.5,425.7,248.6,423.1,251.7,422.6z"/>
				
					<linearGradient id="SVGID_10_" gradientUnits="userSpaceOnUse" x1="271.4462" y1="574.4631" x2="321.8172" y2="649.4471" gradientTransform="matrix(0.9641 0.2655 -0.2655 0.9641 147.8223 -245.6888)">
					<stop  offset="0" style="stop-color:#F9A3A1"/>
					<stop  offset="1" style="stop-color:#FFC23B"/>
				</linearGradient>
				<path class="st14" d="M273.5,411.3c0.4,1.6-0.2,5.2-0.9,8.5c-0.7,3.2-1.6,6.1-1.6,6.1s-2.3-3.5-4.7-7.2
					c-2.5-3.7-5.2-7.9-5.7-9.4c-0.9-3,1.1-5.1,4.7-4.6C269,405.2,272.6,408.2,273.5,411.3z"/>
			</g>
			<g>
				
					<linearGradient id="SVGID_11_" gradientUnits="userSpaceOnUse" x1="251.0274" y1="588.1791" x2="301.3986" y2="663.1635" gradientTransform="matrix(0.9641 0.2655 -0.2655 0.9641 147.8223 -245.6888)">
					<stop  offset="0" style="stop-color:#F9A3A1"/>
					<stop  offset="1" style="stop-color:#FFC23B"/>
				</linearGradient>
				<path class="st15" d="M235.7,411.6c1.4-0.2,5.5,0.3,9.3,0.9c3.8,0.7,7.3,1.4,7.3,1.4s-2.3,1.3-4.9,2.6c-2.6,1.4-5.5,2.8-6.9,3
					c-2.8,0.4-6-1.1-7.3-3.2C231.9,414.1,233,412,235.7,411.6z"/>
				
					<linearGradient id="SVGID_12_" gradientUnits="userSpaceOnUse" x1="258.3887" y1="583.2343" x2="308.7599" y2="658.2185" gradientTransform="matrix(0.9641 0.2655 -0.2655 0.9641 147.8223 -245.6888)">
					<stop  offset="0" style="stop-color:#F9A3A1"/>
					<stop  offset="1" style="stop-color:#FFC23B"/>
				</linearGradient>
				<path class="st16" d="M252.5,401.1c0.5,1.3,0.5,4.5,0.3,7.4c-0.2,2.9-0.5,5.4-0.5,5.4s-2.2-2.8-4.6-5.7c-2.4-3-5-6.3-5.6-7.6
					c-1.1-2.5,0.3-4.5,3.2-4.4C248.2,396.3,251.5,398.5,252.5,401.1z"/>
			</g>
			<g>
				
					<linearGradient id="SVGID_13_" gradientUnits="userSpaceOnUse" x1="241.3636" y1="594.6707" x2="291.7349" y2="669.655" gradientTransform="matrix(0.9641 0.2655 -0.2655 0.9641 147.8223 -245.6888)">
					<stop  offset="0" style="stop-color:#F9A3A1"/>
					<stop  offset="1" style="stop-color:#FFC23B"/>
				</linearGradient>
				<path class="st17" d="M221.5,403.5c1.2-0.2,4.8,0.1,8,0.5c1.6,0.2,3.2,0.4,4.4,0.6c1.2,0.2,1.9,0.3,1.9,0.3s-2,1-4.3,2.3
					c-2.3,1.1-4.8,2.4-6,2.6c-2.4,0.4-5.1-0.7-6.3-2.4C218.2,405.7,219.1,404,221.5,403.5z"/>
				
					<linearGradient id="SVGID_14_" gradientUnits="userSpaceOnUse" x1="247.0369" y1="590.8599" x2="297.4079" y2="665.8439" gradientTransform="matrix(0.9641 0.2655 -0.2655 0.9641 147.8223 -245.6888)">
					<stop  offset="0" style="stop-color:#F9A3A1"/>
					<stop  offset="1" style="stop-color:#FFC23B"/>
				</linearGradient>
				<path class="st18" d="M234.8,393.9c0.5,1.1,0.9,3.8,1,6.3c0.1,2.5,0.1,4.7,0.1,4.7s-2-2.2-4.3-4.6c-2.2-2.4-4.7-5.1-5.2-6.1
					c-1.1-2.1-0.2-3.9,2.1-4C230.9,390.1,233.7,391.8,234.8,393.9z"/>
			</g>
			<g>
				
					<linearGradient id="SVGID_15_" gradientUnits="userSpaceOnUse" x1="233.8958" y1="599.6873" x2="284.267" y2="674.6714" gradientTransform="matrix(0.9641 0.2655 -0.2655 0.9641 147.8223 -245.6888)">
					<stop  offset="0" style="stop-color:#F9A3A1"/>
					<stop  offset="1" style="stop-color:#FFC23B"/>
				</linearGradient>
				<path class="st19" d="M211.2,397.7c1-0.1,3.8,0.1,6.4,0.3c2.6,0.3,5,0.6,5,0.6s-1.6,0.8-3.5,1.7c-1.9,0.9-4,1.8-4.9,2
					c-1.9,0.3-4.1-0.5-4.9-1.8C208.3,399.4,209.2,398,211.2,397.7z"/>
				
					<linearGradient id="SVGID_16_" gradientUnits="userSpaceOnUse" x1="237.7094" y1="597.1255" x2="288.0806" y2="672.1097" gradientTransform="matrix(0.9641 0.2655 -0.2655 0.9641 147.8223 -245.6888)">
					<stop  offset="0" style="stop-color:#F9A3A1"/>
					<stop  offset="1" style="stop-color:#FFC23B"/>
				</linearGradient>
				<path class="st20" d="M220.6,390c0.5,0.8,1,3,1.4,4.9c0.4,2,0.6,3.7,0.6,3.7s-1.7-1.6-3.6-3.4c-1.9-1.7-3.9-3.7-4.4-4.5
					c-1-1.6-0.5-3.1,1.2-3.3C217.4,387.2,219.6,388.4,220.6,390z"/>
			</g>
		</g>
		<g>
			
				<linearGradient id="SVGID_17_" gradientUnits="userSpaceOnUse" x1="269.6209" y1="575.6886" x2="319.9922" y2="650.673" gradientTransform="matrix(0.9641 0.2655 -0.2655 0.9641 147.8223 -245.6888)">
				<stop  offset="0" style="stop-color:#F9A3A1"/>
				<stop  offset="1" style="stop-color:#FFC23B"/>
			</linearGradient>
			<path class="st21" d="M325.2,478.9c-2.6-3.8-9.2-12.6-19.3-22.5c-10-9.9-22.9-21-36.4-30.5c-13.4-9.5-27.2-17.4-37.8-22.7
				c-5.3-2.6-9.7-4.6-12.8-6c-3.1-1.3-4.9-2.1-4.9-2.1s1.8,0.7,4.9,1.9c3.1,1.3,7.6,3.2,13,5.6c10.7,4.9,24.9,12.4,38.7,21.5
				c13.8,9.1,27.3,19.9,37.6,29.7c10.5,9.7,17.6,18.7,20.3,22.6c5.6,7.8,9.2,15.8,11,21.8c1.8,6.1,1.9,10,1.4,10.1
				c-0.6,0.1-1.8-3.5-4.2-9.1C334.5,493.8,330.6,486.4,325.2,478.9z"/>
		</g>
		
			<linearGradient id="SVGID_18_" gradientUnits="userSpaceOnUse" x1="233.1222" y1="600.207" x2="283.4938" y2="675.1918" gradientTransform="matrix(0.9641 0.2655 -0.2655 0.9641 147.8223 -245.6888)">
			<stop  offset="0" style="stop-color:#F9A3A1"/>
			<stop  offset="1" style="stop-color:#FFC23B"/>
		</linearGradient>
		<path class="st22" d="M210.2,391.2c1.3,0.4,4.2,2.2,6.8,3.9c2.6,1.6,4.9,3.3,4.9,3.3s-2.7-0.6-5.7-1.2c-3-0.6-6.3-1.4-7.6-1.8
			c-2.5-0.9-4.1-2.6-3.7-3.8C205.3,390.5,207.7,390.3,210.2,391.2z"/>
	</g>
	<g>
		
			<linearGradient id="SVGID_19_" gradientUnits="userSpaceOnUse" x1="808.329" y1="351.2037" x2="914.0335" y2="198.5197" gradientTransform="matrix(0.9715 -0.237 0.237 0.9715 -60.3225 298.7116)">
			<stop  offset="0" style="stop-color:#F9A3A1"/>
			<stop  offset="1" style="stop-color:#FFC23B"/>
		</linearGradient>
		<path class="st23" d="M856.5,413.7c-5.9-1.8-10.6-0.4-15.9-0.5c-6.6-0.1-13.5-0.7-20,0.1c-3.2,0.4-6.2,1.3-9,2.4
			c-2.8,1.1-5.4,2.5-7.8,4.1c-2.1,1.4-4.2,2.8-6,4.5c0.6-1,1.1-2,1.7-2.9c1.5-2.6,3.1-5.1,4.3-8c1.6-3.7,3.3-7.3,4.9-11.1
			c0.8-2,1.6-4.1,3.1-5.5c0.9-0.8,2.2-1.4,3.6-1.4c1.5,0,3.2,0.6,4.7,0.8c3.3,0.5,6.7,1.8,10,2.8c7.1,2.2,14.3,4.2,20.8,5.4
			c5.7,1,10.8,1,15.3,0.2c4.2-0.8,8.7-2,9.7-6.3c0.1-0.2-0.2-0.6-0.5-0.8c-5.6-2.3-11.4-4.7-17.1-6.6c-5.7-1.8-11.4-3.1-16.9-3.3
			c-6-0.2-11.9,0.2-17.7,1c-2.5,0.4-4.9,1-7.3,1.7c-0.6,0.1-1.2,0.3-1.7,0.5c1.6-2.2,3.5-4.3,5.5-6.2c2-1.9,4.1-3.7,6.2-5.4
			c2.6-2.3,5.7-4.2,8.3-6.5l4.8-4.3c1.4-0.4,2.9-0.8,4.4-1.2c7,1,15.5,6.7,22.4,10.3c4.4,2.3,8.2,3.4,11.2,2.2
			c4-1.7,6.9-5.1,10.1-7.9c0.2-0.2-0.1-0.8-0.5-0.9c-4.7-1-9.4-1.9-14.2-2.8c-4.8-0.9-9.8-1.8-14.7-2.4c-5.3-0.7-10.4-0.5-15,0.6
			c-0.4,0-0.8-0.1-1.2-0.1l0.4-0.4c3-2.5,6.4-4.5,9.5-6.9c1.8-1.4,3.4-2.9,5.2-4.2c0.7-0.5,1.2-1.3,2-1.7c0.9-0.5,2.4-0.6,3.4-0.8
			c4.6-1.1,9.2-2.1,13.2-4.1c3.7-1.7,7-4.1,9.3-7.6c1.1-1.5,1.8-3.4,3.1-4.7c1.4-1.5,2.3-4,2.9-6.4c-6.6-0.1-13.7-0.2-18.6,3.6
			c-3.3,2.4-5.4,6.3-7.5,10.1c-2.1,3.6-4.3,6.5-7.4,9c-0.1,0.1-0.1,0.2-0.1,0.3c-3.9,3.1-7.7,6.1-11.8,9c2.4-2.5,4.5-5.2,6.2-8.4
			c1.6-2.8,2.6-6,3.5-9.5c0.8-3.6,0.4-8,1.7-11.4c0.2-0.5-0.6-1.2-0.8-0.7c-0.8,1.6-1.9,2.9-3,4.1c-1.1,1.2-2.4,2.4-3.6,3.5
			c-2.4,2.3-4.9,4.6-6,8c-0.5,1.5-0.6,3.2-0.9,4.8c-0.4,2.1-1.1,3.9-1.9,5.7c-0.5,1.3-1.1,2.5-1.5,3.8c-0.5,1.3-0.7,2.8-1.3,4
			c-2,3.4-5,5.4-8,7.8c-3.6,2.8-7.4,5.7-10.4,9.1c9.6-11.6,15.2-27.3,15.1-47.1c0-0.4-0.6-0.8-0.8-0.6c-2.2,1.9-4.6,3.5-7.1,5.1
			c-2.4,1.6-4.7,3.4-6.7,5.6c-3.6,4-6.2,9-7.9,14.4c-1.3,4.3-1.8,9.1-1.6,14c0.1,4.5,1,9.5,3.8,14.2c-1.2,1.5-2.3,3.1-3.4,4.6
			c-3,4.8-5.7,9.7-8,14.9l-2.9,6.3c-0.9,2.1-1.9,4.2-2.9,6.3c0.3-1.8,0.6-3.7,1-5.5c1.3-5.4,3.2-10.7,3.9-16.7
			c0.8-5.4,1.2-11.2,1.8-16.9c0.6-5.8,0.8-11.8,0.1-18.3c0-0.4-0.5-0.6-0.8-0.5c-6.1,2.5-11.2,6.5-15.2,11.3
			c-3.9,5-6.6,10.8-7.7,17.4c-1.1,6-0.7,12.5,1.4,19.2c1.1,3.4,2.5,6.9,4.2,10.3c0.8,1.7,1.7,3.4,2.7,5.1c0.5,0.8,0.9,1.7,1.4,2.5
			c0.4,0.6,1,1.1,1,1.7c0,0.4-0.1,0.6-0.3,0.9c-0.2,0.3-4.5,7.6-8.4,15c-4,7.4-7.4,15.1-7.6,15.4c-0.1,0.4-0.3,0.7-0.1,1.1
			c0.1,0.4,0.6,0.9,1.2,1.1c0.4,0.1,0.8,0,1-0.2c0.2-0.2,0.3-0.5,0.4-0.7c0.2-0.4,3.6-8.1,7.6-15.5c3.9-7.4,8.3-14.7,8.6-15
			c0.8-1.1,1.7-2.1,3.2-2.6c1.4-0.4,2.9-0.6,4.5-0.6c3.2-0.1,6.6,0.3,9.9,0.6c7,0.6,13.3,0.5,19.1-0.3c12.1-1.7,20.5-6.7,26.3-14.3
			C857.2,414.3,856.9,413.8,856.5,413.7z"/>
	</g>
	<g>
		<path class="st5" d="M520.2,115.6c-2.2-3.3-4.2-6.7-6.1-10.3c-0.9,0.4-1.9,0.4-2.7-0.3c-0.8-0.6-1.3-1.8-1.1-3
			c0.4-2.6,3-4.1,4.8-2.7c0.8,0.6,1.3,1.7,1.2,2.9c-0.1,1.1-0.5,1.9-1.1,2.5c1.5,3,3.2,5.9,5,8.6c0.3,0.4,0.9,0.3,1-0.2
			c0.7-2.5,1.6-4.9,2.5-7.3c0.1-0.1,0-0.3,0-0.4c-1.8-3.5-3.5-7.1-4.9-11c-0.9,0.3-1.9,0.2-2.7-0.6c-0.7-0.7-1-2-0.6-3.2
			c0.8-2.7,3.6-3.8,5.2-2.2c0.7,0.7,1,1.9,0.8,3.1c-0.2,1.1-0.8,1.8-1.5,2.4c1.1,3.3,2.5,6.4,4,9.4c0.2,0.4,0.7,0.3,0.9-0.1
			c1.8-4.3,4-8.5,6.6-12.4c-1.1-1.1-1.1-3.2,0.4-4.5c0.9-0.7,2.1-0.9,3-0.5c1.8,0.9,2.3,3.2,1.1,4.6c-0.8,1.1-2.3,1.5-3.6,1.1
			c-2.6,3.9-4.7,8-6.5,12.3c-0.2,0.4,0.2,0.8,0.6,0.7c1.6-0.5,3.2-1,4.8-1.4c1.6-0.4,3.2-0.7,4.8-1c0-0.7,0.2-1.4,0.9-2
			c0.7-0.6,1.8-0.8,2.7-0.4c2,0.8,2.8,3.1,1.5,4.4c-0.6,0.6-1.6,0.9-2.6,0.7c-1-0.2-1.8-0.8-2.2-1.6c-3.7,0.7-7.5,1.7-11.2,3
			c-0.1,0.1-0.3,0.2-0.3,0.3c-0.9,2.4-1.7,4.8-2.5,7.3c-0.1,0.5,0.3,0.9,0.8,0.7c3-1.3,6.1-2.5,9.1-3.5c-0.1-0.7,0-1.5,0.6-2.2
			c0.7-0.7,1.7-1,2.7-0.8c2.1,0.5,3.1,2.7,2,4.3c-0.5,0.7-1.5,1.2-2.5,1.1c-1.1-0.1-1.9-0.6-2.4-1.4c-3.6,1.2-7.2,2.7-10.8,4.4
			c-0.2,0.1-0.3,0.2-0.3,0.4c-0.7,2.5-1.3,5-1.9,7.5c-0.1,0.4,0.3,0.7,0.6,0.5c3-1.6,6-3.1,9.1-4.4c-0.2-0.7-0.1-1.5,0.5-2.3
			c0.6-0.8,1.6-1.3,2.6-1.2c2.1,0.2,3.4,2.4,2.4,4.2c-0.5,0.8-1.4,1.4-2.5,1.4c-1.1,0-1.9-0.5-2.5-1.2c-3.5,1.6-7.1,3.4-10.6,5.3
			c-0.1,0.1-0.2,0.2-0.2,0.3c-0.6,2.6-1.1,5.2-1.6,7.8c-0.1,0.4,0.3,0.7,0.7,0.5c2.9-1.7,5.9-3.3,8.9-4.9c-0.2-0.7-0.2-1.6,0.3-2.4
			c0.5-0.9,1.5-1.4,2.5-1.4c2.2,0.1,3.6,2.3,2.6,4.2c-0.4,0.9-1.4,1.6-2.4,1.7c-1.1,0.1-1.9-0.4-2.5-1.1c-3.5,1.9-6.9,3.8-10.4,5.8
			c-0.1,0.1-0.2,0.2-0.2,0.3c-0.5,2.6-0.8,5.1-1.2,7.7c-0.1,0.4,0.4,0.7,0.7,0.5c2.9-1.8,5.8-3.6,8.6-5.2c-0.2-0.7-0.2-1.5,0.3-2.4
			c0.5-0.9,1.5-1.5,2.5-1.5c2.2,0,3.6,2.1,2.8,4.1c-0.4,0.9-1.3,1.6-2.3,1.7c-1.1,0.1-2-0.3-2.6-1c-3.4,2-6.8,4-10.1,6.2
			c-0.1,0.1-0.2,0.2-0.2,0.3c-0.4,2.6-0.6,5.3-0.9,7.9c0,0.4,0.4,0.7,0.7,0.4c2.8-1.9,5.6-3.8,8.4-5.6c-0.3-0.7-0.3-1.5,0.1-2.4
			c0.5-0.9,1.4-1.5,2.4-1.6c2.2-0.1,3.7,2,3,4c-0.4,0.9-1.2,1.7-2.2,1.8c-1.1,0.2-2-0.2-2.6-0.9c-3.3,2.1-6.6,4.4-9.8,6.7
			c-0.1,0.1-0.2,0.2-0.2,0.4c-0.3,2.6-0.4,5.2-0.7,7.8c0,0.4,0.4,0.6,0.7,0.4c2.8-2,5.5-4,8.3-5.9c-0.3-0.7-0.3-1.6,0.1-2.4
			c0.4-0.9,1.3-1.6,2.3-1.7c2.2-0.2,3.8,1.9,3.1,4c-0.3,1-1.2,1.7-2.2,1.9c-1,0.2-2-0.1-2.6-0.8c-3.2,2.3-6.5,4.6-9.6,7
			c-0.1,0.1-0.2,0.2-0.2,0.3c-0.2,2.7-0.3,5.3-0.5,8c0,0.4,0.4,0.6,0.7,0.4c2.7-2.1,5.4-4.1,8.2-6.2c-0.3-0.7-0.4-1.6,0-2.4
			c0.4-1,1.3-1.7,2.3-1.8c2.2-0.3,3.9,1.8,3.2,3.9c-0.3,1-1.2,1.8-2.1,2c-1,0.2-2-0.1-2.6-0.7c-3.2,2.4-6.4,4.8-9.5,7.2
			c-0.1,0.1-0.2,0.2-0.2,0.3l-0.4,7.9c0,0.4,0.4,0.6,0.7,0.4l8.1-6.3c-0.3-0.7-0.4-1.6-0.1-2.5c0.4-1,1.3-1.7,2.3-1.8
			c2.1-0.3,3.9,1.7,3.3,3.9c-0.3,1-1.1,1.8-2.1,2.1c-1,0.3-2-0.1-2.6-0.7l-9.4,7.4c-0.1,0.1-0.2,0.2-0.2,0.3l-0.3,8
			c0,0.4,0.4,0.6,0.7,0.4l8.1-6.4c-0.3-0.7-0.4-1.6-0.1-2.5c0.4-1,1.2-1.7,2.2-1.9c2.1-0.3,3.9,1.7,3.3,3.9c-0.3,1-1.1,1.9-2.1,2.1
			c-1,0.3-2-0.1-2.7-0.7l-9.4,7.4c-0.1,0.1-0.2,0.2-0.2,0.3c-0.3,6.6-0.6,13.3-1,19.9l-1.2-0.1c0.4-6.7,0.7-13.3,1-20
			c0-0.1,0-0.3-0.1-0.4l-8.6-8c-0.7,0.6-1.7,0.8-2.7,0.5c-1-0.3-1.7-1.2-1.9-2.3c-0.4-2.3,1.5-4.2,3.6-3.7c1,0.3,1.8,1.1,2.1,2.1
			c0.3,0.9,0.1,1.8-0.3,2.5l7.4,6.9c0.3,0.3,0.7,0.1,0.7-0.3l0.3-8c0-0.1,0-0.3-0.1-0.4l-8.6-8.1c-0.7,0.6-1.7,0.8-2.7,0.4
			c-1-0.3-1.7-1.3-1.9-2.3c-0.4-2.3,1.5-4.2,3.6-3.7c1,0.3,1.8,1.1,2.1,2.1c0.3,0.9,0.1,1.8-0.3,2.5l7.3,6.9
			c0.3,0.3,0.7,0.1,0.7-0.3l0.4-7.9c0-0.1,0-0.3-0.1-0.4c-2.9-2.7-5.7-5.4-8.5-8.2c-0.7,0.6-1.7,0.8-2.7,0.4c-1-0.4-1.7-1.3-1.9-2.4
			c-0.4-2.3,1.6-4.2,3.7-3.6c1,0.3,1.7,1.1,2,2.2c0.3,1,0.1,1.8-0.3,2.5c2.4,2.4,4.8,4.7,7.2,7c0.3,0.3,0.7,0.1,0.7-0.3l0.5-8
			c0-0.1,0-0.3-0.1-0.4c-2.8-2.8-5.6-5.6-8.3-8.4c-0.7,0.5-1.7,0.8-2.7,0.3c-1-0.4-1.7-1.3-1.8-2.4c-0.3-2.4,1.7-4.3,3.8-3.6
			c1,0.3,1.7,1.2,2,2.2c0.2,1,0,1.8-0.4,2.5c2.3,2.5,4.7,4.9,7.1,7.2c0.3,0.3,0.7,0.1,0.7-0.3c0.2-2.6,0.4-5.2,0.7-7.9
			c0-0.1,0-0.3-0.1-0.4c-2.7-2.8-5.4-5.7-8.1-8.7c-0.8,0.5-1.7,0.7-2.7,0.3c-0.9-0.4-1.6-1.4-1.7-2.5c-0.2-2.4,1.9-4.2,3.9-3.5
			c1,0.4,1.7,1.3,1.9,2.3c0.2,1-0.1,1.8-0.5,2.5c2.3,2.5,4.5,5,6.8,7.4c0.3,0.3,0.7,0.1,0.8-0.3c0.3-2.6,0.6-5.3,0.9-7.9
			c0-0.1,0-0.3-0.1-0.4c-2.6-2.9-5.2-5.9-7.7-9c-0.8,0.5-1.8,0.6-2.7,0.2c-0.9-0.5-1.6-1.5-1.6-2.6c-0.1-2.5,2.1-4.2,4.1-3.3
			c0.9,0.4,1.6,1.4,1.8,2.4c0.1,1-0.1,1.8-0.6,2.5c2.2,2.6,4.3,5.2,6.5,7.7c0.3,0.3,0.7,0.1,0.8-0.3c0.4-2.6,0.7-5.2,1.2-7.7
			c0-0.1,0-0.3-0.1-0.4c-2.5-3.1-4.9-6.2-7.3-9.3c-0.8,0.5-1.8,0.6-2.7,0c-0.9-0.5-1.5-1.5-1.5-2.7c0-2.4,2.2-4.1,4.2-3.2
			c0.9,0.4,1.6,1.4,1.7,2.5c0.1,1-0.2,1.8-0.7,2.5c2,2.7,4.1,5.3,6.2,8c0.2,0.3,0.7,0.2,0.8-0.2c0.5-2.6,1-5.2,1.6-7.8
			c0-0.1,0-0.3-0.1-0.4c-2.4-3.1-4.7-6.4-6.9-9.7c-0.8,0.4-1.8,0.5-2.7-0.1c-0.9-0.6-1.4-1.7-1.3-2.8c0.2-2.5,2.6-4.1,4.5-3
			c0.9,0.5,1.4,1.5,1.5,2.7c0,1-0.3,1.9-0.9,2.5c1.9,2.9,3.8,5.6,5.8,8.3c0.2,0.3,0.7,0.2,0.8-0.2c0.6-2.5,1.2-5.1,1.9-7.6
			C520.4,115.9,520.3,115.7,520.2,115.6z"/>
	</g>
	<g>
		
			<linearGradient id="SVGID_20_" gradientUnits="userSpaceOnUse" x1="1386.793" y1="323.5458" x2="1303.8442" y2="423.4348" gradientTransform="matrix(0.8774 -0.4797 0.4797 0.8774 -800.2526 491.259)">
			<stop  offset="0" style="stop-color:#A6C979"/>
			<stop  offset="1" style="stop-color:#39A4A0"/>
		</linearGradient>
		<path class="st24" d="M514,216.3c-1.3-3.4-2.5-7-2.2-10.7c0.3-3.7,2.5-7.4,6.1-8.4c3.3-0.9,7.1,0.7,10-1.2
			c3.8-2.5,2.4-8.3,0.3-12.3c-3.1-6.2-6.9-12.4-7-19.3s5.2-14.5,12-13.9c2.5,0.2,4.8,1.4,7.3,1.3c3.7-0.2,6.6-3.5,7.8-7
			c1.2-3.5,1.2-7.3,1.7-11c0.8-5.8,3.1-11.6,7.5-15.5c4.3-4,10.8-5.8,16.3-3.6c4.9,1.9,8.2,6.8,9.3,11.9c1.1,5.1,0.2,10.5-1.4,15.5
			c-1.4,4.1-3,9.2,0.3,12c3,2.5,7.5,0.8,11.4,1.5c6.1,1,9.6,8.5,8,14.5c-1.5,6-6.6,10.5-12,13.5c-3.1,1.7-6.6,3.2-9,5.8
			c-2.5,2.6-3.6,6.9-1.5,9.8c1.5,2,4.1,2.7,5.8,4.5c2.5,2.4,2.9,6.5,1.8,9.8c-1.1,3.3-3.3,6.1-5.7,8.7c-9.8,11-27.2,29-42.3,32.3
			C527.6,256.9,517.3,225,514,216.3z"/>
		<path class="st4" d="M536.9,306c-3.5-65.5,7.8-132,32.8-192.5l1.7,0.7c-24.8,60.2-36.1,126.5-32.6,191.7L536.9,306z"/>
	</g>
	<g>
		<path class="st25" d="M841.1,645.1H252.7c-1.9,0-3.5-1.6-3.5-3.5v-10.3h595.4v10.3C844.6,643.6,843,645.1,841.1,645.1z"/>
		<path class="st26" d="M766.6,215.6v263.7c0,4.5-3.7,8.3-8.3,8.3H335.5c-4.6,0-8.3-3.7-8.3-8.3V215.6c0-4.6,3.7-8.3,8.3-8.3h422.8
			C762.8,207.3,766.6,211.1,766.6,215.6z"/>
		<path class="st27" d="M840.4,635.3H253.3c-3.2,0-5.3-3.4-3.9-6.3l60.3-121.3c3-6,9.1-9.7,15.7-9.7h443c6.7,0,12.8,3.8,15.7,9.8
			L844.4,629C845.8,631.9,843.7,635.3,840.4,635.3z"/>
		<path class="st28" d="M758,516.6H335.8c-1.6,0-3.1,0.9-3.9,2.4l-23,46.2c-1.4,2.9,0.7,6.2,3.9,6.2h468.1c3.2,0,5.3-3.4,3.9-6.2
			L761.9,519C761.1,517.5,759.6,516.6,758,516.6z"/>
		<path class="st29" d="M628.6,623.8H465.2c-1,0-1.7-1.1-1.2-2l19.3-38.8c0.9-1.9,2.9-3.1,5-3.1h117.3c2.1,0,4.1,1.2,5,3.1
			l19.2,38.8C630.3,622.7,629.6,623.8,628.6,623.8z"/>
		<g>
			<g>
				<rect x="300.3" y="559" class="st27" width="498.2" height="1.2"/>
			</g>
			<g>
				<rect x="300.3" y="547.6" class="st27" width="498.2" height="1.2"/>
			</g>
			<g>
				<rect x="309.5" y="536.3" class="st27" width="475.1" height="1.2"/>
			</g>
			<g>
				<rect x="309.5" y="525" class="st27" width="475.1" height="1.2"/>
			</g>
		</g>
		<path class="st27" d="M658,505.8H435.8c-1.2,0-2-1.3-1.5-2.4l22.8-45.9c1.1-2.3,3.4-3.7,5.9-3.7h167.7c2.5,0,4.8,1.4,6,3.7
			l22.8,45.9C660,504.5,659.2,505.8,658,505.8z"/>
		<path class="st30" d="M766.6,215.6v263.7c0,4.5-3.7,8.3-8.3,8.3H335.5c-4.6,0-8.3-3.7-8.3-8.3V215.6c0-4.6,3.7-8.3,8.3-8.3h422.8
			C762.8,207.3,766.6,211.1,766.6,215.6z"/>
		<path class="st25" d="M760.4,195.4H333.3c-10.4,0-18.9,8.5-18.9,18.9v266.3c0,10.4,8.5,18.9,18.9,18.9h427.1
			c10.4,0,18.9-8.4,18.9-18.9V214.3C779.3,203.9,770.9,195.4,760.4,195.4z M766.6,479.3c0,4.5-3.7,8.3-8.3,8.3H335.5
			c-4.6,0-8.3-3.7-8.3-8.3V215.6c0-4.6,3.7-8.3,8.3-8.3h422.8c4.5,0,8.3,3.7,8.3,8.3V479.3z"/>
	</g>
	<g>
		<g>
			<path class="st31" d="M295.5,593.6c-1.9,5.7-15.1,35.4-19.1,39.2c2.9,3.4,5.7,6.7,8.6,10.1c4.3-2.8,13.1-34.6,14.5-45.5
				L295.5,593.6z"/>
			<path class="st31" d="M302.9,586.5c1.7-0.8,3.5-1.2,5.3-1.3c0.7,0,1.5,0,2.2,0.1c0.4,0.1,1.8,0.3,1.6,0.7
				c-0.1,0.2-0.3,0.3-0.5,0.3c-1,0.3-2,0.7-3,1.1c-0.8,0.3-1.6,0.6-2.4,0.9c-0.3,0.1,0.6,0.6,0.6,0.7c0.4,0.3,0.6,0.7,0.8,1.2
				c0.4,0.9,0.3,1.9,0,2.8c-0.5,1.4-1.7,2.5-3,3.3c-2,1.2-4.3,1.8-6.7,1.8c-1.1,0-2.4-1.4-2.7-2.5c-0.3-1.1,0.2-2.2,0.7-3.1
				c1.3-2.2,3.5-3.9,5.7-5.2C302.2,586.9,302.5,586.6,302.9,586.5z"/>
		</g>
		<path class="st32" d="M324.9,603.4l-13.1,0.2c-0.7,0-1.2-0.7-1-1.4l6.8-24.5c0.1-0.5,0.5-0.8,1-0.8l13.1-0.2c0.7,0,1.2,0.7,1,1.4
			l-6.8,24.5C325.8,603.1,325.4,603.4,324.9,603.4z"/>
		<g>
			<g>
				<path class="st33" d="M385,696.5c-2.3,5.4-5.7,9.6-9.9,12.7c-14.6,11.1-38.3,10.1-55.3,9.4c-33.5-1.3-67.4-4.7-99.1-16.4
					c-16.5-6.1-29.7-18.6-34.1-35.9c-3.5-13.9-1.9-28.6,1.2-42.5c2.9-12.6,7.1-25.1,13.8-36.1c8.7-14.2,26.5-33,44.9-28.5
					c7.7,1.9,13.9,7.6,18.8,13.8c5.8,7.4,10.4,15.7,13.4,24.6c3,8.7,4.5,18.1,9.6,25.8c6,9.1,16.2,14.4,26.7,16.5
					c11.5,2.3,22.9-0.7,34.5,1.4c12.3,2.3,24,9,31.1,19.3C387.8,671,389.9,684.9,385,696.5z"/>
				<path class="st34" d="M268.7,608.9c0.3,10.1,2.7,20.4,10.1,27.6c5.6,5.5,13.2,8.5,20.9,9.8c11.9,1.9,25.4,0.1,36.3-5.8
					c-7,0.2-13.9,0.7-20.9-0.7c-10.5-2.1-20.7-7.4-26.7-16.5c-5-7.7-6.6-17.1-9.6-25.8c-2-6-4.8-11.6-8.1-17
					C269.9,590.1,268.4,599.5,268.7,608.9z"/>
				<path class="st34" d="M330.4,716.3c-9-1.2-18-3-27-4.6c-9.3-1.7-18.5-3.5-27.7-5.7c-15-3.6-29.8-8.1-43.7-14.9
					c-11.8-5.8-23-13.4-31.8-23.3c-6.8-7.6-12-16.5-15.3-26c-0.7,8.3-0.4,16.6,1.6,24.6c4.4,17.3,17.6,29.8,34.1,35.9
					c31.6,11.7,65.6,15.2,99.1,16.4c8.8,0.3,19.5,0.8,29.7-0.5C343.1,717.8,336.8,717.2,330.4,716.3z"/>
				<path class="st34" d="M256.2,640c-9-12.4-15-27-17.2-42.1c-0.6-4-1-8.2-3-11.6c-3.6-6.2-11.9-6.4-11,1.8
					c0.7,6.7,3.4,13.7,6.2,19.8c2.9,6.3,6.5,12.3,10.8,17.8C246.2,630.9,252.4,634.8,256.2,640z"/>
			</g>
			<path class="st35" d="M444.4,694c-0.7,1.7-2.7,2.4-4.5,2.3s-3.4-0.9-5.1-1.5c-3.1-1-6.4-1.3-9.6-0.7c-2.4,0.4-5.4,1.1-7.1-0.7
				c-1.5-1.6-1-4-1.1-6.2c-0.1-3.5-1.9-7-4.8-9.1c0.5,0.4,2.4-3.2,3.1-3.4c1.6-0.4,3.1-1.3,4.2-0.2c2.3,2.3,5,7.4,7.5,9.6
				C432.1,688.5,438.1,691.9,444.4,694z"/>
			<path class="st31" d="M451.5,712.1c-0.3,1.2-2.1,1-3,1c-1.3-0.1-2.7,0-4-0.2c-2.2-0.3-4.4,0.3-6.6,0.4c-2.2,0.1-4.4-0.1-6.5-0.6
				c-3-0.7-5.3-0.6-8.4,0.1c-2.3,0.5-6.2,0.7-7.6-1.6c-1-1.6-0.2-3.6-0.2-5.5c0-2.9-2.1-5.5-4.3-7.4c-3.5-3.1-7.2-5.8-7.4-10.9
				c-0.1-3.7,5-7.1,8.4-6.1c2.7,0.8,4,3.7,5.2,6.3c1.6,3.4,3.7,6.5,6.2,9.2c2.6,2.8,6.7,4.5,10.1,6.2c0,0.3,3.2,1.7,3.6,1.9
				c1.3,0.7,2.7,1.4,4,2.1c1.3,0.7,2.5,1.3,3.8,2c1.3,0.7,2.4,0.9,3.9,1.1c0.7,0.1,1.3,0.2,1.9,0.5
				C451.2,710.8,451.7,711.5,451.5,712.1z"/>
			<path class="st36" d="M381.5,655c9.3,5.5,11.2,2.8,19.8,9.2c1.6,1.2,7.9,5.3,9.8,5.9c1.1,0.4,4.1,4,5,4.5
				c1.8,1.1,6.7,5.8,6.8,6.2c0.2,1-5.9,7.5-8.8,9.2c-5.4,3-9.3,6.8-15.3,8.6c-0.8,0.2-10.4-13.5-19.8-20.5
				c-6.6-4.9-13.3-10.1-21.2-12.8c-6.4-2.3-12.1-5.9-19.1-6.4c-4.7-0.4-9.5-0.8-14.3-1.1c-1.9-0.1-13.8-1.5-14.8,0
				c3.5-5.6,7-11.1,10.5-16.7c3-4.8,3.8-7.3,9.6-6.3c11.6,2.1,22.8,5.9,33.6,10.7C369.6,648.4,375.6,651.6,381.5,655z"/>
			<path class="st32" d="M235.1,534.2c-0.8,3.1-1.5,6-3.2,8.7c-2.3,3.7-4.7,7.4-8.4,9.7c-2.4,1.4-5.1,2.1-7.6,3.3
				c-3.6,1.7-6.8,4.6-7.9,8.4c-1.1,3.8,0.3,8.5,3.8,10.3c1.4,0.7,2.9,1,4.3,1.6c1.4,0.7,2.6,2,2.5,3.5c-0.1,2.3-2.5,3.5-2.2,5.9
				c0.5,3.5,4.3,4.2,6.8,5.7c3.6,2,6.8,6.3,10.8,7.4c14.9,3.9,11.3-14.9,18.3-20.5c2.7-2.1,6.4-2,9.7-3.1
				c7.1-2.3,10.9-9.9,13.7-16.8c3.1-7.7,6-16.1,4.2-24.3c-1.2-5.4-4.6-10.4-9.2-13.5C257.2,511.5,239.1,518.8,235.1,534.2z"/>
			<path class="st37" d="M302.3,639.9c-3.2,2.7-4.7,6.9-6.5,10.7c-1.8,3.8-4.3,7.7-8.2,9c-2.9,0.9-6.1,0.3-9.1-0.7
				c-12.2-3.9-22.4-12.7-29.6-23.3c-7.1-10.6-11.3-23-13.8-35.5c-1.7-8.8-2.2-20.3,6.5-25.8c4.6-2.9,10.6-2.1,15.8-0.3
				c6.7,2.3,13.4,6,18.4,11.1c4.8,4.8,11.5,10.5,11.8,17.8c0,0.2,0,0.5,0,0.7c-0.1,4-2.3,7.7-2.5,11.7c-0.1,3.2,0.7,7.3,1.8,10.3
				c0.6,1.8,1.5,3.5,2.6,5.1c1,1.5,2.2,2.9,3.6,4.1C294.1,635.8,300.9,641.1,302.3,639.9z"/>
			<path class="st38" d="M289.5,630.7c-0.9,1.7-1.6,3.4-1.9,5.3c-5.1-3.9-8.6-9.7-9.7-16c-0.5-3-0.4-6.4,1.6-8.7
				c1.1-1.3,2.7-2.1,4.1-3.1c1.8-1.1,3-2.8,3.9-4.6c-0.1,4-2.3,7.7-2.5,11.7c-0.1,3.2,0.7,7.3,1.8,10.3
				C287.6,627.4,288.4,629.1,289.5,630.7z"/>
			<path class="st31" d="M246.6,572.3c6,3.6,9.7,16.5,32.2,15.7c-6.2-5.8-13.2-15.5-15.3-20.4c-1.5-3.5-3-7.1-2.6-10.9
				c0.4-3.7,2.4-6.2,6.8-6.9c-3.2-1.9-7.7-2.2-11.3-3.5c-1.5-0.5-3.3-0.2-3.3-0.2S253.3,562.8,246.6,572.3z"/>
			<path class="st35" d="M263.2,566.9c-1.4-3.2-2.7-6.6-2.3-10.1c0.4-3.7,2.4-6.2,6.8-6.9c-3.2-1.9-7.7-2.2-11.3-3.5
				c-1.5-0.5-3.3-0.2-3.3-0.2s0,4.5-0.8,10.1C253.6,562.1,258.4,564.5,263.2,566.9z"/>
			<path class="st39" d="M300.6,665.2c4.7-0.2,9.3-0.7,14.1-1.2c10.7-1.3,21.5-2.5,32.2-3.8c9.2-1.1,18-2.6,27.2-1.5
				c14.7,1.7,24.2,5.7,36.8,12.8c2,1.1,8.1,5.6,8.1,5.6c1.2-0.9,3.6-3,4.6-4.9c0.6-1.3-14.6-13-21.4-18.7
				c-16.7-13.9-37.4-22.7-58.9-25.8c-10.7-1.5-21.7-1.7-32.5-0.2c-9.6,1.3-21.8,3.6-29.5,9.8c-3.8,3-15.9,11.8-11.6,18
				c3.6,5.2,9.7,7.3,15.6,8.7C290.2,665,295.4,665.3,300.6,665.2z"/>
			<g>
				<path class="st33" d="M340.7,679c-18.5,1.2-37.2,2.3-55.5-1c-9.1-1.7-18-4.5-26.3-8.8c-5.4-2.8-20.1-10.7-20.7-17.4
					c12.6-3.7,29.3-1.4,42,0.9c13.9,2.5,27.5,7,40.1,13.5C327.5,669.8,334.3,674.1,340.7,679z"/>
				<path class="st40" d="M310,673.5c-0.5,0-1-0.1-1.4-0.3c-22.4-10.3-47.2-14.6-71.8-12.5c-1.9,0.2-3.5-1.2-3.7-3.1
					s1.2-3.5,3.1-3.7c25.7-2.2,51.7,2.3,75.2,13.1c1.7,0.8,2.5,2.8,1.7,4.5C312.5,672.8,311.3,673.5,310,673.5z"/>
				<path class="st40" d="M354.6,677.8c-0.6,0-1.3-0.2-1.8-0.5c-9.2-5.9-21.3-7.2-31.5-3.3c-1.8,0.7-3.7-0.2-4.4-2s0.2-3.7,2-4.4
					c12.2-4.6,26.6-3.1,37.6,4c1.6,1,2,3.1,1,4.7C356.8,677.3,355.7,677.8,354.6,677.8z"/>
			</g>
			<path class="st31" d="M274.3,553.1c-1.4,3.4-3.4,6.3-5.9,7.7c-6.5,3.5-12.9-2-16.7-6.8c-3.8-4.8-5.9-10.9-5.5-16.7
				c0.2-3.4,1.2-8.1,4-10.4c2.8-2.2,6.9-3.4,10.5-3.5c4.2-0.1,9.7,1.2,12.5,4.3c2.7,3,3.9,7.5,3.9,11.3
				C277.2,542.7,276.3,548.3,274.3,553.1z"/>
			<path class="st32" d="M265.9,531.7c-2.1,2.7-5.5,4.1-8.1,6.3c-5,4.1-4.8,9.6-5.3,16.7c-6.2-3.5-10.5-8.8-11.9-15.8
				c-1.3-7,1.3-14.8,7-19c6.1-4.6,15.2-4.4,21.6-0.1s9.8,12.3,9.3,19.9c0.5-1.6-0.4-3.2-1.6-4.3c-1.2-1.1-2.7-1.8-4-2.7
				c-3.1-2.3-4.7-5.9-5.4-9.6C268.3,526,267.8,529.3,265.9,531.7z"/>
		</g>
		<path class="st31" d="M243.1,589.8c-1.3,3.6-0.4,7.6,0.7,11.2c6.1,19.3,20.4,35.9,38.6,44.7c3.3,1.6,6.9,2.9,10.4,2.2
			c3.6-0.8,6.4-3.6,8.7-6.4c4.2-5.1,10.3-29.6,14.5-35c2-2.5,4.2-4.8,5.7-7.7c1.7-3.4,2.3-7.1,2.6-11c0-0.3-0.4-0.5-0.6-0.3
			c-2.5,3.1-8.7,7.5-11.3,9.1l2.1-7c-2.6,1.7-5,4.2-6.1,7.9c-0.9,3.1-0.7,6.3-1.2,9.5c-0.9,5.2-11.2,23.5-13.9,23.5
			c-1.6,0-3.1-1-4.4-1.9c-11.1-8.2-20.1-19.3-25.6-32c-1.2-2.8-2.3-5.6-4.1-8C255.1,583.2,245.8,582.5,243.1,589.8z"/>
		<path class="st32" d="M240.2,597.5c2.9-1.7,4.7-4.9,5.6-8.1c0.9-3.3,1-6.7,1.4-10c0.7-6,2.3-11.9,3.9-17.8c1-3.8,1.7-8.4-1.2-11
			c-9.8,7.2-16.3,18.1-20.2,29.6c-1.7,5-2,9.8,0.3,14.6C231.8,598.5,236.4,599.7,240.2,597.5z"/>
	</g>
	<g>
		<g>
			<g>
				<path class="st41" d="M764.6,520.6c18.6-6.2,34.5-23.8,42.6-41.1c6.8-14.6,9-31,7.1-47c-6.8-6.6-17.1-9.6-26.9-8.7
					c-29.7,2.7-30.3,33.8-50.8,46.2c-18.5,11.2-42.4,10.9-62.1,19.7c-7.7,3.4-15,8-21.2,13.7c14.4,1.3,28.7,6.3,42.6,11.1
					C717.7,522,741.9,528.2,764.6,520.6z"/>
				<path class="st42" d="M671.4,500.9c8.8,2.3,17.3,5.7,25.9,8.6c7.7,2.7,15.6,5.3,23.6,6.9c8.1,1.7,16.5,2.5,24.7,0.8
					c3.8-0.8,7.7-2.1,11-4.1c3.1-2,5.6-4.8,7.6-7.8c2-2.9,3.7-6,5.6-9c2.1-3.3,4.5-6.4,6.6-9.6c4.5-6.9,8.8-14,12.1-21.6
					c3.3-7.5,5.7-15.5,6.1-23.7c0.3-6.1-0.6-12.2-2.7-17.8c-1.5,0-3,0-4.5,0.1c-29.7,2.7-30.3,33.8-50.8,46.2
					c-18.5,11.2-42.4,10.9-62.1,19.7c-5.4,2.4-10.6,5.4-15.4,8.9C663.2,499,667.4,499.9,671.4,500.9z"/>
				<path class="st43" d="M825.9,465c-1-11.2-2.7-23-10.7-31.6c-0.3-0.3-0.7-0.6-1-0.9c1.9,15.9-0.3,32.4-7.1,47
					c-8,17.3-24,34.9-42.6,41.1c-22.7,7.6-46.9,1.4-68.7-6.2c-13.8-4.8-28.2-9.8-42.6-11.1c-5,4.6-9.2,10-12.2,16.1
					c-4.8,9.8-5.9,21.8-2.2,32.1c4.4,12.3,14.9,16.6,26.7,19.9c17.6,5,35.7,8.5,53.9,10.7c18.6,2.2,38.1,2.7,55.5-3.8
					c22.2-8.3,37.9-27.6,45.3-48.3C827.7,509.1,827.8,486.8,825.9,465z"/>
			</g>
		</g>
		<g>
			<g>
				<g>
					<path class="st44" d="M672.1,588.3c-8.4,0.9-18.1,2-26.5,2.8c-1.2,0.1-3.2,0.3-3.8-1.1c-0.6-1.2,0.1-2.8,1.2-3.5
						c0.6-0.3,1.3-0.5,2-0.6c2.1-0.5,4.2-1.1,6.3-1.9c0.3-0.1,0.6-0.2,0.9-0.4c0,0,0.1,0,0.1-0.1c0.3-0.1,0.5-0.2,0.8-0.4
						c0.3-0.1,0.6-0.3,0.9-0.4c0.3-0.1,0.7-0.3,1-0.5c0.3-0.1,0.6-0.3,0.9-0.5c0.3-0.2,0.6-0.4,0.9-0.6c0.3-0.2,0.5-0.4,0.8-0.6
						c0.1-0.1,0.3-0.2,0.4-0.4c0.5-0.5,1.1-1.2,1.5-1.8c0.4-0.7,0.5-1.6,1.2-2.1c0.7-0.5,1.6-0.2,2.4-0.1c0,0,0.1,0,0.2,0
						c0.9,0.2,1.3-0.1,2.2-0.3c1.4-0.4,3.9-0.2,5.4-0.3c0.3,0,0.9,3.6,1.7,5.5C673.1,582.2,674.8,588,672.1,588.3z"/>
					<path class="st32" d="M641.9,590.1c0.7,1.2,2.6,1,3.7,0.9c8.4-0.8,18.1-1.8,26.5-2.8c0.6-0.1,1.2-0.5,1.3-1.4L641.9,590.1z"/>
					<g>
						<path class="st45" d="M653.4,585.9c-0.1,0.1-0.2,0.1-0.3,0.1c-0.2,0-0.3-0.1-0.4-0.2l-1.5-2c0.3-0.1,0.6-0.2,0.9-0.4l1.3,1.7
							C653.7,585.4,653.6,585.8,653.4,585.9z"/>
					</g>
					<g>
						<path class="st45" d="M655.3,585.1c-0.1,0-0.2,0.1-0.3,0.1c-0.2,0-0.3-0.1-0.4-0.2l-1.4-1.9c0.3-0.1,0.6-0.3,0.9-0.4l1.3,1.7
							C655.5,584.6,655.5,584.9,655.3,585.1z"/>
					</g>
					<g>
						<path class="st45" d="M657.1,584.1c-0.1,0.1-0.2,0.1-0.3,0.1c-0.2,0-0.3,0-0.5-0.2l-1.3-1.7c0.3-0.1,0.6-0.3,0.9-0.5l1.2,1.6
							C657.3,583.6,657.3,583.9,657.1,584.1z"/>
					</g>
					<g>
						<path class="st45" d="M658.9,583c-0.1,0.1-0.2,0.1-0.3,0.1c-0.2,0-0.3-0.1-0.4-0.2l-1.3-1.7c0.3-0.2,0.5-0.4,0.8-0.6l1.3,1.8
							C659.1,582.5,659.1,582.8,658.9,583z"/>
					</g>
				</g>
				<path class="st46" d="M737.8,483.5c-3.5-2.8-10.3-4.3-14.5-6c-15.9-6.4-40.2-11.9-57.2-9.3c-2.3,0.4,2.3,4.1,0.3,5.3
					s-3.7,3.2-3.9,5.6c-0.3,4.3,4.1,7.3,8,9c11.9,5.2,24.9,7.6,37.9,7.7c-11.3,3.5-23.7,8.8-32.9,16.5c-3.3,3.1-16.3,47.5-17.1,66.2
					c4.6,0.5,9.2,1,13.8,1.4c9.6-19.6,18.3-37.4,27.9-57.1c0,0,54.7,2.8,64-18.1C764.1,504.7,737.8,483.5,737.8,483.5z"/>
				<path class="st47" d="M758,499.8c-0.1,0.2-0.2,0.3-0.3,0.5c-2.6,4.1-6.2,7.4-10.5,9.8c-4.2,2.4-9,3.7-13.7,4.5
					c-5.1,0.9-10.2,1.2-15.4,1.5c-4.3,0.2-8.6-0.4-12.9-0.4c-2.1,0-4.4,0.1-6.5,0.7c-2.4,0.7-3.5,2.8-4.4,5
					c-0.9,2.3-1.7,4.6-2.8,6.8c-1.5,3.3-3.2,6.5-4.7,9.7c-3.1,6.5-5.9,13.1-8.2,19.9c-2,6-3.9,12.2-6.6,18c-0.6,1.3-1.2,2.5-1.9,3.7
					c0.6,0.1,1.2,0.1,1.9,0.2c9.6-19.6,18.3-37.4,27.9-57.1c0,0,54.7,2.8,64-18.1C764.1,504.7,761.5,502.6,758,499.8z"/>
				<path class="st48" d="M744.3,421.2c0,0-7.6,42-17,44.5c0,0-17.1-8-30.5-15.5l0.2,9.7c0,0,22.2,22.5,40.4,17.5
					c18.2-5,17.9-27.9,17.9-27.9L744.3,421.2z"/>
				<path class="st49" d="M746.1,418.1c-1.9,2.1-2.9,4.4-3.4,7.2c-1.3,7.7-1.6,15.6-2.8,23.4c-0.9,5.9-2,11.8-3.5,17.6
					c-0.7,2.8-1.6,5.6-2.6,8.4c-1.1,3-2.9,5.1-1.3,8.3c2.2,4.2,5.6,7.3,9.4,10c3.6,2.6,6.9,5.5,10.5,8.3c3.4,2.6,8,5.3,11.7,3.4
					c19.7-9.9,23.6-46.9,23.1-55.2c-0.4-8.8-2.5-15.2-7.8-22.4C769.9,414.1,749.2,414.7,746.1,418.1z"/>
				<g>
					
						<ellipse transform="matrix(0.3645 -0.9312 0.9312 0.3645 77.6968 963.456)" class="st50" cx="744.8" cy="424.8" rx="6" ry="5"/>
					<path class="st51" d="M738.9,422.5c-1.2,3.1-0.1,6.4,2.4,7.4c2.5,1,5.6-0.7,6.8-3.8c1.2-3.1,0.1-6.4-2.4-7.4
						C743.1,417.7,740.1,419.4,738.9,422.5z"/>
				</g>
				<path class="st52" d="M761.8,427.6c1.4-0.9,2.7-2.1,3.4-3.7c0.4-1,0.6-2.2,0.7-3.3c0.2-2.4-0.1-4.9-0.9-7.2
					c-0.1-0.4-0.3-0.7-0.6-0.9c-0.3-0.2-0.6-0.1-0.9,0c-2.8,0.6-5.3,2.3-7.6,4.2c-1.7,1.3-3.4,0.5-4.4,2.5c-1.3,2.5-1.5,8.7,1.4,9.7
					C755.8,429.8,759.2,429.2,761.8,427.6z"/>
				<path class="st35" d="M750.9,426c-0.6-2.3-0.2-5.3,0.6-6.9c1-2,2.8-1.1,4.4-2.5c2.3-1.8,4.8-3.5,7.6-4.2c0,0,0.1,0,0.2,0
					C761.7,419.2,757.2,423.1,750.9,426z"/>
				<g>
					<path class="st52" d="M732.9,409.3c1.2,2.8,2.9,5.4,4.8,7.8c1.8,2.3,4.6,6.1,7.5,6.9c1,0.3,2,0.4,3,0.3c2.6-0.2,5-1.4,7.2-2.9
						c0.4-0.2,0.7-0.5,1.1-0.8c2.3-1.6,4.4-3.7,6.1-5.9c1.4-1.9,3.6-4.5,3.5-6.9c-0.2-2.4-0.3-4.9-0.3-7.3c0-3.6-1.8-7.6-3.1-10.9
						c-1.2-2.9-2.5-6.3-5.2-8.1c-3-2-7.7-2.2-11.1-1.3c-7.6,2-14.8,8.7-15.6,16.8C730.3,401.2,731.2,405.4,732.9,409.3z"/>
					<path class="st53" d="M742.2,380.3c-0.1,0-0.1,0-0.2,0.1c-1.8,0.5-3.6,1.3-4.9,2.7c-0.7,0.7-1.3,1.6-2,2.3
						c-1.1,1.1-2.2,0.9-3.6,1.3c-2.5,0.6-1.7,2.3-2.6,4c-0.7,1.5-2.5,1.9-2.4,3.9c0,1,0.6,2,0.1,2.9c-0.5,1-1.3,1.3-1.6,2.6
						c-0.3,1.4,0,2.8,0.8,4c1.4,1.9,4.4,1.2,6.5,1c2.4-0.2,4.8-0.7,7.1-1.4c2.1-0.6,4-1.5,6-2.4c1.4-0.7,3.1-1.6,4.6-1.9
						c1.4-0.3,3,0.1,3.6,1.4c0.5,1,0.3,2.4,1.2,2.9c-0.1-0.1,2.2-4.7,3.3-1.9c0.1,0.2,0.1,0.5,0.1,0.8c0,1.5-0.9,3-0.8,4.4
						c0.1,1.5,1.2,2.8,2.3,3.7c1.2,1.1,2.7,2,4.3,2.5c1,0.3,2.3,0.4,2.9-0.5c0.2-0.4,0.3-0.8,0.3-1.2c0.2-2.9,1.3-7.9,0.9-14.7
						c-0.2-4.4-2.1-8.8-5.3-12c-1.4-1.4-3.1-2.5-4.8-3.6c-1.5-1-3.3-1.4-5.1-1.6C749.7,378.9,745.6,379.4,742.2,380.3z"/>
				</g>
				<path class="st35" d="M732.9,409.3c1.2,2.8,2.9,5.4,4.8,7.8c1.8,2.3,4.6,6.1,7.5,6.9c1,0.3,2,0.4,3,0.3c-0.4-0.3-0.9-0.6-1.3-1
					c-0.7-0.6-1.3-1.3-1.9-2.1c-0.5-0.8-0.8-1.7-1.5-2.4c-0.3-0.4-0.7-0.7-1.1-0.9c-0.8-0.5-2.2,0.1-2.8-0.8c-0.7-1-0.4-2.6-0.7-3.7
					c-0.4-1.2-1.1-2.4-2.3-3C735.6,409.8,734.1,409.7,732.9,409.3z"/>
				<g>
					<path class="st54" d="M701.6,476.2l33.8,9.7c1.1,0.3,1.8-0.6,1.5-1.9l-4.4-27.2c-0.2-1.4-1.3-2.7-2.4-3.1l-33.8-9.7
						c-1.1-0.3-1.8,0.6-1.5,1.9l4.4,27.2C699.5,474.6,700.5,475.9,701.6,476.2z"/>
				</g>
				<g>
					<path class="st52" d="M718,467.2c-0.4-0.5-0.8-1.1-1.3-1.6c-1.2-1.4-2.5-2.5-3.4-4.1c-0.8,0.7-0.9,2-0.2,2.9
						c0.3,0.4,0.9,0.9,0.6,1.4c-3.1-1.4-6.3-2.8-9.4-4.2c-0.4,3.7,1,7.6,3.8,10.1c2.8,2.5,6.8,3.5,10.5,2.7c1-0.2,3.4-0.9,3.4-2.4
						c0-0.3-0.2-0.7-0.3-1c-0.2-0.4-0.4-0.8-0.8-1.1c-0.2-0.2-0.5-0.4-0.8-0.6C719.2,468.8,718.6,468,718,467.2z"/>
					<path class="st33" d="M776.6,426.6c-1.5-0.6-3.3-0.3-5.3,1.5c-1.5,1.3-1.8,3.3-2.6,5c-1.5,3.3-2.9,6.2-3.6,9.8
						c-0.9,4.5-1.1,9.1-2,13.6c-0.9,4.5-2.7,9-6.1,12c-5.4,4.9-11.1,2.5-17.4,1.6c-7.1-1-14.2-2-21.2-3.2l0.2,9.8
						c0,0,43.8,20.1,54.8,7.1c7.3-8.7,10.1-21.7,10.7-32.8C784.3,447.3,782.6,429.1,776.6,426.6z"/>
				</g>
				<g>
					<path class="st50" d="M759.9,436.2c-1.6,4.1-0.2,8.5,3.1,9.8c3.3,1.3,7.3-1,8.9-5.1c1.6-4.1,0.2-8.5-3.1-9.8
						C765.5,429.8,761.5,432.1,759.9,436.2z"/>
					<path class="st51" d="M758.3,435.5c-1.6,4.1-0.2,8.5,3.1,9.8c3.3,1.3,7.3-1,8.9-5.1c1.6-4.1,0.2-8.5-3.1-9.8
						C763.9,429.1,759.9,431.4,758.3,435.5z"/>
					<path class="st55" d="M759.6,436.6c-0.1,0-0.2,0-0.3-0.1c-0.4-0.2-0.7-0.7-0.5-1.1c0.7-1.8,1.9-3.2,3.4-4.1
						c0.4-0.2,0.9-0.1,1.2,0.3c0.2,0.4,0.1,0.9-0.3,1.2c-1.2,0.7-2.1,1.8-2.7,3.2C760.2,436.4,759.9,436.6,759.6,436.6z"/>
				</g>
				<path class="st56" d="M772.3,421.3c0.8,3.9-2,10.1-3.6,13.8c-1.6,2.5-4.4,0.6-3.5-1.7c2.7-5.7,5.2-14.6,0.8-16.2l-0.9-3.7
					C768.7,414.2,771.5,417.6,772.3,421.3z"/>
				<g>
					<path class="st32" d="M734.1,534.9c1.7-0.3,3.2-1.5,4-3c0.8-1.5,1.2-3.3,1.4-5c0.6-5.2,0.4-10.5-0.4-15.6c-0.1-1-0.3-2-0.8-2.9
						c-1.2-2-3.7-2.7-5.9-3.2c0.7,0.2,1.3,5.7,1.3,6.5c0.2,2.2,0.3,4.5,0.1,6.7c-0.3,4.6-1.7,8.8-3.5,13.1
						C729.4,533.7,732,535.2,734.1,534.9z"/>
					<path class="st44" d="M738.3,526.6c-0.5,2.6-1.8,5-4,6.4c-1.4,0.9-3.6,1.1-4.5-0.3c-0.5-0.8-0.4-1.8-0.4-2.8
						c0.1-1.8,0-3.5-0.2-5.3c0-0.3-0.1-0.7-0.1-1c-0.1-0.4-0.1-0.9-0.2-1.3c-0.1-0.3-0.1-0.6-0.2-1c-0.1-0.4-0.2-0.9-0.3-1.3
						c-0.1-0.3-0.2-0.6-0.3-0.9v0c-0.1-0.4-0.2-0.8-0.4-1.2c-0.1-0.3-0.2-0.6-0.3-0.9c-0.1-0.4-0.3-0.8-0.5-1.2
						c-0.1-0.3-0.2-0.6-0.4-0.9c-0.7-1.5-1.4-2.9-2.3-4.2l6.3-6.5c2.5,0.5,5.2,1.2,6.5,3.3c0.6,1.1,0.7,2.3,0.8,3.6
						c0.2,2.5,0.4,5.1,0.6,7.6C738.6,521.5,738.8,524.1,738.3,526.6z"/>
					<g>
						<g>
							<path class="st45" d="M736,523.4c-0.1,0.2-0.3,0.4-0.6,0.4c-2.1-0.5-4.4-0.1-6.3,0.9c0,0,0,0,0,0c0-0.3-0.1-0.7-0.1-1
								c2-1,4.4-1.4,6.6-0.9C735.9,522.9,736.1,523.2,736,523.4z"/>
						</g>
						<g>
							<path class="st45" d="M735.3,521.2c0,0.3-0.3,0.4-0.5,0.4c-1.9-0.4-4.1-0.1-5.9,0.9c-0.1-0.3-0.1-0.6-0.2-1
								c1.9-0.9,4.3-1.2,6.3-0.8C735.2,520.7,735.3,520.9,735.3,521.2z"/>
						</g>
						<g>
							<path class="st45" d="M734.5,519c-0.1,0.2-0.3,0.4-0.5,0.4c-1.9-0.4-4.1,0.1-5.6,0.8c-0.1-0.3-0.2-0.6-0.3-0.9v0
								c1.7-0.8,4-1.2,6.1-0.8C734.4,518.5,734.5,518.7,734.5,519z"/>
						</g>
						<g>
							<path class="st45" d="M733.7,516.7c-0.1,0.3-0.3,0.4-0.5,0.4c-2-0.4-4.2,0.3-5.5,0.9c-0.1-0.3-0.2-0.6-0.3-0.9
								c1.6-0.8,4-1.4,6-1C733.6,516.2,733.8,516.5,733.7,516.7z"/>
						</g>
						<g>
							<path class="st45" d="M733,514.5c-0.1,0.3-0.3,0.4-0.6,0.4c-1.8-0.4-4.2,0.4-5.5,1.1c-0.1-0.3-0.2-0.6-0.4-0.9
								c1.5-0.7,4-1.5,6.1-1.1C732.8,514,733,514.2,733,514.5z"/>
						</g>
					</g>
				</g>
				<path class="st57" d="M667.4,467.4c-4.7,0.3-9.4,0.5-11.2,4.8c-1.9,4.5,1.9,9.2,5.6,12.3c14.7,12.3,61.8,31.1,61.8,31.1
					s11.5-7.8,10.3-12.3c-12.9-9.4-27.1-17.9-40-27.3C693.9,476.1,682.4,466.5,667.4,467.4z"/>
			</g>
		</g>
	</g>
	<g>
		<g>
			<g>
				<path class="st35" d="M398,261.4c1.6-0.1,3.1-0.5,4.6-1.1l-0.4-9.9l-12.7-1.3l0.5,11.7c0.3,0,0.6,0.1,0.9,0.1
					C393.2,261.3,395.6,261.5,398,261.4z"/>
				<path class="st45" d="M398,261.4c-2.4,0.2-4.8-0.1-7.1-0.4c-0.3,0-0.6-0.1-0.9-0.1l0.5,11.6l12.5-2.7l-0.4-9.5
					C401.1,260.9,399.5,261.3,398,261.4z"/>
			</g>
			<g>
				<path class="st36" d="M405.7,266.9c-0.9-1.1-2-2.7-2.8-4.1c-3.9,2.6-8.3,2.6-12.8,2.1c-0.1,2.3-1.5,5.3-1.8,6.2
					c-0.1,0.2-0.2,0.4-0.3,0.6c-0.2,0.4-0.4,0.7-0.6,1.1c-0.2,0.4-0.5,0.8-0.8,1.1c-0.2,0.3-0.5,0.6-0.8,0.9c-0.3,0.3-0.6,0.6-0.9,1
					c-0.3,0.3-0.6,0.6-0.9,0.9c-0.3,0.3-0.5,0.5-0.8,0.7c0,0-0.1,0.1-0.1,0.1c-0.3,0.3-0.6,0.6-0.9,0.8c-2,1.8-4.2,3.4-6.5,4.8
					c-0.7,0.4-1.4,0.9-2,1.5c-1,1.2-1,3.5,0.2,4.8c1.3,1.4,3.6,0.5,4.9-0.1c9.4-4.2,20.2-9.1,29.5-13.4
					C411.2,274.5,406.6,268,405.7,266.9z"/>
				<path class="st58" d="M374,289.5c1.3,1.2,3.4,0.3,4.7-0.2c9.4-4.2,20.2-9.1,29.5-13.4c0.7-0.3,1.2-1.1,1-2.2L374,289.5z"/>
				<g>
					<path class="st58" d="M385.5,280c-0.1,0.1-0.1,0.2-0.2,0.2c-0.2,0.1-0.4,0.1-0.6-0.1l-2.6-1.9c0.3-0.3,0.6-0.5,0.9-0.8l2.3,1.6
						C385.6,279.3,385.7,279.7,385.5,280z"/>
				</g>
				<g>
					<path class="st58" d="M387.2,278.3c-0.1,0.1-0.2,0.2-0.3,0.2c-0.2,0.1-0.4,0.1-0.6-0.1l-2.5-1.8c0.3-0.3,0.6-0.6,0.9-0.9
						l2.2,1.6C387.3,277.6,387.4,278,387.2,278.3z"/>
				</g>
				<g>
					<path class="st58" d="M388.9,276.3c-0.1,0.1-0.2,0.2-0.2,0.2c-0.2,0.1-0.4,0.1-0.6-0.1l-2.3-1.6c0.3-0.3,0.6-0.6,0.8-0.9
						l2.1,1.5C389,275.6,389.1,276,388.9,276.3z"/>
				</g>
				<g>
					<path class="st58" d="M390.5,274.3c-0.1,0.1-0.2,0.2-0.2,0.2c-0.2,0.1-0.4,0.1-0.6-0.1l-2.3-1.7c0.2-0.3,0.5-0.7,0.6-1.1
						l2.3,1.7C390.6,273.6,390.7,274,390.5,274.3z"/>
				</g>
			</g>
		</g>
		<path class="st44" d="M433.8,159.5c-9.9-9.2-22.2-18-33.2-25.7c-10.3-7.3-21.4-15.3-32.8-8.6c-14,8.2-9,38.8-4.1,54.1
			c4.4,0.8,7.6,1.1,12,1.9c1.5-3.9,1.1-27.7,2.2-35.9c14.9,16,34.3,31.1,51.3,36.8L433.8,159.5z"/>
		<path class="st59" d="M416.1,172.7c-2.1-1.9-4.3-3.6-6.5-5.4c-2.3-1.9-4.6-3.8-6.8-5.7c-4.6-3.8-9.2-7.7-13.8-11.5
			c-2.1-1.8-4.2-3.6-6.4-5.3c-1.4-1.2-2.9-2.4-3.8-4.1c-0.1,0-0.1,0-0.2,0c-2.6,0.4-3.6,3-4,5.3c-0.2,1.2-0.3,2.5-0.2,3.7
			c0,1.9,0.1,3.8,0.3,5.6c0.4,4.5,0.9,8.9,1.3,13.4c0.2,2.2,0.3,4.4,0.4,6.7c0,0.5,0,1.1,0,1.6c0.7-8.3,0.6-25.1,1.5-31.8
			c12.9,13.8,29.1,27,44.2,33.9C420.2,177,418.3,174.7,416.1,172.7z"/>
		<path class="st35" d="M407.2,156.4l12.2,1.8c9.7-2.9,15.5-10.3,19.1-18.5c-3.7-1.6-7.3-3.6-11-4.8
			C422.8,143.6,416.1,150.7,407.2,156.4z"/>
		<path class="st58" d="M441.4,102.3l1.7,1c0.1-0.3,0.2-0.7,0.2-1H441.4z"/>
		<path class="st58" d="M433.8,105.6c-1,12.2-3.6,20.4-8.2,29c3.7,1.2,10.7,4.5,14.5,6.1c6.4-14.7,4-33.3,4-33.3L433.8,105.6z"/>
		<path class="st44" d="M435.7,179.8c4.7,2.9,14.8,2.4,20.8,1.1c-5.9-8.6-17.3-15.4-25.1-23.1C428.7,165.9,427.1,174.5,435.7,179.8z
			"/>
		<path class="st60" d="M475.2,119.6c-2.1-8.4-7.1-19.4-15.4-23.4c-6.3-3.1-16.2-4.9-22.9-1.8c-7.9,3.7-2.4,16.3-2.1,22.6
			c0.5,11.7-0.9,23.5-4.2,34.7c-0.4,1.5-0.9,3-0.7,4.5c0.5,3.2,4.6,5.3,7,6.9c3.3,2.2,6.8,4.3,10.1,6.5c1.4,0.9,18.3,13.1,17.9,13.4
			c6.4-4.7,10.9-28.8,11.6-37.7C477.4,136.8,477.3,128,475.2,119.6z"/>
		<g>
			<path class="st44" d="M463.1,178.4c-0.6-5.7-3.6-6.8-8.9-7.1c-16.8-0.8-33.2-2.4-50-1.6c-4.9,0.2-10.3,0.9-13.4,4.7
				c-2.2,2.7-2.6,6.5-2.8,10c-1.7,23.3-1.9,46.7-0.8,70.1c4.8,1.6,9.8,1.9,17.1,2.3c3.4-13.8,10.1-61.4,10.1-61.4
				c8.4,0.2,15.3-0.1,23.7,0.6c6.1,0.5,13.4-0.8,18.7-3.8C461.8,189.5,463.7,184,463.1,178.4z"/>
			<path class="st59" d="M410.6,186.8l-7.2,70c0.3,0,0.6,0,1,0.1c3.4-13.8,10.1-61.4,10.1-61.4c8.4,1.1,16.6,0,25.1,0.7
				c6.1,0.5,12-0.9,17.4-3.9c2.5-1.4,4.3-4.1,5.5-6.5C447.6,194.3,427.6,185.2,410.6,186.8z"/>
			<path class="st60" d="M442.5,167.5c7.4,6.1,15.7,13.4,19.5,18.9c4.5-2.6,7.3-8.6,9.3-15.6C461.7,168.8,452.1,167.7,442.5,167.5z"
				/>
		</g>
		<path class="st60" d="M409.8,162.6c-0.7,0.1-1.4,0.1-2,0.2C408.5,162.9,409.2,162.8,409.8,162.6z"/>
		<g>
			<g>
				<path class="st61" d="M421.4,66.1c-1.2,2.5-2.1,5.1-2.4,7.9c-0.3,2.7,0.1,5.6,1.4,8c1.5-5.4,3.5-10.7,6-15.7L421.4,66.1z"/>
				<path class="st31" d="M445.2,105.2L445.2,105.2c4.2-1.1,6.7-5.4,5.6-9.6l-7.6-28.5l-15.2,4l7.6,28.5
					C436.7,103.9,441,106.3,445.2,105.2z"/>
				<g>
					<path class="st31" d="M436.5,100.4c-15.4,8.2-24.2-29.6-8.6-38.4C451.9,48.4,456.4,89.8,436.5,100.4z"/>
					<path class="st61" d="M447.4,84.5c0.2,1.2,0.7,2.3,1.4,3.3c-0.3-0.4,1.1-3.7,1.3-4.2c1.1-4,2.2-8.2,1.8-12.4
						c-0.1-1.4-0.5-2.8-1.1-4.1c-3.8-8.7-15.4-10.8-23.3-6.2c-1.6,1-3.2,2.1-4.6,3.4c-1.5,1.5-2.7,3.3-3.1,5.4
						c-0.4,2.1,0.2,4.4,1.7,5.8c4.6,4.2,10.3-1,14.1-3.5c1.9-1.2,4.5-2.2,6.1-0.6c2.2,2.2,2.5,7.4,2.5,10.5c0,0.3,1.3,0.4,1.3,0
						c0.1-0.8,0-1.4,0.6-1.7c0.2-0.1,1.4-0.6,1.2,0C446.8,81.7,447.1,82.9,447.4,84.5z"/>
				</g>
				<path class="st31" d="M445.2,80.7c0.2-0.4,0.5-0.8,1-1c0.4-0.2,1-0.1,1.3,0.2c0.4,0.4,0.3,1,0.1,1.6c-0.4,1.3-1.1,2.4-1.9,3.6
					L445.2,80.7z"/>
				<path class="st61" d="M423.5,94.2c-0.1,0.1-0.1,0.2-0.1,0.2c-0.6,1.2,0.1,2.7,0.7,3.9c1,1.9,2,3.8,3.9,4.9
					c3.5,2,7.7-0.1,10.6-2.4c3-2.3,5.3-5.6,6.6-9.1c1.6-4.4,1.6-9.5,0.1-13.9c-0.6,0.9-0.9,1.5-1,2.5c-0.1,1.2,0.4,7.5-3.2,11.3
					c-1.6,1.7-4.6,1.8-6.8,1.6c-2.7-0.2-5.5-1.1-8.2-0.5C425,93,424,93.4,423.5,94.2z"/>
				<path class="st61" d="M443.5,62.5c-1.1-2.8-1.7-5.7-1.7-8.7c0-2,0.4-4.2,2.1-5.3c1.8-1.1,4.2-0.3,5.8,1c2,1.6,3.4,4.3,2.6,6.8
					c-1.2,3.9-6.7,5.2-7.6,9.1L443.5,62.5z"/>
				<path class="st31" d="M426.4,94.1c-0.7,0.5-0.9,1.6-0.5,2.3c0.1,0.3,0.4,0.6,0.7,0.7c0.3,0.1,0.6-0.1,0.9-0.3
					c0.2-0.2,0.4-0.5,0.6-0.7c0.4,0.4,0.8,0.8,1.3,1c0.5,0.3,1.1,0.4,1.6,0.2c0.5-0.2,0.9-0.8,0.8-1.3c-0.1-0.4-0.3-0.7-0.6-0.9
					C430.1,94.2,427.7,93.1,426.4,94.1z"/>
			</g>
			<path class="st35" d="M427.5,91.9C427.5,91.9,427.5,91.9,427.5,91.9c-0.5,0-1-0.1-1.5-0.2c-0.2-0.1-0.8-0.2-1-0.8
				c-0.2-0.5,0-1,0.2-1.3c0.7-1.6,0.4-3.3,0-5.3c-0.1-0.3,0.1-0.6,0.4-0.6c0.3-0.1,0.6,0.1,0.6,0.4c0.4,1.7,0.9,3.9,0,5.9
				c-0.1,0.2-0.2,0.5-0.2,0.5c0,0,0,0.1,0.3,0.2c0.4,0.1,0.8,0.2,1.2,0.2c0.3,0,0.5,0.3,0.5,0.6C428,91.7,427.8,91.9,427.5,91.9z"/>
			<path class="st56" d="M432.3,86.6c-0.1,0-0.2,0-0.2,0c-0.6-0.1-1.1-0.3-1.4-0.8c-0.2-0.2-0.1-0.6,0.1-0.7
				c0.2-0.2,0.6-0.1,0.7,0.1c0.1,0.2,0.4,0.3,0.6,0.3c0.3,0,0.5,0,0.7-0.2c0.2-0.2,0.6-0.2,0.8,0c0.2,0.2,0.2,0.6,0,0.8
				C433.3,86.5,432.8,86.6,432.3,86.6z"/>
			<path class="st56" d="M422.3,86.8c-0.5,0-1.1-0.2-1.4-0.6c-0.2-0.2-0.2-0.6,0-0.8c0.2-0.2,0.6-0.2,0.8,0c0.2,0.3,0.7,0.3,1,0.2
				c0.3-0.1,0.6,0,0.7,0.3c0.1,0.3,0,0.6-0.3,0.7C422.9,86.8,422.6,86.8,422.3,86.8z"/>
			<path class="st56" d="M435,84.1c-0.1,0-0.2,0-0.2,0c-1.7-0.7-3.6-0.8-5.4-0.5c-0.4,0.1-0.7-0.2-0.8-0.5c-0.1-0.4,0.2-0.7,0.5-0.8
				c2.1-0.4,4.2-0.2,6.2,0.6c0.3,0.1,0.5,0.5,0.4,0.9C435.5,83.9,435.2,84.1,435,84.1z"/>
			<path class="st56" d="M423.7,84C423.7,84,423.6,84,423.7,84c-1-0.1-1.9-0.1-2.8,0c-0.4,0.1-0.7-0.2-0.8-0.6
				c-0.1-0.4,0.2-0.7,0.6-0.8c1-0.1,2-0.1,3.1,0c0.4,0.1,0.6,0.4,0.6,0.8C424.3,83.8,424,84,423.7,84z"/>
		</g>
		<g>
			
				<rect x="419.7" y="167.3" transform="matrix(-1 -1.224647e-16 1.224647e-16 -1 866.3881 337.2606)" class="st62" width="27" height="2.7"/>
			<path class="st58" d="M382.7,170h48.5l-6.9-27.1c-0.5-2-2.3-3.4-4.4-3.4h-42.5c-1.3,0-2.2,1.2-1.9,2.4L382.7,170z"/>
			<path class="st62" d="M424.3,142.9l6.9,27.1h-3l-7.8-30.5C422.3,139.7,423.9,141.1,424.3,142.9z"/>
			<path class="st63" d="M398.3,153.8c0,1.3,1,2.3,2.3,2.3s2.3-1,2.3-2.3c0-1.3-1-2.3-2.3-2.3S398.3,152.5,398.3,153.8z"/>
		</g>
		<path class="st35" d="M451,128.7c0.3,9.6,0.2,33.1,0.2,33.1c-7.7-1.3-15-0.1-22.5-0.8l2.7,6.7c10.2,1.6,20,3.9,21.7,4.2
			c3,0.4,6.4-0.1,8.5-2.3c1.9-1.9,2.6-4.8,3-7.5c1.8-10.2,3.1-20.4,2.9-30.6C461.2,131,458,127.8,451,128.7z"/>
		<g>
			<path class="st60" d="M466.7,118.1c-1.2-5.7-2.9-14.9-7.8-17.1c-7.4-3.3-13.1,4.9-12.6,11.7c0.5,7.7,0.1,15.2,0.3,22.6
				c7.8-1,14.9-1.8,21.9-1.3C468.3,128.7,467.8,123.4,466.7,118.1z"/>
			<path class="st58" d="M466.7,118.1c-1.1-5-2.5-12.7-6.1-16c4.7,9.8,5.1,21.1,5.7,31.8c0.7,0,1.5,0.1,2.2,0.1
				C468.3,128.7,467.8,123.4,466.7,118.1z"/>
			<g>
				<path class="st45" d="M446.4,117.1c0-0.3,0-0.5,0-0.8C446.4,116.5,446.4,116.8,446.4,117.1z"/>
				<path class="st45" d="M446.4,117.1c0.2,6.2,0,12.2,0.1,18.2c0.8-0.1,1.5-0.2,2.2-0.3C447.6,127.4,446.7,121.7,446.4,117.1z"/>
			</g>
		</g>
		<path class="st64" d="M386.3,248.4c-0.2,0.1-0.3,0.3-0.5,0.6c-0.5,1-0.1,2.2-0.1,3.2c0,1,0,2,0,3.1c0,0,7.3,4.2,19.9,2.5
			c0.3,0,1-5.1,1.1-5.6c0.3-2.9-4.2-1.8-6-1.8c-2.2-0.1-4.4-0.2-6.6-0.5c-2-0.2-4-0.5-5.9-1.2C387.5,248.5,386.8,248.1,386.3,248.4z
			"/>
		<g>
			<g>
				<path class="st36" d="M373.8,195.2c-9,0.2-19.3,0.4-28.3,0.4c-1.3,0-3.4,0-4-1.5c-0.5-1.3,0.3-3,1.6-3.6
					c0.7-0.3,1.4-0.4,2.1-0.5c2.3-0.3,4.6-0.8,6.9-1.5c0.4-0.1,0.7-0.2,1-0.3c0,0,0.1,0,0.1,0c0.3-0.1,0.6-0.2,0.9-0.3
					c0.3-0.1,0.7-0.2,1-0.3c0.4-0.1,0.7-0.3,1.1-0.4c0.3-0.1,0.7-0.3,1-0.4c0.4-0.1,0.7-0.3,1-0.6c0.3-0.2,0.6-0.4,0.9-0.6
					c0.1-0.1,0.3-0.2,0.4-0.3c0.6-0.5,1.3-1.1,1.8-1.7c0.5-0.7,0.7-1.6,1.5-2.1c0.8-0.5,1.7-0.1,2.6,0.2c0,0,0.1,0,0.2,0
					c1,0.3,1.4,0.1,2.3-0.1c1.6-0.3,4.2,0.1,5.8,0.2c0.3,0,0.6,3.9,1.3,6C375.3,188.9,376.6,195.1,373.8,195.2z"/>
				<path class="st58" d="M341.6,194.3c0.7,1.3,2.6,1.4,3.9,1.3c9-0.1,19.3-0.2,28.3-0.4c0.6,0,1.4-0.4,1.5-1.3L341.6,194.3z"/>
				<g>
					<path class="st58" d="M354.2,191c-0.1,0.1-0.2,0.1-0.3,0.1c-0.2,0-0.3-0.1-0.4-0.2l-1.4-2.2c0.4-0.1,0.7-0.2,1-0.3l1.2,1.9
						C354.5,190.5,354.4,190.8,354.2,191z"/>
				</g>
				<g>
					<path class="st58" d="M356.2,190.3c-0.1,0-0.2,0.1-0.3,0.1c-0.2,0-0.3-0.1-0.4-0.3l-1.3-2.1c0.3-0.1,0.7-0.2,1-0.3l1.2,1.9
						C356.5,189.8,356.4,190.1,356.2,190.3z"/>
				</g>
				<g>
					<path class="st58" d="M358.2,189.4c-0.1,0.1-0.2,0.1-0.3,0.1c-0.2,0-0.4-0.1-0.5-0.3l-1.2-1.9c0.3-0.1,0.7-0.3,1-0.4l1.1,1.8
						C358.5,188.9,358.5,189.2,358.2,189.4z"/>
				</g>
				<g>
					<path class="st58" d="M360.2,188.4c-0.1,0.1-0.2,0.1-0.3,0.1c-0.2,0-0.3-0.1-0.4-0.2l-1.3-2c0.3-0.2,0.6-0.4,0.9-0.6l1.3,2
						C360.5,187.9,360.5,188.2,360.2,188.4z"/>
				</g>
			</g>
			<path class="st64" d="M360.7,179.8c0,1.1,0.1,2.3,0.9,3.1c0.7,0.7,1.8,1,2.8,1.1c3.8,0.7,7.7,1.2,11.6,1.6
				c0.5-1.6,0.9-3.3,1.4-4.9c0.1-0.4,0.2-0.7,0.1-1.1c-0.2-0.8-1.2-1.1-2-1.2c-4.7-0.6-10-2.1-14.7-1.9
				C360.6,177.6,360.7,178.8,360.7,179.8z"/>
		</g>
	</g>
	<g>
		<path class="st65" d="M792.8,252.2l5.2-12.6c-1.5-3.5-3.3-7.1-5.1-10.5c-16.3-30.8-43.5-57.2-78.3-73.5c2.1,0.8,4.2,1.5,6.2,2.3
			c35.8,14.8,64.1,40,82,70.1l0.9-0.1L792.8,252.2z"/>
		<linearGradient id="SVGID_21_" gradientUnits="userSpaceOnUse" x1="730.4599" y1="128.2388" x2="722.0225" y2="302.048">
			<stop  offset="0" style="stop-color:#48484A"/>
			<stop  offset="0.2344" style="stop-color:#2F3338"/>
			<stop  offset="0.4871" style="stop-color:#1B2229"/>
			<stop  offset="0.742" style="stop-color:#0F1821"/>
			<stop  offset="1" style="stop-color:#0B151E"/>
		</linearGradient>
		<path class="st66" d="M862.4,221.5l-0.3,0l-25.4,48.8l-3,20l-8.6-4.3l11.3-15.8l15.2-47.5l-47.9,5.3l-0.9,0.1
			c-17.9-30-46.2-55.3-82-70.1c-2-0.8-4.1-1.5-6.2-2.3c34.8,16.3,61.9,42.7,78.3,73.5c1.8,3.4,3.5,7,5.1,10.5l-5.2,12.6l-0.2,0.3
			l-14.9,36.2c-17.9-30.1-46.2-55.4-82.1-70.2c-3.3-1.4-6.7-2.6-10-3.8c-24.1-8.3-49.5-10.7-73.6-7.4l20.4-49.5L594.8,111l167-25.2
			L862.4,221.5z"/>
	</g>
	<g>
		<g>
			<rect x="524" y="257.5" class="st67" width="3" height="2"/>
			<path class="st67" d="M704.6,259.5h-5.9v-2h5.9V259.5z M692.8,259.5h-5.9v-2h5.9V259.5z M680.9,259.5H675v-2h5.9V259.5z
				 M669.1,259.5h-5.9v-2h5.9V259.5z M657.3,259.5h-5.9v-2h5.9V259.5z M645.4,259.5h-5.9v-2h5.9V259.5z M633.6,259.5h-5.9v-2h5.9
				V259.5z M621.7,259.5h-5.9v-2h5.9V259.5z M609.9,259.5H604v-2h5.9V259.5z M598.1,259.5h-5.9v-2h5.9V259.5z M586.2,259.5h-5.9v-2
				h5.9V259.5z M574.4,259.5h-5.9v-2h5.9V259.5z M562.6,259.5h-5.9v-2h5.9V259.5z M550.7,259.5h-5.9v-2h5.9V259.5z M538.9,259.5H533
				v-2h5.9V259.5z"/>
			<polygon class="st67" points="714.5,261.5 712.5,261.5 712.5,259.5 710.5,259.5 710.5,257.5 714.5,257.5 			"/>
			<path class="st67" d="M714.5,329.3h-2v-5.7h2V329.3z M714.5,318h-2v-5.7h2V318z M714.5,306.7h-2v-5.7h2V306.7z M714.5,295.4h-2
				v-5.7h2V295.4z M714.5,284.1h-2v-5.7h2V284.1z M714.5,272.8h-2v-5.7h2V272.8z"/>
			<polygon class="st67" points="714.5,339 710.5,339 710.5,337 712.5,337 712.5,335 714.5,335 			"/>
			<path class="st67" d="M704.6,339h-5.9v-2h5.9V339z M692.7,339h-5.9v-2h5.9V339z M680.9,339H675v-2h5.9V339z M669,339h-5.9v-2h5.9
				V339z M657.2,339h-5.9v-2h5.9V339z M645.3,339h-5.9v-2h5.9V339z M633.4,339h-5.9v-2h5.9V339z M621.6,339h-5.9v-2h5.9V339z
				 M609.7,339h-5.9v-2h5.9V339z M597.9,339h-5.9v-2h5.9V339z M586,339h-5.9v-2h5.9V339z M574.1,339h-5.9v-2h5.9V339z M562.3,339
				h-5.9v-2h5.9V339z M550.4,339h-5.9v-2h5.9V339z M538.6,339h-5.9v-2h5.9V339z M526.7,339h-5.9v-2h5.9V339z M514.9,339h-5.9v-2h5.9
				V339z M503,339h-5.9v-2h5.9V339z M491.1,339h-5.9v-2h5.9V339z M479.3,339h-5.9v-2h5.9V339z M467.4,339h-5.9v-2h5.9V339z
				 M455.6,339h-5.9v-2h5.9V339z M443.7,339h-5.9v-2h5.9V339z M431.8,339h-5.9v-2h5.9V339z M420,339H414v-2h5.9V339z M408.1,339
				h-5.9v-2h5.9V339z M396.3,339h-5.9v-2h5.9V339z M384.4,339h-5.9v-2h5.9V339z"/>
			<polygon class="st67" points="370.5,341 368.5,341 368.5,337 372.5,337 372.5,339 370.5,339 			"/>
			<path class="st67" d="M370.5,426.9h-2v-6.1h2V426.9z M370.5,414.6h-2v-6.1h2V414.6z M370.5,402.3h-2v-6.1h2V402.3z M370.5,390.1
				h-2v-6.1h2V390.1z M370.5,377.8h-2v-6.1h2V377.8z M370.5,365.5h-2v-6.1h2V365.5z M370.5,353.3h-2v-6.1h2V353.3z"/>
			<polygon class="st67" points="372.5,437 368.5,437 368.5,433 370.5,433 370.5,435 372.5,435 			"/>
			<path class="st67" d="M561.8,437h-5.9v-2h5.9V437z M549.9,437H544v-2h5.9V437z M538.1,437h-5.9v-2h5.9V437z M526.3,437h-5.9v-2
				h5.9V437z M514.5,437h-5.9v-2h5.9V437z M502.6,437h-5.9v-2h5.9V437z M490.8,437h-5.9v-2h5.9V437z M479,437h-5.9v-2h5.9V437z
				 M467.2,437h-5.9v-2h5.9V437z M455.3,437h-5.9v-2h5.9V437z M443.5,437h-5.9v-2h5.9V437z M431.7,437h-5.9v-2h5.9V437z M419.8,437
				h-5.9v-2h5.9V437z M408,437h-5.9v-2h5.9V437z M396.2,437h-5.9v-2h5.9V437z M384.4,437h-5.9v-2h5.9V437z"/>
			<rect x="567.7" y="435" class="st67" width="3" height="2"/>
		</g>
		<g>
			<path class="st67" d="M487.8,286c-7.7,0-14.9-3-20.4-8.4c-5.4-5.4-8.4-12.7-8.4-20.4c0-7.7,3-14.9,8.4-20.4
				c5.4-5.4,12.7-8.4,20.4-8.4s14.9,3,20.4,8.4c5.4,5.4,8.4,12.7,8.4,20.4c0,7.7-3,14.9-8.4,20.4C502.7,283,495.4,286,487.8,286z
				 M487.8,230.7c-14.6,0-26.6,11.9-26.6,26.6s11.9,26.6,26.6,26.6c14.6,0,26.6-11.9,26.6-26.6S502.4,230.7,487.8,230.7z"/>
			<g>
				<g>
					<path class="st67" d="M502.9,261.7l-2.5-6.2l2.5-6.2c0.1-0.3,0.1-0.6-0.1-0.9s-0.5-0.4-0.8-0.4h-11.4v-2.3c0-0.5-0.4-1-1-1h-12
						v-1.7c0-0.5-0.4-1-1-1c-0.5,0-1,0.4-1,1c0,4.1,0,27.9,0,31.4c0,0.5,0.4,1,1,1c0.5,0,1-0.4,1-1v-14.7h7.8v2.3c0,0.5,0.4,1,1,1
						H502c0.3,0,0.6-0.2,0.8-0.4C503,262.3,503,262,502.9,261.7z M488.7,257.8c-1.1,0-9.9,0-11.1,0v-11.1h11.1
						C488.7,247.9,488.7,256.6,488.7,257.8z M488.7,261.1l1.6-1.6c0.2-0.2,0.3-0.4,0.3-0.7V250h10l-2.1,5.2c-0.1,0.2-0.1,0.5,0,0.7
						l2.1,5.2H488.7L488.7,261.1z"/>
				</g>
			</g>
		</g>
		<g>
			<path class="st67" d="M587.8,429.4c-0.4-0.2-0.7-0.6-0.7-1c0-0.5,0.3-0.9,0.7-1l17.4-6.1c0.2-0.1,0.5-0.1,0.7,0l17.4,6.1
				c0.4,0.2,0.7,0.6,0.7,1c0,0.5-0.3,0.9-0.7,1l-6.9,2.4v7.1c0,1.2-1.2,2.1-3.6,2.9c-2.1,0.7-4.7,1-7.2,1c-2.6,0-5.1-0.4-7.2-1
				c-2.4-0.8-3.6-1.8-3.6-2.9v-7.1l-2.8-1v9.8c1.3,0.4,2.2,1.6,2.2,3.1c0,1.4-0.9,2.6-2.2,3.1v4.1c0,0.6-0.5,1.1-1.1,1.1
				c-0.6,0-1.1-0.5-1.1-1.1v-4.1c-1.3-0.4-2.2-1.6-2.2-3.1c0-1.4,0.9-2.6,2.2-3.1v-10.5L587.8,429.4z M590.8,444.7
				c0.6,0,1.1-0.5,1.1-1.1s-0.5-1.1-1.1-1.1c-0.6,0-1.1,0.5-1.1,1.1C589.7,444.2,590.2,444.7,590.8,444.7z M605.5,423.4l-14.1,5
				l14.1,5l14.1-5L605.5,423.4z M596.9,438.7c0.2,0.2,1,0.7,2.6,1.2c1.8,0.5,3.9,0.8,6.1,0.8c2.1,0,4.3-0.3,6.1-0.8
				c1.7-0.5,2.4-1,2.6-1.2v-6.1l-8.3,3c-0.1,0-0.2,0.1-0.4,0.1c-0.1,0-0.2,0-0.4-0.1l-8.3-3V438.7L596.9,438.7z"/>
			<path class="st67" d="M604.8,463c-7.7,0-14.9-3-20.4-8.4c-5.4-5.4-8.4-12.7-8.4-20.4s3-14.9,8.4-20.4c5.4-5.4,12.7-8.4,20.4-8.4
				c7.7,0,14.9,3,20.4,8.4c5.4,5.4,8.4,12.7,8.4,20.4s-3,14.9-8.4,20.4C619.7,460,612.4,463,604.8,463z M604.8,407.7
				c-14.6,0-26.6,11.9-26.6,26.6s11.9,26.6,26.6,26.6c14.6,0,26.6-11.9,26.6-26.6S619.4,407.7,604.8,407.7z"/>
		</g>
		<g>
			<g>
				<circle class="st30" cx="644.5" cy="338" r="14"/>
				<path class="st67" d="M644.5,353c-8.3,0-15-6.7-15-15s6.7-15,15-15s15,6.7,15,15S652.8,353,644.5,353z M644.5,325
					c-7.2,0-13,5.8-13,13s5.8,13,13,13s13-5.8,13-13S651.7,325,644.5,325z"/>
			</g>
			<circle class="st68" cx="644.5" cy="338" r="8.1"/>
		</g>
		<g>
			<g>
				<circle class="st30" cx="537" cy="338" r="14"/>
				<path class="st67" d="M537,353c-8.3,0-15-6.7-15-15s6.7-15,15-15s15,6.7,15,15S545.3,353,537,353z M537,325c-7.2,0-13,5.8-13,13
					s5.8,13,13,13s13-5.8,13-13S544.2,325,537,325z"/>
			</g>
			<circle class="st68" cx="537" cy="338" r="8.1"/>
		</g>
		<g>
			<g>
				<circle class="st30" cx="429.5" cy="338" r="14"/>
				<path class="st67" d="M429.5,353c-8.3,0-15-6.7-15-15s6.7-15,15-15s15,6.7,15,15S437.8,353,429.5,353z M429.5,325
					c-7.2,0-13,5.8-13,13s5.8,13,13,13s13-5.8,13-13S436.7,325,429.5,325z"/>
			</g>
			<circle class="st68" cx="429.5" cy="338" r="8.1"/>
		</g>
		<g>
			<g>
				<circle class="st30" cx="466.5" cy="436" r="14"/>
				<path class="st67" d="M466.5,451c-8.3,0-15-6.7-15-15s6.7-15,15-15s15,6.7,15,15S474.8,451,466.5,451z M466.5,423
					c-7.2,0-13,5.8-13,13s5.8,13,13,13s13-5.8,13-13S473.7,423,466.5,423z"/>
			</g>
			<circle class="st68" cx="466.5" cy="436" r="8.1"/>
		</g>
		<g>
			<g>
				<circle class="st30" cx="617.5" cy="258" r="14"/>
				<path class="st67" d="M617.5,273c-8.3,0-15-6.7-15-15c0-8.3,6.7-15,15-15s15,6.7,15,15C632.5,266.3,625.8,273,617.5,273z
					 M617.5,245c-7.2,0-13,5.8-13,13c0,7.2,5.8,13,13,13s13-5.8,13-13C630.5,250.8,624.7,245,617.5,245z"/>
			</g>
			<circle class="st68" cx="617.5" cy="258" r="8.1"/>
		</g>
	</g>
</g>
</svg>
