<svg xmlns="http://www.w3.org/2000/svg" width="81.721" height="81.721" viewBox="0 0 81.721 81.721">
  <g id="Grupo_13220" data-name="Grupo 13220" transform="translate(-223 -2117)">
    <g id="Grupo_13218" data-name="Grupo 13218">
      <circle id="Elipse_772" data-name="Elipse 772" cx="39.361" cy="39.361" r="39.361" transform="translate(224.5 2118.5)" fill="#fff" stroke="#dd573f" stroke-width="3"/>
      <g id="Grupo_13213" data-name="Grupo 13213" transform="translate(3.772 -36.594)">
        <path id="Trazado_19238" data-name="Trazado 19238" d="M1062.062,416.9l-.169-.288a4.533,4.533,0,0,0-6.2-1.632,1.617,1.617,0,0,0-.746-.611c-1.264-.509-2.558-.968-3.85-1.364a.738.738,0,0,0-.432,1.411c1.251.384,2.506.828,3.73,1.322a.149.149,0,0,1,.087.093q.268.859.494,1.707a101.508,101.508,0,0,0-35.584.089q.264-.891.581-1.775a.148.148,0,0,1,.089-.088,54.216,54.216,0,0,1,14.078-3.137,44.452,44.452,0,0,1,13.431.963.738.738,0,1,0,.33-1.439c-9-2.061-18.531-1.313-28.34,2.224a1.619,1.619,0,0,0-.812.645,4.529,4.529,0,0,0-6.26,1.593l-.168.288a4.553,4.553,0,0,0-.256,4.054s5.9,13.871,5.9,13.886q.281.935.621,1.866a1.623,1.623,0,0,0,.927.951,47.98,47.98,0,0,0,17.723,3.513h0a47.987,47.987,0,0,0,17.728-3.517,1.625,1.625,0,0,0,.917-.924,27.007,27.007,0,0,0,.882-2.728l5.544-13.047a4.553,4.553,0,0,0-.255-4.054Zm-6.538,16.018a94.277,94.277,0,0,1-29.237,1.147.738.738,0,1,0-.17,1.466A95.542,95.542,0,0,0,1055.1,434.5q-.263.86-.585,1.7a.15.15,0,0,1-.083.082,46.5,46.5,0,0,1-17.184,3.412h0a46.51,46.51,0,0,1-17.18-3.409.153.153,0,0,1-.085-.087q-.305-.837-.56-1.678c1.176.218,2.358.418,3.53.592a.668.668,0,0,0,.11.009.738.738,0,0,0,.108-1.468c-1.389-.207-2.794-.448-4.183-.716a28.975,28.975,0,0,1-.814-5.571h22.1a.738.738,0,0,0,0-1.476h-22.127q.005-1.039.087-2.076a.738.738,0,1,0-1.472-.118,29.584,29.584,0,0,0-.018,4.466l-3.308-7.785a3.069,3.069,0,0,1,.172-2.733l.168-.289a3.056,3.056,0,0,1,4.452-.92,33.239,33.239,0,0,0-1.034,4.039.738.738,0,0,0,.589.862.716.716,0,0,0,.137.013.737.737,0,0,0,.724-.6c.1-.515.211-1.032.336-1.55a100.068,100.068,0,0,1,36.4-.087,34.441,34.441,0,0,1,.869,6.781h-12.561a.738.738,0,1,0,0,1.475h12.558a27.068,27.068,0,0,1-.709,5.551Zm5.435-12.541-3.274,7.706a35.967,35.967,0,0,0-1.488-11.669,3.053,3.053,0,0,1,4.421.941l.168.288a3.069,3.069,0,0,1,.172,2.734Z" transform="translate(-776.429 1771.382)" fill="#787878"/>
      </g>
    </g>
  </g>
</svg>
