<svg xmlns="http://www.w3.org/2000/svg" width="81.721" height="81.721" viewBox="0 0 81.721 81.721">
  <g id="Grupo_13222" data-name="Grupo 13222" transform="translate(-223 -1886)">
    <g id="Grupo_13216" data-name="Grupo 13216">
      <circle id="Elipse_770" data-name="Elipse 770" cx="39.361" cy="39.361" r="39.361" transform="translate(224.5 1887.5)" fill="#fff" stroke="#f7e352" stroke-width="3"/>
      <g id="Grupo_13211" data-name="Grupo 13211" transform="translate(7.921 13.658)">
        <path id="Trazado_19228" data-name="Trazado 19228" d="M1034.534,167.628a.793.793,0,1,0,.561.232A.8.8,0,0,0,1034.534,167.628Z" transform="translate(-780.712 1761.299)" fill="#787878"/>
        <path id="Trazado_19229" data-name="Trazado 19229" d="M1054.006,132.49a2.9,2.9,0,0,0-4.09,0l-3.634,3.634V124.369a2.7,2.7,0,0,0-2.7-2.7h-26.666a2.7,2.7,0,0,0-2.7,2.7v35.238a2.7,2.7,0,0,0,2.7,2.7h26.666a2.7,2.7,0,0,0,2.7-2.7v-15.3l7.724-7.725A2.9,2.9,0,0,0,1054.006,132.49Zm-9.312-8.12v13.342l-1.587,1.587V125.64a.794.794,0,0,0-.794-.794h-5.3v-1.587h6.574A1.112,1.112,0,0,1,1044.695,124.369Zm-4.333,21.766,1.072-2.407,1.335,1.336Zm-4.939-22.877v3.234a.894.894,0,0,1-.893.893h-8.558a.894.894,0,0,1-.893-.893v-3.234Zm8.161,37.46h-26.666a1.112,1.112,0,0,1-1.112-1.111V124.369a1.112,1.112,0,0,1,1.112-1.111h6.574v1.587h-5.3a.794.794,0,0,0-.794.794v32.7a.794.794,0,0,0,.794.794h8.889a.793.793,0,1,0,0-1.587h-8.1V126.433h4.511v.059a2.482,2.482,0,0,0,2.48,2.48h8.558a2.483,2.483,0,0,0,2.48-2.48v-.059h4.511v14.452l-.9.9a.81.81,0,0,0-.163.239l-2.382,5.35a.793.793,0,0,0,1.047,1.048l2.4-1.069v10.187h-8.1a.793.793,0,1,0,0,1.587h8.889a.794.794,0,0,0,.794-.794V146.65l1.361-.606a.789.789,0,0,0,.226-.153v13.716A1.112,1.112,0,0,1,1043.584,160.718Zm6.342-22.3-5.78,5.779-1.846-1.846,7.156-7.156,1.846,1.847Zm2.958-2.958-.459.459-1.846-1.845.459-.459a1.305,1.305,0,1,1,1.846,1.845Z" transform="translate(-776.429 1771.382)" fill="#787878"/>
        <path id="Trazado_19230" data-name="Trazado 19230" d="M1029.039,133.872h-5.079a.794.794,0,0,0-.794.794v5.079a.794.794,0,0,0,.794.794h5.079a.794.794,0,0,0,.794-.794v-5.079A.794.794,0,0,0,1029.039,133.872Zm-.794,5.079h-3.492V135.46h3.492Z" transform="translate(-778.392 1768.705)" fill="#787878"/>
        <path id="Trazado_19231" data-name="Trazado 19231" d="M1029.039,145.056h-5.079a.794.794,0,0,0-.794.794v5.079a.794.794,0,0,0,.794.794h5.079a.794.794,0,0,0,.794-.794V145.85A.794.794,0,0,0,1029.039,145.056Zm-.794,5.079h-3.492v-3.492h3.492Z" transform="translate(-778.392 1766.251)" fill="#787878"/>
        <path id="Trazado_19232" data-name="Trazado 19232" d="M1029.039,156.24h-5.079a.794.794,0,0,0-.794.794v5.079a.794.794,0,0,0,.794.794h5.079a.794.794,0,0,0,.794-.794v-5.079A.794.794,0,0,0,1029.039,156.24Zm-.794,5.079h-3.492v-3.492h3.492Z" transform="translate(-778.392 1763.797)" fill="#787878"/>
        <path id="Trazado_19233" data-name="Trazado 19233" d="M1037.406,139.768a.792.792,0,0,0,1.122,0l3.584-3.583a.794.794,0,0,0-1.123-1.122l-3.022,3.022-1.2-1.2A.794.794,0,0,0,1035.64,138Z" transform="translate(-781.078 1768.495)" fill="#787878"/>
        <path id="Trazado_19234" data-name="Trazado 19234" d="M1037.406,150.952a.792.792,0,0,0,1.122,0l3.584-3.583a.794.794,0,0,0-1.123-1.122l-3.022,3.022-1.2-1.2a.794.794,0,1,0-1.122,1.122Z" transform="translate(-781.078 1766.041)" fill="#787878"/>
        <path id="Trazado_19235" data-name="Trazado 19235" d="M1039.124,160.907l1.23,1.229a.793.793,0,1,0,1.122-1.122l-1.23-1.231,1.23-1.23a.794.794,0,0,0-1.122-1.122l-1.23,1.23-1.23-1.23a.794.794,0,0,0-1.123,1.122l1.231,1.23-1.231,1.231a.794.794,0,0,0,1.123,1.122Z" transform="translate(-781.326 1763.587)" fill="#787878"/>
      </g>
    </g>
  </g>
</svg>
