<svg xmlns="http://www.w3.org/2000/svg" width="81.721" height="81.721" viewBox="0 0 81.721 81.721">
  <g id="Grupo_13223" data-name="Grupo 13223" transform="translate(-222.5 -1789.5)">
    <g id="Grupo_13215" data-name="Grupo 13215">
      <circle id="Elipse_722" data-name="Elipse 722" cx="39.361" cy="39.361" r="39.361" transform="translate(224 1791)" fill="#fff" stroke="#7bbbb5" stroke-width="3"/>
      <g id="Grupo_13210" data-name="Grupo 13210" transform="translate(2.987 3.87)">
        <path id="Trazado_19215" data-name="Trazado 19215" d="M1057.764,56.816a2.012,2.012,0,0,0-2.29,1.321l-2.291-1c0-.157.007-.312.007-.462a16,16,0,0,0-.5-3.981l1.028-.7a2.29,2.29,0,0,0,3.643-2.558l-.484-1.3A2.3,2.3,0,0,0,1054,46.727a2.292,2.292,0,0,0-1.578,2.173l-1.167.163c-.16-.293-.334-.59-.52-.885a.654.654,0,0,0-1.107.7c.22.349.421.7.6,1.04a.915.915,0,0,0,.935.483l2.1-.294a.654.654,0,0,0,.525-.87.981.981,0,0,1,.619-1.264,1.011,1.011,0,0,1,1.238.626l.483,1.3a1.015,1.015,0,0,1-.511,1.281.986.986,0,0,1-1.232-.389.655.655,0,0,0-.927-.2l-1.744,1.183a.912.912,0,0,0-.366,1,14.676,14.676,0,0,1,.528,3.907c0,.217-.006.444-.016.674a.918.918,0,0,0,.545.879l3.27,1.428a.654.654,0,0,0,.9-.473l.1-.528a.7.7,0,0,1,.3-.448.692.692,0,0,1,.527-.106.7.7,0,0,1,.554.824l-.536,2.733a.7.7,0,0,1-.859.546.729.729,0,0,1-.512-.854l.014-.073a.654.654,0,0,0-.672-.78l-3.537.161a.92.92,0,0,0-.824.626,14.587,14.587,0,0,1-1.292,2.841.914.914,0,0,0,.086,1.052l1.565,1.859a.655.655,0,0,0,.952.053.978.978,0,0,1,1.451,1.3l-.454.593a1.012,1.012,0,0,1-1.356.244.983.983,0,0,1-.372-1.12.655.655,0,0,0-.358-.809l-2.254-.99a.912.912,0,0,0-1.042.222,14.7,14.7,0,0,1-3.45,2.8.916.916,0,0,0-.441.935l.577,3.519a.655.655,0,0,0,.889.5l.5-.2a.7.7,0,0,1,.925.424.73.73,0,0,1-.439.894l-2.55,1.02a.7.7,0,0,1-.925-.424.73.73,0,0,1,.438-.894l.069-.027a.655.655,0,0,0,.289-.989l-2.057-2.882a.918.918,0,0,0-.972-.352,14.74,14.74,0,0,1-6.625.172.917.917,0,0,0-.952.4l-2.058,3.229a.654.654,0,0,0,.327.967l.074.027a1,1,0,0,1,.594,1.277.67.67,0,0,0-.039.224.51.51,0,0,1-.772.54l-2.529-.922a1,1,0,0,1-.6-1.26.969.969,0,0,1,.506-.556,1.064,1.064,0,0,1,.819-.041l.057.021a.654.654,0,0,0,.875-.543l.419-3.785a.917.917,0,0,0-.489-.911,14.654,14.654,0,0,1-4.069-3.107.916.916,0,0,0-1.018-.227l-3.087,1.266a.654.654,0,0,0-.329.914.8.8,0,0,1-.267,1.044.826.826,0,0,1-1.119-.246l-.791-1.137a.823.823,0,0,1,.138-1.116.8.8,0,0,1,1.134.145.654.654,0,0,0,1.012.039l2.175-2.457a.916.916,0,0,0,.114-1.048,14.206,14.206,0,0,1-.646-1.32.655.655,0,0,0-1.2.517c.175.407.366.806.571,1.191l-1.558,1.76a2.112,2.112,0,0,0-2.408.144,2.132,2.132,0,0,0-.4,2.89l.79,1.138a2.144,2.144,0,0,0,2.914.593,2.1,2.1,0,0,0,.93-2.069l2.276-.934a15.961,15.961,0,0,0,4,3.055l-.312,2.811a2.372,2.372,0,0,0-1.091.23,2.262,2.262,0,0,0-1.18,1.312A2.316,2.316,0,0,0,1028.489,78l2.529.923a2.211,2.211,0,0,0,.755.138,1.751,1.751,0,0,0,1.011-.307,1.88,1.88,0,0,0,.762-1.486,2.308,2.308,0,0,0-.782-2.5l1.537-2.411a16.109,16.109,0,0,0,6.683-.174l1.493,2.093a2.007,2.007,0,0,0,2.087,3.358l2.55-1.02a2.028,2.028,0,0,0,1.19-2.538,2,2,0,0,0-1.066-1.173,2.021,2.021,0,0,0-1.321-.122l-.4-2.467a15.981,15.981,0,0,0,3.329-2.694l1.523.668a2.287,2.287,0,0,0,4.124,1.489l.454-.592a2.289,2.289,0,0,0-2.822-3.448l-1-1.193a15.958,15.958,0,0,0,1.179-2.594l2.568-.117a2.007,2.007,0,0,0,3.952.073l.537-2.733a2.013,2.013,0,0,0-1.587-2.36Z" transform="translate(-777.032 1769.482)" fill="#787878"/>
        <path id="Trazado_19216" data-name="Trazado 19216" d="M1018.414,56.683l2.453.567c.053.341.12.687.2,1.033a.654.654,0,0,0,.638.511.69.69,0,0,0,.144-.015.656.656,0,0,0,.5-.782c-.091-.4-.164-.8-.218-1.2a.917.917,0,0,0-.7-.765l-3.474-.8a.654.654,0,0,0-.8.632l0,.407a.836.836,0,0,1-.834.826.808.808,0,0,1-.807-.814l.023-2.524a.879.879,0,0,1,.27-.621.785.785,0,0,1,.573-.229.823.823,0,0,1,.8.824.654.654,0,0,0,.8.64l3.45-.809a.916.916,0,0,0,.7-.767,14.515,14.515,0,0,1,1.82-5.334.915.915,0,0,0-.094-1.048l-1.645-1.932a.655.655,0,0,0-1.021.029l-.142.188a.639.639,0,0,1-.921.1.666.666,0,0,1-.078-.9l1.1-1.449a.639.639,0,0,1,1.049.727.655.655,0,0,0,.293.952l2.3.994a.911.911,0,0,0,1.036-.223,14.68,14.68,0,0,1,3.609-2.88.919.919,0,0,0,.453-.929l-.53-3.526a.655.655,0,0,0-.882-.514l-.5.193a.7.7,0,0,1-.919-.436.731.731,0,0,1,.451-.888l2.563-.986a.7.7,0,0,1,.919.436.729.729,0,0,1-.451.888l-.068.027a.654.654,0,0,0-.3.984l2.018,2.909a.918.918,0,0,0,.966.365,14.7,14.7,0,0,1,3.5-.42h0a.914.914,0,0,0,.861-.605l.668-1.87a.655.655,0,0,0-.421-.845,1.06,1.06,0,0,1-.736-1.136,1.033,1.033,0,0,1,.4-.691,1.124,1.124,0,0,1,.829-.233l.917.116a1.089,1.089,0,0,1,.966,1.173,1.055,1.055,0,0,1-.787.912.655.655,0,0,0-.484.708l.232,2.026a.913.913,0,0,0,.711.787,14.535,14.535,0,0,1,4.164,1.618.917.917,0,0,0,1.031-.08l2.769-2.247a.655.655,0,0,0-.005-1.021l-.421-.335a.7.7,0,0,1-.092-1.013.73.73,0,0,1,.995-.062l2.151,1.707a.7.7,0,0,1,.091,1.013.73.73,0,0,1-.994.063l-.058-.046a.654.654,0,0,0-1,.239l-1.483,3.219a.919.919,0,0,0,.177,1.019c.093.1.185.193.294.312a.654.654,0,1,0,.963-.887l-.132-.142,1.077-2.338a2.007,2.007,0,0,0,1.88-3.477l-2.151-1.708a2.029,2.029,0,0,0-2.794.227,2,2,0,0,0-.489,1.507,2.024,2.024,0,0,0,.55,1.208l-1.939,1.575a15.844,15.844,0,0,0-4.023-1.565L1040.2,38a2.369,2.369,0,0,0-.887-4.432l-.917-.116a2.447,2.447,0,0,0-1.8.5,2.334,2.334,0,0,0-.892,1.567,2.371,2.371,0,0,0,1.028,2.244l-.379,1.06a16,16,0,0,0-3.266.393l-1.464-2.111a2.007,2.007,0,0,0-2.041-3.386l-2.563.986a2.027,2.027,0,0,0-1.223,2.522,1.992,1.992,0,0,0,1.049,1.186,2.015,2.015,0,0,0,1.321.139l.371,2.472a16,16,0,0,0-3.5,2.792l-1.477-.638a1.96,1.96,0,0,0-.741-1.891,1.948,1.948,0,0,0-2.73.378l-1.1,1.449a1.964,1.964,0,0,0,.283,2.7,1.932,1.932,0,0,0,1.47.44,1.958,1.958,0,0,0,.928-.363l.992,1.164a15.776,15.776,0,0,0-1.808,5.3l-2.532.593a2.141,2.141,0,0,0-1.92-1.345,2.089,2.089,0,0,0-1.517.6,2.2,2.2,0,0,0-.67,1.551l-.022,2.524a2.116,2.116,0,0,0,2.116,2.135,2.151,2.151,0,0,0,2.1-1.724Z" transform="translate(-776.429 1771.382)" fill="#787878"/>
        <path id="Trazado_19217" data-name="Trazado 19217" d="M1035.492,54.946a.654.654,0,1,0-.613-1.156,3.365,3.365,0,0,1-4.238-.522,2.812,2.812,0,0,1-.484-2.367,4.5,4.5,0,0,1,4.347-3.427,2.817,2.817,0,0,1,2.189,1.024,3.164,3.164,0,0,1-.025,3.625.655.655,0,0,0,1.116.685,4.452,4.452,0,0,0-.063-5.119,4.1,4.1,0,0,0-3.18-1.523,5.812,5.812,0,0,0-5.665,4.466,4.1,4.1,0,0,0,.738,3.447,4.174,4.174,0,0,0,3.332,1.518,5.451,5.451,0,0,0,2.547-.65Z" transform="translate(-778.53 1769.547)" fill="#787878"/>
        <path id="Trazado_19218" data-name="Trazado 19218" d="M1050.514,49.153a2.84,2.84,0,1,0-2.815,2.461A2.659,2.659,0,0,0,1050.514,49.153Zm-4.32,0A1.56,1.56,0,1,1,1047.7,50.3,1.367,1.367,0,0,1,1046.194,49.153Z" transform="translate(-780.853 1769.471)" fill="#787878"/>
        <path id="Trazado_19219" data-name="Trazado 19219" d="M1041.572,62.2a3.016,3.016,0,1,0-3.015,3.015A3.019,3.019,0,0,0,1041.572,62.2Zm-4.723,0a1.707,1.707,0,1,1,1.708,1.707A1.709,1.709,0,0,1,1036.849,62.2Z" transform="translate(-779.506 1767.67)" fill="#787878"/>
        <path id="Trazado_19220" data-name="Trazado 19220" d="M1051.767,60.877a2.345,2.345,0,1,0-2.345,2.346A2.348,2.348,0,0,0,1051.767,60.877Zm-3.381,0a1.036,1.036,0,1,1,1.036,1.036A1.037,1.037,0,0,1,1048.386,60.877Z" transform="translate(-781.169 1767.764)" fill="#787878"/>
        <path id="Trazado_19221" data-name="Trazado 19221" d="M1042.135,72.824a2.3,2.3,0,1,0-2.3-2.3A2.3,2.3,0,0,0,1042.135,72.824Zm0-3.287a.989.989,0,1,1-.989.989A.989.989,0,0,1,1042.135,69.536Z" transform="translate(-780.125 1766.366)" fill="#787878"/>
        <path id="Trazado_19222" data-name="Trazado 19222" d="M1030.105,68.287a2.367,2.367,0,1,0-2.366-2.367A2.37,2.37,0,0,0,1030.105,68.287Zm0-3.425a1.058,1.058,0,1,1-1.058,1.058A1.059,1.059,0,0,1,1030.105,64.862Z" transform="translate(-778.381 1767.04)" fill="#787878"/>
        <path id="Trazado_19223" data-name="Trazado 19223" d="M1045.758,56.638a.655.655,0,0,0-.655-.655h-.578a.655.655,0,0,0,0,1.309h.578A.655.655,0,0,0,1045.758,56.638Z" transform="translate(-780.707 1768.131)" fill="#787878"/>
        <path id="Trazado_19224" data-name="Trazado 19224" d="M1035.5,70.659h.595a.655.655,0,0,0,0-1.309h-.595a.655.655,0,1,0,0,1.309Z" transform="translate(-779.406 1766.204)" fill="#787878"/>
        <path id="Trazado_19225" data-name="Trazado 19225" d="M1028.966,59.523a.655.655,0,0,0,0-1.309h-.573a.655.655,0,0,0,0,1.309Z" transform="translate(-778.381 1767.81)" fill="#787878"/>
        <path id="Trazado_19226" data-name="Trazado 19226" d="M1042.51,46.144a.655.655,0,0,0,0-1.309h-.8a.655.655,0,0,0,0,1.309Z" transform="translate(-780.301 1769.738)" fill="#787878"/>
        <path id="Trazado_19227" data-name="Trazado 19227" d="M1047.732,66.861a.654.654,0,1,0,0,1.309h.88a.654.654,0,0,0,0-1.309Z" transform="translate(-781.169 1766.563)" fill="#787878"/>
      </g>
    </g>
  </g>
</svg>
