<svg xmlns="http://www.w3.org/2000/svg" width="81.721" height="81.721" viewBox="0 0 81.721 81.721">
  <g id="Grupo_13221" data-name="Grupo 13221" transform="translate(-223 -1998)">
    <g id="Grupo_13217" data-name="Grupo 13217">
      <circle id="Elipse_771" data-name="Elipse 771" cx="39.361" cy="39.361" r="39.361" transform="translate(224.5 1999.5)" fill="#fff" stroke="#e69d4d" stroke-width="3"/>
      <g id="Grupo_13212" data-name="Grupo 13212" transform="translate(-2.291 1.08)">
        <path id="Trazado_19236" data-name="Trazado 19236" d="M1053.12,247.259a3.787,3.787,0,0,0-1.931.527,3.811,3.811,0,0,0-5.721-2.861,3.813,3.813,0,0,0-7.579,0,3.812,3.812,0,0,0-5.746,3.287V272.4c-1.988-2.335-4.42-5.006-4.677-5.287a3.814,3.814,0,0,0-5.882,4.856c1.941,2.365,3.643,4.688,5.146,6.737,3.859,5.26,6.906,9.414,11.333,11a.954.954,0,0,0,.644-1.8c-3.879-1.39-6.774-5.338-10.439-10.335-1.518-2.069-3.237-4.413-5.21-6.818a1.883,1.883,0,0,1-.432-1.206,1.907,1.907,0,0,1,3.382-1.21.35.35,0,0,0,.033.039c.044.048,4.185,4.586,6.141,7.06a.954.954,0,0,0,.914.682l.051,0,.045,0,2.862-.033h.074a6.219,6.219,0,0,1,6.2,6.124.953.953,0,0,0,.953.942h.011a.952.952,0,0,0,.942-.964,8.1,8.1,0,0,0-8.1-8.008h-.1l-1.98.024V248.213a1.907,1.907,0,1,1,3.814,0v15.446a.953.953,0,1,0,1.906,0V245.352a1.907,1.907,0,0,1,3.814,0v18.307a.954.954,0,0,0,1.907,0V248.213a1.906,1.906,0,1,1,3.813,0v15.446a.954.954,0,0,0,1.907,0V251.072a1.907,1.907,0,0,1,3.814,0V276.53a11.857,11.857,0,0,1-8.419,11.4.953.953,0,0,0,.279,1.865.977.977,0,0,0,.28-.042,13.94,13.94,0,0,0,7-4.926,13.706,13.706,0,0,0,2.763-8.294V251.072a3.818,3.818,0,0,0-3.814-3.813Z" transform="translate(-776.429 1771.382)" fill="#787878"/>
        <circle id="Elipse_727" data-name="Elipse 727" cx="0.953" cy="0.953" r="0.953" transform="translate(265.252 2059.836)" fill="#787878"/>
        <path id="Trazado_19237" data-name="Trazado 19237" d="M1052.557,271.487a.954.954,0,0,0-.954-.953h-11.441a.953.953,0,1,0,0,1.907H1051.6A.954.954,0,0,0,1052.557,271.487Z" transform="translate(-777.773 1769.274)" fill="#787878"/>
      </g>
    </g>
  </g>
</svg>
