<?xml version="1.0" encoding="utf-8"?>
<!-- Generator: Adobe Illustrator 24.1.3, SVG Export Plug-In . SVG Version: 6.00 Build 0)  -->
<svg version="1.1" id="Capa_1" xmlns="http://www.w3.org/2000/svg" xmlns:xlink="http://www.w3.org/1999/xlink" x="0px" y="0px"
	 viewBox="0 0 440.7 440.7" style="enable-background:new 0 0 440.7 440.7;" xml:space="preserve">
<style type="text/css">
	.st0{fill:none;stroke:#ADADAD;stroke-width:17;stroke-miterlimit:10;}
	.st1{fill:#ADADAD;}
</style>
<g>
	<circle class="st0" cx="220.4" cy="220.4" r="211.9"/>
	<g>
		<g>
			<path class="st1" d="M336.5,254.5l-18.8-47.1l18.8-47.1c0.9-2.3,0.6-4.9-0.8-7c-1.4-2.1-3.7-3.3-6.2-3.3h-87.2v-17.4
				c0-4.1-3.3-7.5-7.5-7.5h-92.2v-13c0-4.1-3.3-7.5-7.5-7.5c-4.1,0-7.5,3.3-7.5,7.5c0,31.3,0,213.7,0,240.2c0,4.1,3.3,7.5,7.5,7.5
				c4.1,0,7.5-3.3,7.5-7.5V239.8h59.8v17.4c0,4.1,3.3,7.5,7.5,7.5h119.6c2.5,0,4.8-1.2,6.2-3.3C337.1,259.4,337.4,256.8,336.5,254.5
				z M227.4,224.9c-8.6,0-75.5,0-84.7,0v-84.7h84.7C227.4,148.7,227.4,215.7,227.4,224.9z M228,249.8l12.2-12.2
				c1.4-1.4,2.2-3.4,2.2-5.3v-67.3h76.2l-15.8,39.6c-0.7,1.8-0.7,3.8,0,5.6l15.8,39.6H228z"/>
		</g>
	</g>
</g>
</svg>
