<svg xmlns="http://www.w3.org/2000/svg" width="161.938" height="161.94" viewBox="0 0 161.938 161.94">
  <g id="Fill_out_line" data-name="Fill out line" transform="translate(-16 -15.991)">
    <path id="Trazado_19312" data-name="Trazado 19312" d="M192.775,85.887a8.293,8.293,0,0,1-8.286,8.286h-48.2a8.281,8.281,0,0,1-7.928-10.688,8.174,8.174,0,0,1,1.036-2.2,23.841,23.841,0,0,0,4-13.232V50.99a26.99,26.99,0,1,1,53.979,0V68.057a23.856,23.856,0,0,0,4,13.232A8.322,8.322,0,0,1,192.775,85.887Z" transform="translate(-74.215 -5.307)" fill="#2f4054"/>
    <path id="Trazado_19313" data-name="Trazado 19313" d="M172.532,224.524l-19.088,5.455v21.592H83.27V229.979l-18.7-5.344,4-12.527a32.517,32.517,0,0,1,30.971-22.614h.55A13.5,13.5,0,0,0,113.59,176h10.8a13.482,13.482,0,0,0,13.469,13.495h.025a32.516,32.516,0,0,1,31.18,23.292Z" transform="translate(-32.184 -106.027)" fill="#8acce7"/>
    <path id="Trazado_19314" data-name="Trazado 19314" d="M87.266,347.1a8.1,8.1,0,0,1-8.1,8.1H59.655a13.494,13.494,0,0,1-12.9-17.462l5.614-17.57,18.7,5.344V339h8.1A8.1,8.1,0,0,1,87.266,347.1Z" transform="translate(-19.986 -201.551)" fill="#f4ceaf"/>
    <path id="Trazado_19315" data-name="Trazado 19315" d="M297.008,354.974H272.1a8.1,8.1,0,0,1,0-16.194h13.495V325.285l19.088-5.455,5.226,17.682a13.493,13.493,0,0,1-12.9,17.462Z" transform="translate(-164.332 -201.333)" fill="#f4ceaf"/>
    <path id="Trazado_19316" data-name="Trazado 19316" d="M210.8,188.412l-1.629,2.443a15.127,15.127,0,0,1-25.175,0L182.62,188.8a13.509,13.509,0,0,0,5.239-3.256c.088-.088.172-.175.26-.267A13.456,13.456,0,0,0,191.813,176h10.8a13.43,13.43,0,0,0,3.36,8.907c.192.219.388.428.594.634A13.532,13.532,0,0,0,210.8,188.412Z" transform="translate(-110.407 -106.027)" fill="#f4ceaf"/>
    <path id="Trazado_19317" data-name="Trazado 19317" d="M157.592,112.194H141.4a5.4,5.4,0,0,1-5.4-5.4v-5.4a5.4,5.4,0,0,1,5.4-5.4h0a5.4,5.4,0,0,1,5.4,5.4Z" transform="translate(-79.516 -53.016)" fill="#f2c194"/>
    <path id="Trazado_19318" data-name="Trazado 19318" d="M274.8,112.194H264l5.4-10.8a5.4,5.4,0,0,1,5.4-5.4h0a5.4,5.4,0,0,1,5.4,5.4v5.4A5.4,5.4,0,0,1,274.8,112.194Z" transform="translate(-164.332 -53.016)" fill="#f2c194"/>
    <path id="Trazado_19319" data-name="Trazado 19319" d="M216.77,184.907a24.279,24.279,0,0,1-17.85.368A13.456,13.456,0,0,0,202.614,176h10.8A13.43,13.43,0,0,0,216.77,184.907Z" transform="translate(-121.208 -106.027)" fill="#f2c194"/>
    <path id="Trazado_19320" data-name="Trazado 19320" d="M205.785,76.8v9.47a18.893,18.893,0,1,1-37.785,0V76.8a4.02,4.02,0,0,1,4.015-4.025h.01a8.5,8.5,0,0,0,8.293-6.6,6.749,6.749,0,0,1,13.151,0,8.5,8.5,0,0,0,8.293,6.6,4.024,4.024,0,0,1,4.025,4.024Z" transform="translate(-100.72 -29.788)" fill="#f4ceaf"/>
    <path id="Trazado_19321" data-name="Trazado 19321" d="M267.668,250.8v35.086H235.28V261.592H202.893L201.425,266a5.4,5.4,0,0,1-5.121,3.691H189.4a5.4,5.4,0,0,1-5.4-5.395V250.8A10.8,10.8,0,0,1,194.8,240h62.076A10.8,10.8,0,0,1,267.668,250.8Z" transform="translate(-111.322 -148.435)" fill="#c4d4e0"/>
    <rect id="Rectángulo_3234" data-name="Rectángulo 3234" width="22" height="7" rx="3.5" transform="translate(115.898 83.991)" fill="#ad7d4d"/>
    <rect id="Rectángulo_3235" data-name="Rectángulo 3235" width="22" height="8" rx="4" transform="translate(115.898 64.991)" fill="#ad7d4d"/>
    <rect id="Rectángulo_3236" data-name="Rectángulo 3236" width="11" height="11" transform="translate(120.898 72.991)" fill="#008051"/>
    <ellipse id="Elipse_756" data-name="Elipse 756" cx="5.5" cy="6" rx="5.5" ry="6" transform="translate(134.898 106.991)" fill="#a6b2bc"/>
    <rect id="Rectángulo_3237" data-name="Rectángulo 3237" width="12" height="19" rx="6" transform="translate(155.898 99.991)" fill="#a6b2bc"/>
    <rect id="Rectángulo_3238" data-name="Rectángulo 3238" width="97" height="16" rx="8" transform="translate(67.898 137.991)" fill="#a6b2bc"/>
    <path id="Trazado_19322" data-name="Trazado 19322" d="M214.894,399.038a9.549,9.549,0,0,1,2.409,9.446H184.912a9.534,9.534,0,0,0-2.405-9.446,9.538,9.538,0,0,1-.006-13.488l.006-.006a9.538,9.538,0,0,0,.006-13.488l-.006-.006A9.486,9.486,0,0,1,180.1,368h32.388a9.486,9.486,0,0,0,2.405,4.048,9.537,9.537,0,0,1,.007,13.488l-.007.007a9.537,9.537,0,0,0-.007,13.488Z" transform="translate(-108.479 -233.252)" fill="#349966"/>
    <circle id="Elipse_757" data-name="Elipse 757" cx="3" cy="3" r="3" transform="translate(74.898 47.991)"/>
    <circle id="Elipse_758" data-name="Elipse 758" cx="3" cy="3" r="3" transform="translate(90.898 47.991)"/>
    <path id="Trazado_19323" data-name="Trazado 19323" d="M368.1,296.194a8.1,8.1,0,1,0-8.1-8.1A8.1,8.1,0,0,0,368.1,296.194Zm0-10.8a2.7,2.7,0,1,1-2.7,2.7A2.7,2.7,0,0,1,368.1,285.4Z" transform="translate(-227.945 -174.94)"/>
    <path id="Trazado_19324" data-name="Trazado 19324" d="M167.142,145.544v-5.4a5.4,5.4,0,0,0-5.4-5.4h-2.7V121.254h5.4a5.4,5.4,0,0,0,5.4-5.4V102.361a5.4,5.4,0,0,0-5.4-5.4h-5.4a5.413,5.413,0,0,0-1.081.109,13.514,13.514,0,0,0-12.414-8.206h-5.534a6.75,6.75,0,0,0-5.262-7.961v-5.67A6.748,6.748,0,0,0,133.4,61.876H119.91a6.7,6.7,0,0,0-4.04,1.356c0-.16-.009-.321-.009-.481V59.808a8.078,8.078,0,0,0,2.7-6.028v-5.4a8.082,8.082,0,0,0-2.907-6.209,29.689,29.689,0,0,0-58.961,0,8.082,8.082,0,0,0-2.907,6.209v5.4a8.078,8.078,0,0,0,2.7,6.028v2.943a21.085,21.085,0,0,1-3.553,11.734,10.981,10.981,0,0,0-1.162,9.9,35.1,35.1,0,0,0-17.949,20.871l-9.629,30.123a16.05,16.05,0,0,0,.2,10.16H16v5.4H27.605a16.017,16.017,0,0,0,12.064,5.4H59.183a10.739,10.739,0,0,0,6.481-2.168,5.4,5.4,0,0,0,3.195,2.05,12.319,12.319,0,0,0-.327,2.817,12.164,12.164,0,0,0,3.587,8.656,6.842,6.842,0,0,1,1.725,6.775,2.7,2.7,0,0,0,2.589,3.461h32.391A2.7,2.7,0,0,0,111.412,176a12.249,12.249,0,0,0-3.088-12.121,6.836,6.836,0,0,1-1.451-7.538h54.871a5.4,5.4,0,0,0,5.4-5.4h10.8v-5.4Zm-2.7-43.183v13.495h-5.4V102.361Zm-10.8,0v32.387h-26.99V113.157a2.7,2.7,0,0,0-2.7-2.7H95.315l1.515-4.544-5.121-1.707-4.168,12.5a2.7,2.7,0,0,1-2.561,1.846H78.076a2.7,2.7,0,0,1-2.7-2.7V102.361a8.106,8.106,0,0,1,8.1-8.1H145.55A8.106,8.106,0,0,1,153.647,102.361Zm-46.773,32.387a6.727,6.727,0,0,1-.275-.759,2.7,2.7,0,0,0-2.59-1.94H83.474v-8.1h1.507a8.087,8.087,0,0,0,7.681-5.537l.854-2.56h27.743v18.893ZM64.581,53.78v2.7h-2.7a2.7,2.7,0,0,1-2.7-2.7v-5.4a2.7,2.7,0,1,1,5.4,0,2.7,2.7,0,1,0,5.4,0V47.01a1.328,1.328,0,0,1,1.327-1.327,11.157,11.157,0,0,0,10.922-8.689,4.049,4.049,0,0,1,7.89,0,11.157,11.157,0,0,0,10.922,8.689,1.329,1.329,0,0,1,1.327,1.327v1.372a2.7,2.7,0,0,0,5.4,0,2.7,2.7,0,1,1,5.4,0v5.4a2.7,2.7,0,0,1-2.7,2.7h-2.7v-2.7h-5.4v2.7a16.194,16.194,0,1,1-32.388,0v-2.7ZM82.15,77.689a21.381,21.381,0,0,0,7.992.009,16.239,16.239,0,0,0,5.973,6.195,12.424,12.424,0,0,1-19.9-.025A16.237,16.237,0,0,0,82.15,77.689ZM113.3,88.866H98.954a17.905,17.905,0,0,0,2.053-2.541l.3-.453a16.108,16.108,0,0,0,3.067.3h.549a29.715,29.715,0,0,1,8.246,1.166c0,.062-.009.122-.009.184A6.765,6.765,0,0,0,113.3,88.866Zm6.611,0a1.349,1.349,0,0,1,0-2.7H133.4a1.349,1.349,0,0,1,0,2.7Zm4.048-8.1v-5.4h5.4v5.4ZM119.91,67.274H133.4a1.349,1.349,0,0,1,0,2.7H119.91a1.349,1.349,0,0,1,0-2.7ZM114.923,77.48a5.569,5.569,0,0,1,.939,3.1h2.7v.326a6.727,6.727,0,0,0-3.041,1.5,35.083,35.083,0,0,0-10.594-1.635h-.549a10.829,10.829,0,0,1-8.962-4.781,21.685,21.685,0,0,0,11.667-14.111h3.382v.875A26.47,26.47,0,0,0,114.923,77.48ZM86.173,21.392a24.4,24.4,0,0,1,23.69,18.918,8.057,8.057,0,0,0-4.359,1.675,6.7,6.7,0,0,0-4.465-1.7,5.785,5.785,0,0,1-5.662-4.5,9.446,9.446,0,0,0-18.409,0,5.784,5.784,0,0,1-5.662,4.5,6.7,6.7,0,0,0-4.465,1.7,8.057,8.057,0,0,0-4.359-1.675A24.4,24.4,0,0,1,86.173,21.392ZM56.484,80.579a5.571,5.571,0,0,1,.939-3.1,26.468,26.468,0,0,0,4.459-14.728v-.875h3.382A21.686,21.686,0,0,0,76.886,75.968a10.83,10.83,0,0,1-8.976,4.8h-.549a35.387,35.387,0,0,0-10.58,1.616A5.582,5.582,0,0,1,56.484,80.579Zm10.877,5.588h.549a16.116,16.116,0,0,0,3.12-.3l.309.463a17.834,17.834,0,0,0,4.7,4.781,13.491,13.491,0,0,0-6.062,11.255v13.495a8.106,8.106,0,0,0,8.1,8.1v8.1H71.622a2.7,2.7,0,0,0-2.7,2.694q0,.055,0,.109a5.4,5.4,0,0,0-3.262,2.063,10.739,10.739,0,0,0-6.481-2.168h-5.4V115.856h-5.4v4.519L35.806,116.78l3.156-9.875A29.718,29.718,0,0,1,67.362,86.167Zm-8.178,64.775H39.669A10.8,10.8,0,0,1,29.342,137l4.819-15.076,14.227,4.065v8.76H34.893v5.4H59.183a5.4,5.4,0,0,1,0,10.8Zm10.8,0v-10.8h1.615q.253.287.525.559a6.839,6.839,0,0,1,.006,9.671l-.006.006c-.181.181-.354.369-.522.559Zm5.957,12.936a6.838,6.838,0,0,1-.006-9.671l.006-.006a12.237,12.237,0,0,0,.526-16.753h4.127a12.272,12.272,0,0,0,2.326,3.258,6.839,6.839,0,0,1,.006,9.671l-.006.006a12.236,12.236,0,0,0-.007,17.305l.007.007a6.843,6.843,0,0,1,2,4.839h-5.4A12.234,12.234,0,0,0,75.936,163.878Zm30.577,8.656h-16.2a12.236,12.236,0,0,0-3.583-8.656,6.838,6.838,0,0,1-.006-9.671l.006-.006a12.232,12.232,0,0,0,.522-16.753h14.922a12.279,12.279,0,0,0,2.331,3.258,6.839,6.839,0,0,1,.006,9.671l-.006.006a12.236,12.236,0,0,0-.007,17.305l.007.007A6.8,6.8,0,0,1,106.513,172.534Zm55.231-21.592H110.659a12.263,12.263,0,0,0,0-10.8h51.085Z" transform="translate(0 0)"/>
  </g>
</svg>
