<svg xmlns="http://www.w3.org/2000/svg" viewBox="0 0 101 100.89"><defs><style>.cls-1{fill:#999;}.cls-2{fill:#72cbf1;}.cls-3{fill:#a5d6a7;}.cls-4{fill:#b3b3b3;}.cls-5{fill:#fee57c;}.cls-6{fill:#f7b57e;}.cls-7{fill:#9ea2bb;}.cls-8{fill:#815850;}.cls-9{fill:#f7caa5;}.cls-10{fill:#ffde5c;}.cls-11{fill:#76768a;}</style></defs><title>Icono5</title><g id="Capa_2" data-name="Capa 2"><g id="Capa_1-2" data-name="Capa 1"><rect class="cls-1" x="37.91" y="81.34" width="25.06" height="14.31"/><rect class="cls-2" x="50.24" y="41.59" width="50.64" height="29.97"/><rect class="cls-3" x="50.24" y="11.63" width="50.64" height="29.97"/><path class="cls-4" d="M101,11.74H.11V3.44C.11,1.54,2.43,0,5.29,0H95.82C98.68,0,101,1.54,101,3.44v8.3Z"/><rect class="cls-5" x="0.11" y="11.74" width="50.13" height="59.71"/><path class="cls-4" d="M100.88,71.56H0v7.3A5.18,5.18,0,0,0,5.18,84H95.7a5.18,5.18,0,0,0,5.18-5.18Z"/><path class="cls-4" d="M73.7,100.89H27.19a1,1,0,0,1-1-1V96.58a4,4,0,0,1,4-4H70.67a4,4,0,0,1,4,4v3.29a1,1,0,0,1-1,1Z"/><path class="cls-6" d="M12.35,71.45V67.8a2.84,2.84,0,0,1,2-2.7L19,63.55a2.86,2.86,0,0,0,1.95-2.71V57.19h8.55v3.65a2.86,2.86,0,0,0,1.95,2.71l4.65,1.55a2.84,2.84,0,0,1,2,2.7v3.65Z"/><path class="cls-7" d="M14.3,65.1,19,63.55a3.23,3.23,0,0,0,.76-.4,7,7,0,0,0,10.93,0,3.23,3.23,0,0,0,.76.4l4.66,1.55A2.84,2.84,0,0,1,38,67.8v3.65H12.35V67.8a2.84,2.84,0,0,1,2-2.7Z"/><path class="cls-8" d="M25.18,30.11c-3.15,0-5.71,2.23-5.71,5s2.56,5,5.71,5,5.7-2.24,5.7-5-2.56-5-5.7-5Z"/><path class="cls-8" d="M25.18,34.39c-6.3,0-11.41,4.78-11.41,10.69s5.11,10.69,11.41,10.69S36.58,51,36.58,45.08s-5.11-10.69-11.4-10.69Z"/><path class="cls-9" d="M18,56.45l4.64,2.32a5.72,5.72,0,0,0,5.1,0l4.63-2.32a2.85,2.85,0,0,0,1.56-2.2l.86-6.92a1.41,1.41,0,0,0-1.32-1.6c-2.66-.17-8.2-.84-11.61-3.4A1.42,1.42,0,0,0,20,42.5l-4,4.23a1.39,1.39,0,0,0-.37,1.15l.79,6.37A2.85,2.85,0,0,0,18,56.45Z"/><path class="cls-10" d="M79.94,63.72H69.49A3.48,3.48,0,0,0,66,67.21v4.35H83.42V67.21a3.48,3.48,0,0,0-3.48-3.49Z"/><path class="cls-6" d="M74.71,66.33h0a2.61,2.61,0,0,1-2.61-2.61V61.11h5.22v2.61a2.61,2.61,0,0,1-2.61,2.61Z"/><path class="cls-9" d="M75,62.85h-.6a3.45,3.45,0,0,1-2.46-1l-1.44-1.44a3.45,3.45,0,0,1-1-2.46V52.4A3.48,3.48,0,0,1,73,48.92h3.48a3.48,3.48,0,0,1,3.49,3.48v5.53a3.49,3.49,0,0,1-1,2.46l-1.45,1.44a3.45,3.45,0,0,1-2.46,1Z"/><path class="cls-8" d="M76.45,48.92H73a3.48,3.48,0,0,0-3.48,3.48v1.75A37.17,37.17,0,0,0,79.94,52.4h0a3.48,3.48,0,0,0-3.49-3.48Z"/><path class="cls-11" d="M80.79,33.76H70.34a3.48,3.48,0,0,0-3.49,3.48v4.35H84.27V37.24a3.48,3.48,0,0,0-3.48-3.48Z"/><path class="cls-6" d="M75.56,36.37h0A2.61,2.61,0,0,1,73,33.76V31.14h5.22v2.62a2.61,2.61,0,0,1-2.61,2.61Z"/><path class="cls-9" d="M75.86,32.89h-.6a3.49,3.49,0,0,1-2.46-1l-1.44-1.45a3.45,3.45,0,0,1-1-2.46V22.44A3.48,3.48,0,0,1,73.82,19H77.3a3.49,3.49,0,0,1,3.49,3.49V28a3.49,3.49,0,0,1-1,2.46l-1.45,1.45a3.49,3.49,0,0,1-2.46,1Z"/><path class="cls-8" d="M77.3,19H73.82a3.48,3.48,0,0,0-3.48,3.49v1.74a9.49,9.49,0,0,1,4.37-2.07c1.86-.24,3.77,1.09,6.08.33h0A3.49,3.49,0,0,0,77.3,19Z"/></g></g></svg>