<svg xmlns="http://www.w3.org/2000/svg" viewBox="0 0 108.58 100.84"><defs><style>.cls-1{fill:#72cbf1;}.cls-2{fill:#a5d6a7;}.cls-3{fill:none;stroke:#e9b578;stroke-linecap:round;stroke-miterlimit:10;stroke-width:2px;stroke-dasharray:6.08 6.08;}.cls-4{fill:#fee57c;}.cls-5{fill:#fef0ae;}.cls-6{fill:#815850;}.cls-7{fill:#f7caa5;}.cls-8{fill:#fc5561;}.cls-9{fill:#80e0dc;}</style></defs><title>Icono3</title><g id="Capa_2" data-name="Capa 2"><g id="Capa_1-2" data-name="Capa 1"><path class="cls-1" d="M84.09,40.21A3.52,3.52,0,0,0,80.59,36a3.52,3.52,0,0,0-1.43.29c-.16.07-.31.16-.46.24a5.21,5.21,0,0,1-.68.32c-1.08.35-2.12-.23-3.22-.84a13.25,13.25,0,0,0-1.51-.75,10,10,0,0,0-2.91-.47,12,12,0,0,1-2.16-.25,3.91,3.91,0,0,1-2.48-1.79,1.85,1.85,0,0,1-.15-1.58,3.56,3.56,0,0,1,.59-.93,5.1,5.1,0,0,0,.57-.88A4.49,4.49,0,0,0,67,27.09a7.31,7.31,0,0,1,0-1.48,6.84,6.84,0,0,1,.93-2.18,5.71,5.71,0,0,0,1-2.71,5.49,5.49,0,0,0-.25-1.51c-.06-.23-.12-.47-.17-.7a5.61,5.61,0,0,1,.27-3l.09-.14a37.69,37.69,0,0,0-11.24-2.75h0Q56,12.5,54.29,12.5h0a38,38,0,0,0-9.7,1.26h-.06A37.59,37.59,0,0,0,38,16.16l.08.13a1.88,1.88,0,0,0,.7,1.28l2.78,2.22A1.55,1.55,0,0,1,42.17,21v3.16A1.86,1.86,0,0,0,44,26h1.3a1.56,1.56,0,0,1,1.55,1.55v1.5a1.57,1.57,0,0,1-.63,1.24L38.62,36a1.58,1.58,0,0,1-.92.3H33a1.87,1.87,0,0,0-1.87,1.87v3.11a1.88,1.88,0,0,0,.55,1.32l3.3,3.3a1.88,1.88,0,0,0,1.32.55H41A1.54,1.54,0,0,1,42.49,48v1.38a1.87,1.87,0,0,0,1.87,1.87H47.6a1.54,1.54,0,0,1,1.55,1.54A1.87,1.87,0,0,0,51,54.61h4.22a1.54,1.54,0,0,1,1.54,1.55v4.46a1.54,1.54,0,0,1-.57,1.2L49.84,67a1.85,1.85,0,0,0-.69,1.45V70.6a1.55,1.55,0,0,1-.49,1.13L46.27,74a1.85,1.85,0,0,0-.59,1.36V80.2a1.55,1.55,0,0,1-1.55,1.54H41.6a1.54,1.54,0,0,1-1.55-1.54V77.09a1.88,1.88,0,0,0-.18-.81L38.09,72.6a1.56,1.56,0,0,1-.15-.67v-7a1.87,1.87,0,0,0-.78-1.52l-6.7-4.82a1.56,1.56,0,0,1-.64-1.26V52.46a1.49,1.49,0,0,1,.19-.75l.36-.64a1.88,1.88,0,0,0-.32-2.23L24.16,43a1.56,1.56,0,0,1-.45-1.1V38.19a1.85,1.85,0,0,0-.61-1.38l-2.9-2.66-.13-.1A37.93,37.93,0,0,0,83.88,74.14h-.2a18.6,18.6,0,0,1-2.82-2.41,13.43,13.43,0,0,1-3.47-7.19c-.07-.47-.11-1-.15-1.42a15.74,15.74,0,0,0-.36-2.45,16.16,16.16,0,0,0-1.3-3.16,11.64,11.64,0,0,1-1.44-4.06,5.85,5.85,0,0,1,2.48-5.29A11.6,11.6,0,0,1,80,46.76a13.66,13.66,0,0,0,3.2-1.29,1.59,1.59,0,0,0,.65-.66,1.61,1.61,0,0,0-.15-1.25,4.23,4.23,0,0,1-.17-.5,3.28,3.28,0,0,1,.29-1.84,7.34,7.34,0,0,0,.31-1Z"/><path class="cls-2" d="M55.24,54.45H51a1.71,1.71,0,0,1-1.71-1.71,1.7,1.7,0,0,0-1.7-1.7H44.36a1.71,1.71,0,0,1-1.71-1.7V48a1.7,1.7,0,0,0-1.7-1.7H36.29a1.7,1.7,0,0,1-1.2-.5l-3.31-3.31a1.7,1.7,0,0,1-.5-1.2V38.13A1.72,1.72,0,0,1,33,36.42H37.7a1.77,1.77,0,0,0,1-.33l7.63-5.65A1.73,1.73,0,0,0,47,29.07v-1.5a1.72,1.72,0,0,0-1.71-1.71H44a1.7,1.7,0,0,1-1.7-1.7V21a1.71,1.71,0,0,0-.64-1.33l-2.78-2.23a1.68,1.68,0,0,1-.64-1.33V16A38,38,0,0,0,20,34.19l3,2.74a1.68,1.68,0,0,1,.56,1.26V41.9a1.74,1.74,0,0,0,.5,1.22L29.94,49a1.71,1.71,0,0,1,.29,2l-.36.64a1.71,1.71,0,0,0-.21.83v4.85a1.7,1.7,0,0,0,.71,1.39l6.7,4.82a1.74,1.74,0,0,1,.71,1.39v7a1.71,1.71,0,0,0,.17.74l1.77,3.68a1.74,1.74,0,0,1,.17.74V80.2a1.7,1.7,0,0,0,1.71,1.7h2.53a1.7,1.7,0,0,0,1.71-1.7V75.33a1.67,1.67,0,0,1,.54-1.24l2.39-2.24a1.68,1.68,0,0,0,.54-1.25V68.42a1.69,1.69,0,0,1,.63-1.32L56.31,62A1.72,1.72,0,0,0,57,60.62V56.16a1.71,1.71,0,0,0-1.71-1.71Z"/><path class="cls-2" d="M92.21,50.42A37.89,37.89,0,0,0,68.68,15.33a5.68,5.68,0,0,0-.33,3.21,10.79,10.79,0,0,1,.41,2.17c0,1.76-1.62,3.14-1.9,4.87-.2,1.23.27,2.56-.25,3.69-.31.65-.91,1.14-1.17,1.82-.6,1.6,1.08,3.2,2.74,3.58s3.46.12,5,.72,3.18,2.12,4.84,1.58a10.3,10.3,0,0,0,1.16-.56,3.43,3.43,0,0,1,3.5.45,3.47,3.47,0,0,1,1.21,3.32c-.21,1-.84,1.94-.61,2.92.14.56.55,1.12.33,1.65a1.35,1.35,0,0,1-.58.58c-2,1.26-4.61,1.35-6.55,2.69A6.1,6.1,0,0,0,74,53.47c.24,2.58,2.11,4.72,2.75,7.24a34.92,34.92,0,0,1,.5,3.85,13.64,13.64,0,0,0,3.51,7.28,19.25,19.25,0,0,0,3,2.51,37.79,37.79,0,0,0,8.5-23.93Z"/><circle class="cls-3" cx="54.29" cy="50.42" r="48.39"/><path class="cls-4" d="M108.58,82.09A18.75,18.75,0,1,1,89.84,63.35a18.74,18.74,0,0,1,18.74,18.74Z"/><path class="cls-5" d="M102.92,82.09A13.08,13.08,0,1,1,89.84,69a13.09,13.09,0,0,1,13.08,13.08Z"/><path class="cls-6" d="M91.12,69.17h-2.7a6.67,6.67,0,0,0-1.27.12c-.29.06-.58.13-.86.21a7,7,0,0,0-4.88,6.69v15.9A12.57,12.57,0,0,0,84,93.8H95.67a13.34,13.34,0,0,0,2.47-1.59v-16a7,7,0,0,0-7-7Z"/><path class="cls-7" d="M90,85.47h-.46a4.25,4.25,0,0,1-4.25-4.25V77a.49.49,0,0,1,.49-.49h8a.49.49,0,0,1,.49.49v4.22A4.25,4.25,0,0,1,90,85.47Z"/><path class="cls-8" d="M89.84,95.18a13,13,0,0,0,8.26-3v-.57a6.91,6.91,0,0,0-6.88-6.2H88.49a6.92,6.92,0,0,0-6.92,6.7v.08a13.09,13.09,0,0,0,8.27,2.94Z"/><path class="cls-4" d="M37.49,18.75A18.75,18.75,0,1,1,18.75,0,18.74,18.74,0,0,1,37.49,18.75Z"/><path class="cls-5" d="M31.83,18.75A13.09,13.09,0,1,1,18.75,5.66,13.08,13.08,0,0,1,31.83,18.75Z"/><path class="cls-9" d="M27.07,28.28l.25.37a13.11,13.11,0,0,1-16.86.24l.09-.11a6.91,6.91,0,0,1,6.91-6.71h.7l.36,0H19l.35,0h.88a6.9,6.9,0,0,1,6.87,6.21Z"/><path class="cls-6" d="M27.11,12.81v3a1.25,1.25,0,0,1-1.25,1.25H11.63a1.25,1.25,0,0,1-1.25-1.25v-3a7,7,0,0,1,4.93-6.7h0c.33-.1.67-.17,1-.24h0a7.45,7.45,0,0,1,1.06-.08H20.1a7.45,7.45,0,0,1,1.06.08c.35.07.69.14,1,.24h0a7,7,0,0,1,4.93,6.7Z"/><path class="cls-7" d="M23.22,17.05v.79a4.23,4.23,0,0,1-3.9,4.23H18.16a4.24,4.24,0,0,1-3.89-4.23V13.66a.53.53,0,0,1,.53-.53h7.89a.53.53,0,0,1,.53.53Z"/></g></g></svg>