<svg xmlns="http://www.w3.org/2000/svg" viewBox="0 0 90.4 100.84"><defs><style>.cls-1{fill:#f7b57e;}.cls-2{fill:#f6f7fc;}.cls-3{fill:#f7caa5;}.cls-4{fill:#c8d2d6;}.cls-5{fill:#7e86be;}.cls-6{fill:#5f658f;}.cls-7{fill:#815850;}.cls-8{fill:#724e4c;}</style></defs><title>Icono2</title><g id="Capa_2" data-name="Capa 2"><g id="Capa_1-2" data-name="Capa 1"><polygon class="cls-1" points="60.85 71.28 60.85 59.11 29.55 59.11 29.55 71.28 45.2 85.19 60.85 71.28 60.85 71.28"/><path class="cls-2" d="M85,77,63.53,71.91a3.15,3.15,0,0,1-.91-.36L45.2,81.71,28.46,71.06a3.46,3.46,0,0,1-1.59.85L5.36,77A6.94,6.94,0,0,0,0,83.74V97.36a3.48,3.48,0,0,0,3.48,3.48H86.92a3.48,3.48,0,0,0,3.48-3.48V83.74A6.94,6.94,0,0,0,85,77Z"/><path class="cls-3" d="M22.6,19.13l1.52,33.33a10.41,10.41,0,0,0,4.16,7.87l7.18,5.39a10.49,10.49,0,0,0,6.26,2.09h7a10.49,10.49,0,0,0,6.26-2.09l7.18-5.39a10.45,10.45,0,0,0,4.17-7.87L67.8,19.13Z"/><path class="cls-4" d="M12.76,89.55,1.5,79.44A6.88,6.88,0,0,0,0,83.75V97.36a3.48,3.48,0,0,0,3.48,3.48H15.65V96a8.69,8.69,0,0,0-2.89-6.47Z"/><path class="cls-4" d="M77.64,89.55,88.9,79.44a6.88,6.88,0,0,1,1.5,4.31V97.36a3.48,3.48,0,0,1-3.48,3.48H74.75V96a8.69,8.69,0,0,1,2.89-6.47Z"/><polygon class="cls-5" points="49.55 100.84 40.85 100.84 41.94 85.19 48.46 85.19 49.55 100.84 49.55 100.84"/><path class="cls-6" d="M49.55,81.71h-8.7V85a1.94,1.94,0,0,0,1.95,1.94h4.8A1.94,1.94,0,0,0,49.55,85V81.71Z"/><path class="cls-4" d="M29.31,67.41,45.2,81.71a60,60,0,0,0-9.94,6.78,2.24,2.24,0,0,1-3.46-.78L24.34,71.28l2.36-3.54a1.74,1.74,0,0,1,2.61-.33Z"/><path class="cls-4" d="M61.09,67.41,45.2,81.71a60,60,0,0,1,9.94,6.78,2.24,2.24,0,0,0,3.46-.78l7.46-16.43L63.7,67.74a1.74,1.74,0,0,0-2.61-.33Z"/><path class="cls-7" d="M55.74,7.61l1.63,11.52c7.44,1.49,8.51,13.16,8.67,16.5a3.36,3.36,0,0,0,.55,1.7l2.83,4.4s-1-7.28,3.48-12.17c0,0,1.53-28.9-17.16-21.95Z"/><path class="cls-3" d="M71.17,41l-2,7.85a2.1,2.1,0,0,1-2,1.58h0a2.09,2.09,0,0,1-2.08-1.83l-1-8a3.6,3.6,0,0,1,3.57-4.05h0A3.6,3.6,0,0,1,71.17,41Z"/><path class="cls-8" d="M24.27,4.5l2.57,1.75c-11.63,8.59-9.45,23.31-9.45,23.31,3.47,3.48,3.47,12.17,3.47,12.17l3.48-3.48s-1.34-10,5.21-13.91C35.64,20.76,41,22.61,46.4,22.61,61,22.61,65,17.12,64.32,10.44,64,7,58.67-.22,45.2,0,39.76.1,29.55,1.74,24.27,4.5Z"/><path class="cls-3" d="M19.23,41l2,7.85a2.08,2.08,0,0,0,2,1.58h0a2.09,2.09,0,0,0,2.08-1.83l1-8a3.6,3.6,0,0,0-3.57-4.05h0A3.61,3.61,0,0,0,19.23,41Z"/><path class="cls-4" d="M67.8,97.36H55.63a1.74,1.74,0,0,0-1.74,1.74v1.74H69.54V99.1a1.74,1.74,0,0,0-1.74-1.74Z"/></g></g></svg>