<svg xmlns="http://www.w3.org/2000/svg" viewBox="0 0 75.38 100.84"><defs><style>.cls-1{fill:#c8d2d6;}.cls-2{fill:#f6f7fc;}.cls-3{fill:#7e86be;}.cls-4{fill:#f7caa5;}.cls-5{fill:#f7b57e;}.cls-6{fill:#72cbf1;}.cls-7{fill:#fff;}.cls-8{fill:#ccc;}.cls-9{fill:#666;}.cls-10{fill:#a5d6a7;}.cls-11{fill:#fee57c;}</style></defs><title>Icono4</title><g id="Capa_2" data-name="Capa 2"><g id="Capa_1-2" data-name="Capa 1"><rect class="cls-1" x="31.91" y="81.72" width="41.73" height="19.12"/><path class="cls-2" d="M59.73,100.84H31.91V81.72H48.3A11.43,11.43,0,0,1,59.73,93.15Z"/><path class="cls-3" d="M52.77,91.28a4.35,4.35,0,1,1-4.35-4.35,4.35,4.35,0,0,1,4.35,4.35Z"/><path class="cls-4" d="M45.66,18.61a6.09,6.09,0,1,0-8-8Z"/><path class="cls-4" d="M54.35,27.3a6.08,6.08,0,1,0-8-8Z"/><path class="cls-4" d="M63,36a6.08,6.08,0,1,0-8-8Z"/><path class="cls-4" d="M71.74,44.69a6.09,6.09,0,1,0-8-8Z"/><path class="cls-5" d="M72.13,54.88,52.81,74.21a4,4,0,0,1-5.65,0L30.33,57.37H18.87c-1,.49-3.74-1.28-2.69-.37L35,75.72c.12.12.28.22.41.34v5.66H70.17V73.88a13,13,0,0,0,2-19Z"/><path class="cls-6" d="M32.07,5l-27,27,13.2,13.2c.21,0,.42-.06.64-.06H36.26a6.08,6.08,0,1,1,0,12.16H30.32L41.38,68.42l27-27Z"/><path class="cls-7" d="M32.07,5,28.22,1.17a4,4,0,0,0-5.65,0L1.17,22.57a4,4,0,0,0,0,5.65L5,32.07Z"/><path class="cls-7" d="M74.21,47.16l-5.79-5.78-27,27,5.78,5.79a4,4,0,0,0,5.65,0l21.4-21.4a4,4,0,0,0,0-5.65Z"/><path class="cls-8" d="M62.34,58.25a3.48,3.48,0,1,1-3.48-3.48,3.47,3.47,0,0,1,3.48,3.48Z"/><path class="cls-9" d="M14.53,19.13a1.74,1.74,0,0,1-1.24-3l3.49-3.48a1.74,1.74,0,1,1,2.45,2.46l-3.47,3.48a1.74,1.74,0,0,1-1.23.51Z"/><rect class="cls-10" x="21.89" y="23.92" width="20.49" height="25.29" transform="translate(-16.45 33.43) rotate(-45)"/><rect class="cls-11" x="36.09" y="29.32" width="20.49" height="19.07" transform="translate(-13.91 44.14) rotate(-45)"/><path class="cls-4" d="M36.26,57.37H18.87a6.08,6.08,0,0,1,0-12.16H36.26a6.08,6.08,0,1,1,0,12.16Z"/></g></g></svg>