<?xml version="1.0" encoding="utf-8"?>
<!-- Generator: Adobe Illustrator 24.2.1, SVG Export Plug-In . SVG Version: 6.00 Build 0)  -->
<svg version="1.1" id="Layer_1" xmlns="http://www.w3.org/2000/svg" xmlns:xlink="http://www.w3.org/1999/xlink" x="0px" y="0px"
	 viewBox="0 0 168.3 164.2" style="enable-background:new 0 0 168.3 164.2;" xml:space="preserve">
<style type="text/css">
	.st0{fill:#FF6B00;}
</style>
<path id="SENA_LOGO" class="st0" d="M84.6,0c-10,0-18.1,8.1-18.1,18.1s8.1,18.1,18.1,18.1s18.1-8.1,18.1-18.1l0,0l0,0
	C102.7,8.1,94.6,0,84.6,0z M24.9,42c-3.2-0.1-6.3,0.2-9.4,1c-1.9,0.4-3.7,1.3-5.1,2.6c-1.4,1.5-1.8,3.7-1,5.6
	c0.7,1.7,2.6,2.9,4.6,3.6c4.4,1.5,9.4,1.9,14,2.7c0.9,0.1,1.7,0.5,2.4,1c0.4,0.6,0.2,1.5-0.4,1.9c-0.1,0.1-0.2,0.1-0.3,0.2
	c-1.7,0.7-3.5,1-5.3,0.7c-1.6,0.1-3.2-0.2-4.6-1c-0.8-0.5-1.2-1.5-0.9-2.4H8.5c-0.1,1.6,0.4,3.3,1.4,4.6c1.1,1.2,2.6,2.1,4.3,2.4
	c2.8,0.8,5.7,1.1,8.5,1c3.9,0.1,7.8-0.1,11.6-0.9c2.2-0.4,4.2-1.4,5.8-2.9c2.1-2.1,2.1-5.5,0-7.6c-0.4-0.4-0.8-0.7-1.3-1
	c-1.8-1-3.8-1.7-5.8-2c-3.1-0.7-6-1-9-1.5c-1.1-0.1-2.1-0.4-3.1-0.9c-0.6-0.3-0.9-1-0.6-1.6c0.1-0.3,0.3-0.5,0.6-0.6
	c1.4-0.6,2.9-0.8,4.4-0.7c1.6-0.1,3.2,0.2,4.6,0.9c0.6,0.3,1,1,1,1.7h9.9c0-1.3-0.4-2.6-1.2-3.6c-1.3-1.4-2.9-2.3-4.8-2.7
	C31.2,42.2,28,42,24.9,42L24.9,42z M46.3,42.7v23.6h28.8v-5.1H56.8v-4.6H73v-4.9H56.8v-3.8h17.6v-5.1H46.3V42.7z M93.9,42.7H80.6
	v23.6h10.1v-16l13.8,15.9h13.8V42.7h-10.1v15.7L93.9,42.7z M136.4,42.7L120,66.2h10.6l2.6-4.3h16.4l2.4,4.3h11.8l-15.5-23.6h-11.9
	V42.7z M141.7,48.3l5.1,8.5h-10.4L141.7,48.3z M0,73l0.2,12.8l48.1-0.2c2.4,0.5,3.9,2,3.4,5.8L22,143.2l9.6,9L77.3,73H0z M91.6,73
	l45.1,78.8l9.9-8.9l-29.9-51.7c-0.5-3.6,0.9-5.3,3.4-5.8l48.1,0.2V73H91.6z M84.1,86.2l-42.3,72.4l11.3,5.5l28.2-47.6
	c0.8-0.8,1.8-1.2,2.9-1.2s2.2,0.4,3.1,1.2l28.2,47.8l11.6-6L84.1,86.2z"/>
</svg>
