<?xml version="1.0" encoding="utf-8"?>
<!-- Generator: Adobe Illustrator 24.2.1, SVG Export Plug-In . SVG Version: 6.00 Build 0)  -->
<svg version="1.1" id="Layer_1" xmlns="http://www.w3.org/2000/svg" xmlns:xlink="http://www.w3.org/1999/xlink" x="0px" y="0px"
	 viewBox="0 0 2400 1847.5" style="enable-background:new 0 0 2400 1847.5;" xml:space="preserve">
<style type="text/css">
	.st0{opacity:0.1;}
	.st1{fill:#FFFFFF;}
</style>
<g class="st0">
	<g>
		<g>
			<path class="st1" d="M1055,764.2c-13.3-10.7-27-12.5-30.9-12.8c-1.9-0.1-3.5,1.3-3.6,3.1c-0.1,1.9,1.3,3.5,3.1,3.6
				c3.4,0.3,15.4,1.8,27.2,11.3c13.4,10.8,21.7,27.9,24.6,50.8c0.2,1.7,1.7,3,3.4,3c0.1,0,0.3,0,0.4,0c1.9-0.2,3.2-1.9,2.9-3.8
				C1078.9,794.7,1069.8,776.2,1055,764.2z"/>
			<path class="st1" d="M1148.1,869.8c-2.9-3.5-5.6-6.3-7.9-8.8c-9.3-10-14.5-15.4-18.4-45.3c-0.2-1.9-2-3.2-3.8-2.9
				c-1.9,0.2-3.2,1.9-2.9,3.8c4.2,32,10.6,38.8,20.2,49c2.3,2.4,4.9,5.2,7.6,8.5c8.6,10.4,10.3,30.8,3.7,46.3
				c-3.7,8.9-11.6,19.7-27.6,21c-9.3,0.8-18,1.8-25.6,2.7c-17.3,2.1-31.3,3.8-44.7,1.6c1.1-9,0.8-18.3-0.5-27.4
				c19.8-4.6,31.6-2.6,43.9,2.1c0.4,0.2,0.8,0.2,1.2,0.2c1.4,0,2.7-0.8,3.2-2.2c0.7-1.7-0.2-3.7-2-4.4c-13.1-5-26.3-7.2-47.5-2.4
				c-1.5-7.2-3.7-14.4-6.4-21.2c17.3-13.9,25.4-15.9,38.2-16.8c1.9-0.1,3.3-1.8,3.1-3.6c-0.1-1.9-1.8-3.3-3.6-3.1
				c-14.1,1-23.6,3.8-40.4,17.1c-4-9-8.9-17.4-14.4-25c4.7-15.4,14.2-26.9,21.9-36.3l1-1.2c1.2-1.4,1-3.6-0.5-4.8
				c-1.4-1.2-3.6-1-4.8,0.5l-1,1.2c-7.4,8.9-16.3,19.7-21.7,34.1c-5.8-7.2-12.1-13.3-18.6-18.2c-2.2-1.6-4.3-3.1-6.5-4.4
				c1.2-7.7,3.7-16.1,7.6-25.1c0.7-1.7-0.1-3.7-1.8-4.4c-1.7-0.7-3.7,0.1-4.4,1.8c-3.8,8.7-6.3,16.7-7.7,24.4
				c-11.4-5.4-22.7-6.6-32.8-3.3c-0.3-2.7-0.7-5.5-1-8.2c-3.9-30.4-7.6-59.1,25.2-76.1c23.6-12.2,66.7-14.5,98,2.9
				c22,12.2,34.7,32.4,36.7,58.4c0.1,1.9,1.8,3.3,3.6,3.1c1.9-0.1,3.3-1.8,3.1-3.6c-2.2-28.3-16.1-50.4-40.1-63.8
				c-19.7-10.9-40.8-13.3-55.1-13.4c-0.3,0-0.5,0-0.8,0c-18.2,0-35.8,3.8-48.6,10.4c-16.6,8.6-26.4,20.9-29.8,37.5
				c-3,14.4-0.9,30.2,1,45.5c1.2,9.6,2.4,18.8,2.4,27.5c0,43,35.1,97.5,80.4,103.7c11,4.8,21.7,6.4,32.9,6.4
				c9.9,0,20.3-1.2,31.8-2.6c7.9-1,16.1-1.9,25.3-2.7c15.2-1.3,27-10.2,33.3-25.2C1160.5,905.1,1158.4,882.2,1148.1,869.8
				L1148.1,869.8z M977.8,904.9c-13.2-18.2-21.3-40.3-21.8-59.5c1.7-3.1,5.8-3.4,8-3.1c14.1,2.1,29.3,13.5,41.6,31.3
				c0.7,0.9,1.7,1.5,2.8,1.5c0.7,0,1.3-0.2,1.9-0.6c1.5-1.1,1.9-3.2,0.8-4.7c-13.6-19.6-30-31.7-46.2-34.1c-3-0.4-6.3-0.1-9.3,1.3
				c-0.1-2.2-0.3-4.5-0.5-6.7c12-4.5,26.4-1.2,40.7,9.6c26.8,20.2,50.8,64.3,46.2,104.6c-2.7-0.7-5.4-1.6-8.1-2.7
				c1.1-17.5-4.1-38.5-14.5-58.1c-0.9-1.7-2.9-2.3-4.6-1.4c-1.7,0.9-2.3,2.9-1.4,4.6c9.5,18.1,14.5,37.2,13.8,53.2
				C1009.2,936.3,991.7,924.1,977.8,904.9L977.8,904.9z"/>
		</g>
	</g>
	<g>
		<g>
			<path class="st1" d="M1501.2,1491.5c-14.9,8.4-21.6,20.5-23.3,24c-0.8,1.7-0.1,3.7,1.6,4.5c1.7,0.8,3.7,0.1,4.5-1.6
				c1.5-3.1,7.4-13.7,20.6-21.1c15-8.5,34-9.9,56.3-4.2c1.7,0.4,3.4-0.5,4-2c0.1-0.1,0.1-0.3,0.1-0.4c0.5-1.8-0.6-3.7-2.4-4.1
				C1538.4,1480.5,1517.8,1482.1,1501.2,1491.5z"/>
			<path class="st1" d="M1633.7,1443.9c-4.3,1.4-8,2.8-11.1,4.1c-12.7,5-19.7,7.8-48.9,0.4c-1.8-0.5-3.7,0.6-4.1,2.5
				c-0.5,1.8,0.6,3.7,2.5,4.1c31.3,7.9,39.9,4.5,53-0.7c3.1-1.2,6.6-2.6,10.7-3.9c12.9-4.2,32.4,1.8,44.4,13.6
				c6.9,6.7,14.1,18,9.4,33.4c-2.7,9-4.9,17.4-6.9,24.8c-4.5,16.9-8.1,30.5-15,42.2c-8-4.4-16.7-7.5-25.6-9.6
				c3-20.1,9.2-30.3,18.1-40c0.3-0.3,0.5-0.7,0.6-1c0.5-1.3,0.2-2.8-0.9-3.7c-1.4-1.3-3.5-1.2-4.8,0.2
				c-9.4,10.3-16.4,21.8-19.8,43.2c-7.3-1.3-14.7-1.9-22.1-1.9c-6.6-21.2-5.4-29.4-1.6-41.7c0.6-1.8-0.4-3.7-2.2-4.2
				c-1.8-0.6-3.7,0.4-4.2,2.2c-4.3,13.5-5.2,23.3,1,43.9c-9.8,0.4-19.5,1.9-28.5,4.1c-12.6-10-19.8-23.2-25.6-33.8l-0.8-1.4
				c-0.9-1.6-3-2.2-4.6-1.3c-1.6,0.9-2.2,3-1.3,4.6l0.7,1.4c5.6,10.1,12.3,22.4,23.7,32.7c-8.8,2.8-16.9,6.4-23.8,10.6
				c-2.3,1.4-4.5,2.9-6.5,4.4c-6.7-3.9-13.6-9.4-20.5-16.3c-1.3-1.3-3.5-1.3-4.8,0c-1.3,1.3-1.3,3.5,0,4.8
				c6.7,6.7,13.2,12,19.8,16.1c-9.3,8.6-14.5,18.6-15.2,29.3c-2.7-0.7-5.4-1.4-8-2.1c-29.7-7.6-57.7-14.7-61.5-51.5
				c-2.7-26.4,11.1-67.3,38.9-90c19.5-15.9,42.9-20.3,67.8-12.6c1.8,0.6,3.7-0.4,4.2-2.2c0.6-1.8-0.4-3.7-2.2-4.2
				c-27.1-8.4-52.8-3.7-74.1,13.8c-17.4,14.3-27.5,33-32.8,46.2c-0.1,0.2-0.2,0.5-0.3,0.7c-6.7,16.9-9.7,34.7-8.3,49
				c1.9,18.6,9.7,32.2,23.9,41.6c12.3,8.1,27.7,12,42.6,15.8c9.4,2.4,18.3,4.7,26.4,7.9c39.9,15.9,103.5,3.4,126.1-36.4
				c8.6-8.5,14-17.8,18.1-28.2c3.7-9.2,6.3-19.3,9.3-30.6c2-7.7,4.1-15.7,6.8-24.5c4.4-14.6,0.5-28.9-11.1-40.2
				C1671.1,1445.5,1649,1438.9,1633.7,1443.9L1633.7,1443.9z M1603.5,1615.2c-21.8,5.6-45.3,4.9-63.4-1.7c-2.2-2.8-1-6.7,0.1-8.6
				c7.2-12.3,23.4-22.2,44.4-27.1c1.1-0.3,2-1.1,2.4-2.1c0.2-0.6,0.3-1.3,0.1-2c-0.4-1.8-2.2-3-4.1-2.5
				c-23.2,5.4-40.5,16.2-48.7,30.3c-1.5,2.6-2.4,5.9-2.2,9.1c-2.1-0.7-4.3-1.4-6.5-2c0.2-12.8,8.6-25,24-34.3
				c28.6-17.5,78.5-23.5,114.3-4.3c-1.7,2.2-3.5,4.4-5.5,6.5c-15.8-7.5-37.3-10.4-59.4-8c-1.9,0.2-3.2,1.9-3,3.7
				c0.2,1.9,1.9,3.2,3.7,3c20.3-2.2,39.9,0.3,54.5,6.8C1644.3,1597.6,1626.4,1609.3,1603.5,1615.2L1603.5,1615.2z"/>
		</g>
	</g>
	<g>
		<g>
			<path class="st1" d="M1508.5,232.2c-7.2,4.1-10.4,9.9-11.3,11.6c-0.4,0.8-0.1,1.8,0.8,2.2c0.8,0.4,1.8,0.1,2.2-0.8
				c0.7-1.5,3.6-6.6,9.9-10.2c7.3-4.1,16.4-4.8,27.2-2c0.8,0.2,1.6-0.2,1.9-1c0-0.1,0-0.1,0.1-0.2c0.2-0.9-0.3-1.8-1.2-2
				C1526.5,226.9,1516.5,227.7,1508.5,232.2z"/>
			<path class="st1" d="M1572.5,209.2c-2.1,0.7-3.8,1.4-5.4,2c-6.1,2.4-9.5,3.8-23.6,0.2c-0.9-0.2-1.8,0.3-2,1.2
				c-0.2,0.9,0.3,1.8,1.2,2c15.1,3.8,19.3,2.2,25.6-0.3c1.5-0.6,3.2-1.3,5.2-1.9c6.2-2,15.7,0.9,21.5,6.6c3.3,3.3,6.8,8.7,4.5,16.2
				c-1.3,4.3-2.4,8.4-3.3,12c-2.2,8.2-3.9,14.7-7.3,20.4c-3.9-2.1-8.1-3.6-12.4-4.7c1.5-9.7,4.5-14.7,8.8-19.4
				c0.1-0.2,0.2-0.3,0.3-0.5c0.2-0.6,0.1-1.3-0.4-1.8c-0.7-0.6-1.7-0.6-2.3,0.1c-4.6,5-7.9,10.5-9.5,20.9c-3.5-0.6-7.1-0.9-10.7-0.9
				c-3.2-10.2-2.6-14.2-0.7-20.1c0.3-0.9-0.2-1.8-1.1-2.1c-0.9-0.3-1.8,0.2-2.1,1.1c-2.1,6.5-2.5,11.3,0.5,21.2
				c-4.7,0.2-9.4,0.9-13.8,2c-6.1-4.8-9.6-11.2-12.4-16.3l-0.4-0.7c-0.4-0.8-1.4-1.1-2.2-0.6c-0.8,0.4-1.1,1.4-0.6,2.2l0.4,0.7
				c2.7,4.9,6,10.8,11.5,15.8c-4.3,1.3-8.2,3.1-11.5,5.1c-1.1,0.7-2.2,1.4-3.1,2.1c-3.2-1.9-6.6-4.6-9.9-7.9c-0.6-0.6-1.7-0.6-2.3,0
				c-0.6,0.6-0.6,1.7,0,2.3c3.3,3.3,6.4,5.8,9.6,7.8c-4.5,4.2-7,9-7.3,14.1c-1.3-0.3-2.6-0.7-3.9-1c-14.3-3.7-27.9-7.1-29.7-24.9
				c-1.3-12.8,5.4-32.5,18.8-43.5c9.4-7.7,20.7-9.8,32.8-6.1c0.9,0.3,1.8-0.2,2-1.1c0.3-0.9-0.2-1.8-1.1-2
				c-13.1-4.1-25.5-1.8-35.8,6.7c-8.4,6.9-13.3,16-15.9,22.3c0,0.1-0.1,0.2-0.1,0.3c-3.2,8.2-4.7,16.8-4,23.7
				c0.9,9,4.7,15.6,11.5,20.1c5.9,3.9,13.4,5.8,20.6,7.6c4.6,1.2,8.9,2.3,12.8,3.8c19.3,7.7,50,1.6,60.9-17.6
				c4.1-4.1,6.8-8.6,8.8-13.6c1.8-4.5,3.1-9.3,4.5-14.8c1-3.7,2-7.6,3.3-11.9c2.1-7,0.2-13.9-5.4-19.4
				C1590.6,209.9,1579.9,206.8,1572.5,209.2L1572.5,209.2z M1557.9,292c-10.5,2.7-21.9,2.4-30.6-0.8c-1.1-1.3-0.5-3.2,0-4.2
				c3.5-6,11.3-10.7,21.5-13.1c0.5-0.1,1-0.5,1.1-1c0.1-0.3,0.2-0.6,0.1-1c-0.2-0.9-1.1-1.4-2-1.2c-11.2,2.6-19.6,7.8-23.6,14.7
				c-0.7,1.3-1.2,2.8-1.1,4.4c-1-0.3-2.1-0.7-3.1-1c0.1-6.2,4.2-12.1,11.6-16.6c13.8-8.5,37.9-11.4,55.2-2.1
				c-0.8,1.1-1.7,2.1-2.7,3.1c-7.7-3.6-18-5-28.7-3.9c-0.9,0.1-1.5,0.9-1.5,1.8c0.1,0.9,0.9,1.5,1.8,1.5c9.8-1.1,19.3,0.1,26.4,3.3
				C1577.6,283.5,1569,289.1,1557.9,292L1557.9,292z"/>
		</g>
	</g>
	<g>
		<g>
			<path class="st1" d="M118.3,1039.2c-7.2,4.1-10.4,9.9-11.3,11.6c-0.4,0.8-0.1,1.8,0.8,2.2c0.8,0.4,1.8,0.1,2.2-0.8
				c0.7-1.5,3.6-6.6,9.9-10.2c7.3-4.1,16.4-4.8,27.2-2c0.8,0.2,1.6-0.2,1.9-1c0-0.1,0-0.1,0.1-0.2c0.2-0.9-0.3-1.8-1.2-2
				C136.3,1033.9,126.4,1034.7,118.3,1039.2z"/>
			<path class="st1" d="M182.4,1016.2c-2.1,0.7-3.8,1.4-5.4,2c-6.1,2.4-9.5,3.8-23.6,0.2c-0.9-0.2-1.8,0.3-2,1.2
				c-0.2,0.9,0.3,1.8,1.2,2c15.1,3.8,19.3,2.2,25.6-0.3c1.5-0.6,3.2-1.3,5.2-1.9c6.2-2,15.7,0.9,21.5,6.6c3.3,3.3,6.8,8.7,4.5,16.2
				c-1.3,4.3-2.4,8.4-3.3,12c-2.2,8.2-3.9,14.7-7.3,20.4c-3.9-2.1-8.1-3.6-12.4-4.7c1.5-9.7,4.5-14.7,8.8-19.4
				c0.1-0.2,0.2-0.3,0.3-0.5c0.2-0.6,0.1-1.3-0.4-1.8c-0.7-0.6-1.7-0.6-2.3,0.1c-4.6,5-7.9,10.5-9.5,20.9c-3.5-0.6-7.1-0.9-10.7-0.9
				c-3.2-10.2-2.6-14.2-0.7-20.1c0.3-0.9-0.2-1.8-1.1-2.1c-0.9-0.3-1.8,0.2-2.1,1.1c-2.1,6.5-2.5,11.3,0.5,21.2
				c-4.7,0.2-9.4,0.9-13.8,2c-6.1-4.8-9.6-11.2-12.4-16.3l-0.4-0.7c-0.4-0.8-1.4-1.1-2.2-0.6c-0.8,0.4-1.1,1.4-0.6,2.2l0.4,0.7
				c2.7,4.9,6,10.8,11.5,15.8c-4.3,1.3-8.2,3.1-11.5,5.1c-1.1,0.7-2.2,1.4-3.1,2.1c-3.2-1.9-6.6-4.6-9.9-7.9c-0.6-0.6-1.7-0.6-2.3,0
				c-0.6,0.6-0.6,1.7,0,2.3c3.3,3.3,6.4,5.8,9.6,7.8c-4.5,4.2-7,9-7.3,14.1c-1.3-0.3-2.6-0.7-3.9-1c-14.3-3.7-27.9-7.1-29.7-24.9
				c-1.3-12.8,5.4-32.5,18.8-43.5c9.4-7.7,20.7-9.8,32.8-6.1c0.9,0.3,1.8-0.2,2-1.1c0.3-0.9-0.2-1.8-1.1-2
				c-13.1-4.1-25.5-1.8-35.8,6.7c-8.4,6.9-13.3,16-15.9,22.3c0,0.1-0.1,0.2-0.1,0.3c-3.2,8.2-4.7,16.8-4,23.7
				c0.9,9,4.7,15.6,11.5,20.1c5.9,3.9,13.4,5.8,20.6,7.6c4.6,1.2,8.9,2.3,12.8,3.8c19.3,7.7,50,1.6,60.9-17.6
				c4.1-4.1,6.8-8.6,8.8-13.6c1.8-4.5,3.1-9.3,4.5-14.8c1-3.7,2-7.6,3.3-11.9c2.1-7,0.2-13.9-5.4-19.4
				C200.4,1017,189.8,1013.8,182.4,1016.2L182.4,1016.2z M167.8,1099c-10.5,2.7-21.9,2.4-30.6-0.8c-1.1-1.3-0.5-3.2,0-4.2
				c3.5-6,11.3-10.7,21.5-13.1c0.5-0.1,1-0.5,1.1-1c0.1-0.3,0.2-0.6,0.1-1c-0.2-0.9-1.1-1.4-2-1.2c-11.2,2.6-19.6,7.8-23.6,14.7
				c-0.7,1.3-1.2,2.8-1.1,4.4c-1-0.3-2.1-0.7-3.1-1c0.1-6.2,4.2-12.1,11.6-16.6c13.8-8.5,37.9-11.4,55.2-2.1
				c-0.8,1.1-1.7,2.1-2.7,3.1c-7.7-3.6-18-5-28.7-3.9c-0.9,0.1-1.5,0.9-1.5,1.8c0.1,0.9,0.9,1.5,1.8,1.5c9.8-1.1,19.3,0.1,26.4,3.3
				C187.5,1090.5,178.9,1096.2,167.8,1099L167.8,1099z"/>
		</g>
	</g>
	<g>
		<g>
			<path class="st1" d="M218.5,184.9c3.9-9.8,2.3-24.6-3.6-33.6c-3.8-5.7-8-7.1-10.9-7.2c0,0,0,0,0,0c-5.6-0.2-10.3,2-13.7,6.3
				c-7.1,9.3-5.9,25.5-3.5,33.6c2,6.6,4.5,13.3,7,18.2c2.9,5.9,5.5,8.9,8.2,9.8c0.6,0.2,1.1,0.2,1.7,0.2c1.3,0,4.4-0.6,5.6-5.4
				c1.2-4.8,2.9-8.2,4.8-12.1C215.5,191.9,217,188.8,218.5,184.9L218.5,184.9z M211.3,182c-1.4,3.6-2.8,6.5-4.1,9.2
				c-1.7,3.4-3.2,6.6-4.5,10.8c-2.3-3.7-5.5-10.9-8.3-20.2c-2.2-7.1-2.6-20.3,2.2-26.6c1.8-2.3,4.1-3.4,7.2-3.3
				c2,0.1,3.8,2.3,4.7,3.7C212.4,161.7,214.5,173.8,211.3,182z"/>
			<path class="st1" d="M299.2,170l-36.9,122.8c-0.6,2.1,0.5,4.2,2.6,4.8c2.1,0.6,4.2-0.5,4.8-2.6l36.9-122.8
				c0.6-2.1-0.5-4.2-2.6-4.8C302,166.7,299.8,167.9,299.2,170L299.2,170z"/>
			<path class="st1" d="M365.6,229.1c-0.9,4.1-1.3,7.5-1.7,10.5c-0.6,4.3-1,8.1-2.7,12.8c-1.6,4.7,0.6,6.9,1.7,7.6
				c0.5,0.3,1,0.6,1.5,0.7c2.7,0.8,6.5-0.3,12.2-3.6c4.7-2.7,10.5-6.8,15.8-11.3c6.5-5.4,16.4-18.3,15.6-29.9
				c-0.4-5.4-3.1-9.8-7.9-12.8c0,0,0,0,0,0c-2.5-1.5-6.7-2.7-13.1,0C377.3,207.4,367.8,218.8,365.6,229.1L365.6,229.1z M390.2,210.3
				c1.3-0.6,3.5-1.3,5.2-0.8c0.3,0.1,0.5,0.2,0.7,0.3c2.7,1.6,4,3.8,4.2,6.7c0.6,7.8-7.1,18.6-12.8,23.4
				c-7.5,6.2-14.2,10.4-18.1,12.3c1.2-4.2,1.7-7.8,2.2-11.5c0.4-3,0.8-6.1,1.6-9.9C375.1,222.1,383.5,213.2,390.2,210.3L390.2,210.3
				z"/>
			<path class="st1" d="M253.4,182.5c1.9-1,2.7-3.3,1.7-5.2c-1-1.9-3.3-2.7-5.2-1.7l-10.4,5.2c-1.9,1-2.7,3.3-1.7,5.2
				c0.5,1,1.4,1.7,2.4,2c0.9,0.3,1.9,0.2,2.9-0.2L253.4,182.5z"/>
			<path class="st1" d="M339.3,202.6c-1.9,1.1-2.5,3.4-1.4,5.3l5.8,10.1c0.5,0.9,1.3,1.5,2.2,1.8c1,0.3,2.1,0.2,3.1-0.4
				c1.9-1.1,2.5-3.4,1.4-5.3l-5.8-10.1C343.5,202.2,341.2,201.6,339.3,202.6L339.3,202.6z"/>
			<path class="st1" d="M420.5,193.7c-4.2-6.3-10.4-10.1-17.8-11c-2.1-0.2-4.1,1.3-4.3,3.4c-0.2,2.1,1.3,4.1,3.4,4.3
				c5.1,0.6,9.3,3.2,12.3,7.6c4.7,7,5.7,17.9,2.5,28.9c-4.9,17.3-22.6,39.4-57.3,49.2c-1.1,0.3-2,1.1-2.5,2.1
				c-17.2,37.2-80.7,43.8-97.9,39.2c-9.2-3-26.5-15.6-39.8-31.5c-1.4-1.6-3.8-1.9-5.5-0.5c-1.6,1.4-1.9,3.8-0.5,5.5
				c14.9,17.9,33.2,30.6,43.5,34c0,0,0.1,0,0.1,0c0,0,0.1,0,0.1,0c10.1,2.8,31.8,2.3,53.6-4c18.1-5.2,41.7-16,52.7-37.8
				c15.6-4.6,29.5-12.3,40.3-22.1c10.3-9.4,17.5-20.5,20.8-31.9C427.8,215.8,426.5,202.6,420.5,193.7L420.5,193.7z"/>
			<path class="st1" d="M209.1,271.9c-8.8-14.5-12.2-28.4-10.3-41.3c0.2-1.1-0.2-2.3-0.9-3.1c-23.6-27.4-25.9-56.3-20.7-72.6
				c4.7-14.7,15.3-24.7,25.7-24.1c5.4,0.3,10.6,3.4,15.1,8.9c5.5,6.9,9.8,17.2,12.6,30.6c0.2,1.2,1,2.1,2.1,2.7
				c1.1,0.5,2.3,0.5,3.4,0.1l47.1-21.7c9.3-4.3,18.2-5.3,26.5-3c8.2,2.7,15.1,8.5,20.5,17.1l27.3,44.1c0.6,1,1.7,1.7,2.8,1.8
				c1.2,0.1,2.4-0.3,3.2-1.1c8-7.9,15.7-13.5,22.9-16.8c2-0.9,2.8-3.2,1.9-5.2c-0.9-2-3.2-2.8-5.2-1.9c-7,3.2-14.2,8.2-21.6,15
				l-24.7-40c-6.4-10.3-14.7-17.2-24.7-20.5c-0.1,0-0.1,0-0.2-0.1c-10.2-2.8-20.9-1.6-31.9,3.4L237.3,164
				c-3.1-12.4-7.5-22.2-13.1-29.1c-5.9-7.4-13.1-11.5-20.8-11.8c-14.2-0.7-27.6,11.2-33.5,29.5c-3.6,11.3-3.7,24.5-0.3,38.1
				c3.6,14.2,10.9,28.2,21.4,40.7c-1.7,14.2,2.2,29.2,11.5,44.7c0.5,0.9,1.3,1.4,2.2,1.7c1,0.3,2.2,0.2,3.1-0.4
				C209.7,276.2,210.2,273.8,209.1,271.9L209.1,271.9z"/>
		</g>
	</g>
	<g>
		<g>
			<path class="st1" d="M1459.2,509.9c1.9-4.8,1.1-11.9-1.8-16.3c-1.8-2.8-3.9-3.4-5.3-3.5c0,0,0,0,0,0c-2.7-0.1-5,1-6.6,3.1
				c-3.5,4.5-2.9,12.4-1.7,16.3c1,3.2,2.2,6.4,3.4,8.8c1.4,2.9,2.7,4.3,4,4.7c0.3,0.1,0.5,0.1,0.8,0.1c0.6,0,2.1-0.3,2.7-2.6
				c0.6-2.3,1.4-4,2.3-5.9C1457.7,513.3,1458.4,511.8,1459.2,509.9L1459.2,509.9z M1455.7,508.5c-0.7,1.8-1.4,3.1-2,4.5
				c-0.8,1.6-1.6,3.2-2.2,5.2c-1.1-1.8-2.7-5.3-4-9.8c-1-3.5-1.3-9.9,1.1-12.9c0.9-1.1,2-1.6,3.5-1.6c1,0,1.8,1.1,2.3,1.8
				C1456.2,498.7,1457.3,504.5,1455.7,508.5z"/>
			<path class="st1" d="M1498.3,502.7l-17.9,59.6c-0.3,1,0.3,2.1,1.3,2.4s2.1-0.3,2.4-1.3l17.9-59.6c0.3-1-0.3-2.1-1.3-2.4
				C1499.7,501.1,1498.6,501.7,1498.3,502.7L1498.3,502.7z"/>
			<path class="st1" d="M1530.6,531.4c-0.4,2-0.6,3.6-0.8,5.1c-0.3,2.1-0.5,3.9-1.3,6.2c-0.8,2.3,0.3,3.4,0.8,3.7
				c0.2,0.2,0.5,0.3,0.7,0.4c1.3,0.4,3.2-0.2,5.9-1.8c2.3-1.3,5.1-3.3,7.7-5.5c3.1-2.6,8-8.9,7.6-14.5c-0.2-2.6-1.5-4.8-3.8-6.2
				c0,0,0,0,0,0c-1.2-0.7-3.3-1.3-6.3,0C1536.2,520.8,1531.6,526.4,1530.6,531.4L1530.6,531.4z M1542.5,522.2
				c0.6-0.3,1.7-0.6,2.5-0.4c0.1,0,0.2,0.1,0.3,0.2c1.3,0.8,1.9,1.8,2,3.3c0.3,3.8-3.4,9-6.2,11.4c-3.6,3-6.9,5.1-8.8,6
				c0.6-2,0.8-3.8,1.1-5.6c0.2-1.5,0.4-3,0.8-4.8C1535.2,528,1539.3,523.6,1542.5,522.2L1542.5,522.2z"/>
			<path class="st1" d="M1476.1,508.8c0.9-0.5,1.3-1.6,0.8-2.5c-0.5-0.9-1.6-1.3-2.5-0.8l-5.1,2.5c-0.9,0.5-1.3,1.6-0.8,2.5
				c0.2,0.5,0.7,0.8,1.1,1c0.4,0.1,0.9,0.1,1.4-0.1L1476.1,508.8z"/>
			<path class="st1" d="M1517.8,518.5c-0.9,0.5-1.2,1.7-0.7,2.6l2.8,4.9c0.3,0.4,0.6,0.7,1.1,0.9c0.5,0.1,1,0.1,1.5-0.2
				c0.9-0.5,1.2-1.7,0.7-2.6l-2.8-4.9C1519.9,518.3,1518.7,518,1517.8,518.5L1517.8,518.5z"/>
			<path class="st1" d="M1557.2,514.2c-2.1-3.1-5-4.9-8.6-5.3c-1-0.1-2,0.6-2.1,1.7c-0.1,1,0.6,2,1.7,2.1c2.5,0.3,4.5,1.6,5.9,3.7
				c2.3,3.4,2.8,8.7,1.2,14c-2.4,8.4-10.9,19.1-27.8,23.9c-0.5,0.1-1,0.5-1.2,1c-8.4,18-39.2,21.3-47.5,19
				c-4.5-1.5-12.9-7.6-19.3-15.3c-0.7-0.8-1.9-0.9-2.7-0.2c-0.8,0.7-0.9,1.9-0.2,2.7c7.2,8.7,16.1,14.9,21.1,16.5c0,0,0,0,0,0
				c0,0,0,0,0,0c4.9,1.4,15.4,1.1,26-1.9c8.8-2.5,20.2-7.8,25.6-18.3c7.6-2.2,14.3-5.9,19.5-10.7c5-4.6,8.5-9.9,10.1-15.5
				C1560.8,524.9,1560.1,518.5,1557.2,514.2L1557.2,514.2z"/>
			<path class="st1" d="M1454.6,552.2c-4.2-7-5.9-13.8-5-20c0.1-0.5-0.1-1.1-0.4-1.5c-11.5-13.3-12.6-27.3-10-35.3
				c2.3-7.1,7.4-12,12.5-11.7c2.6,0.1,5.2,1.6,7.3,4.3c2.7,3.4,4.7,8.4,6.1,14.9c0.1,0.6,0.5,1,1,1.3c0.5,0.3,1.1,0.3,1.6,0
				l22.8-10.5c4.5-2.1,8.8-2.6,12.9-1.5c4,1.3,7.3,4.1,9.9,8.3l13.2,21.4c0.3,0.5,0.8,0.8,1.4,0.9c0.6,0.1,1.1-0.1,1.5-0.5
				c3.9-3.8,7.6-6.6,11.1-8.2c0.9-0.4,1.4-1.6,0.9-2.5c-0.4-0.9-1.6-1.4-2.5-0.9c-3.4,1.5-6.9,4-10.5,7.3l-12-19.4
				c-3.1-5-7.1-8.3-12-9.9c0,0-0.1,0-0.1,0c-4.9-1.4-10.2-0.8-15.5,1.7l-20.7,9.6c-1.5-6-3.6-10.8-6.3-14.1
				c-2.9-3.6-6.4-5.6-10.1-5.8c-6.9-0.3-13.4,5.4-16.3,14.3c-1.8,5.5-1.8,11.9-0.2,18.5c1.7,6.9,5.3,13.7,10.4,19.7
				c-0.8,6.9,1.1,14.2,5.6,21.7c0.3,0.4,0.6,0.7,1.1,0.8c0.5,0.1,1,0.1,1.5-0.2C1454.9,554.2,1455.2,553,1454.6,552.2L1454.6,552.2z
				"/>
		</g>
	</g>
	<g>
		<g>
			<path class="st1" d="M805.3,1146.2c1.9-4.8,1.1-11.9-1.8-16.3c-1.8-2.8-3.9-3.4-5.3-3.5c0,0,0,0,0,0c-2.7-0.1-5,1-6.6,3.1
				c-3.5,4.5-2.9,12.4-1.7,16.3c1,3.2,2.2,6.4,3.4,8.8c1.4,2.9,2.7,4.3,4,4.7c0.3,0.1,0.5,0.1,0.8,0.1c0.6,0,2.1-0.3,2.7-2.6
				c0.6-2.3,1.4-4,2.3-5.9C803.8,1149.6,804.5,1148.1,805.3,1146.2L805.3,1146.2z M801.8,1144.8c-0.7,1.8-1.4,3.1-2,4.5
				c-0.8,1.6-1.6,3.2-2.2,5.2c-1.1-1.8-2.7-5.3-4-9.8c-1-3.5-1.3-9.9,1.1-12.9c0.9-1.1,2-1.6,3.5-1.6c1,0,1.8,1.1,2.3,1.8
				C802.3,1134.9,803.3,1140.8,801.8,1144.8z"/>
			<path class="st1" d="M844.4,1138.9l-17.9,59.6c-0.3,1,0.3,2.1,1.3,2.4c1,0.3,2.1-0.3,2.4-1.3L848,1140c0.3-1-0.3-2.1-1.3-2.4
				C845.8,1137.4,844.7,1137.9,844.4,1138.9L844.4,1138.9z"/>
			<path class="st1" d="M876.7,1167.7c-0.4,2-0.6,3.6-0.8,5.1c-0.3,2.1-0.5,3.9-1.3,6.2c-0.8,2.3,0.3,3.4,0.8,3.7
				c0.2,0.2,0.5,0.3,0.7,0.4c1.3,0.4,3.2-0.2,5.9-1.8c2.3-1.3,5.1-3.3,7.7-5.5c3.1-2.6,8-8.9,7.6-14.5c-0.2-2.6-1.5-4.8-3.8-6.2
				c0,0,0,0,0,0c-1.2-0.7-3.3-1.3-6.3,0C882.3,1157.1,877.7,1162.7,876.7,1167.7L876.7,1167.7z M888.6,1158.5
				c0.6-0.3,1.7-0.6,2.5-0.4c0.1,0,0.2,0.1,0.3,0.2c1.3,0.8,1.9,1.8,2,3.3c0.3,3.8-3.4,9-6.2,11.4c-3.6,3-6.9,5.1-8.8,6
				c0.6-2,0.8-3.8,1.1-5.6c0.2-1.5,0.4-3,0.8-4.8C881.2,1164.3,885.3,1159.9,888.6,1158.5L888.6,1158.5z"/>
			<path class="st1" d="M822.2,1145c0.9-0.5,1.3-1.6,0.8-2.5c-0.5-0.9-1.6-1.3-2.5-0.8l-5.1,2.5c-0.9,0.5-1.3,1.6-0.8,2.5
				c0.2,0.5,0.7,0.8,1.1,1c0.4,0.1,0.9,0.1,1.4-0.1L822.2,1145z"/>
			<path class="st1" d="M863.9,1154.8c-0.9,0.5-1.2,1.7-0.7,2.6l2.8,4.9c0.3,0.4,0.6,0.7,1.1,0.9c0.5,0.1,1,0.1,1.5-0.2
				c0.9-0.5,1.2-1.7,0.7-2.6l-2.8-4.9C865.9,1154.6,864.8,1154.3,863.9,1154.8L863.9,1154.8z"/>
			<path class="st1" d="M903.3,1150.4c-2.1-3.1-5-4.9-8.6-5.3c-1-0.1-2,0.6-2.1,1.7c-0.1,1,0.6,2,1.7,2.1c2.5,0.3,4.5,1.6,5.9,3.7
				c2.3,3.4,2.8,8.7,1.2,14c-2.4,8.4-10.9,19.1-27.8,23.9c-0.5,0.1-1,0.5-1.2,1c-8.4,18-39.2,21.3-47.5,19
				c-4.5-1.5-12.9-7.6-19.3-15.3c-0.7-0.8-1.9-0.9-2.7-0.2c-0.8,0.7-0.9,1.9-0.2,2.7c7.2,8.7,16.1,14.9,21.1,16.5c0,0,0,0,0,0
				c0,0,0,0,0,0c4.9,1.4,15.4,1.1,26-1.9c8.8-2.5,20.2-7.8,25.6-18.3c7.6-2.2,14.3-5.9,19.5-10.7c5-4.6,8.5-9.9,10.1-15.5
				C906.8,1161.2,906.2,1154.8,903.3,1150.4L903.3,1150.4z"/>
			<path class="st1" d="M800.7,1188.4c-4.2-7-5.9-13.8-5-20c0.1-0.5-0.1-1.1-0.4-1.5c-11.5-13.3-12.6-27.3-10-35.3
				c2.3-7.1,7.4-12,12.5-11.7c2.6,0.1,5.2,1.6,7.3,4.3c2.7,3.4,4.7,8.4,6.1,14.9c0.1,0.6,0.5,1,1,1.3c0.5,0.3,1.1,0.3,1.6,0
				l22.8-10.5c4.5-2.1,8.8-2.6,12.9-1.5c4,1.3,7.3,4.1,9.9,8.3l13.2,21.4c0.3,0.5,0.8,0.8,1.4,0.9c0.6,0.1,1.1-0.1,1.5-0.5
				c3.9-3.8,7.6-6.6,11.1-8.2c0.9-0.4,1.4-1.6,0.9-2.5c-0.4-0.9-1.6-1.4-2.5-0.9c-3.4,1.5-6.9,4-10.5,7.3l-12-19.4
				c-3.1-5-7.1-8.3-12-9.9c0,0-0.1,0-0.1,0c-4.9-1.4-10.2-0.8-15.5,1.7l-20.7,9.6c-1.5-6-3.6-10.8-6.3-14.1
				c-2.9-3.6-6.4-5.6-10.1-5.8c-6.9-0.3-13.4,5.4-16.3,14.3c-1.8,5.5-1.8,11.9-0.2,18.5c1.7,6.9,5.3,13.7,10.4,19.7
				c-0.8,6.9,1.1,14.2,5.6,21.7c0.3,0.4,0.6,0.7,1.1,0.8c0.5,0.1,1,0.1,1.5-0.2C801,1190.5,801.2,1189.3,800.7,1188.4L800.7,1188.4z
				"/>
		</g>
	</g>
	<g>
		<g>
			<path class="st1" d="M138.1,1655.8c1.9-4.8,1.1-11.9-1.8-16.3c-1.8-2.8-3.9-3.4-5.3-3.5c0,0,0,0,0,0c-2.7-0.1-5,1-6.6,3.1
				c-3.5,4.5-2.9,12.4-1.7,16.3c1,3.2,2.2,6.4,3.4,8.8c1.4,2.9,2.7,4.3,4,4.7c0.3,0.1,0.5,0.1,0.8,0.1c0.6,0,2.1-0.3,2.7-2.6
				c0.6-2.3,1.4-4,2.3-5.9C136.6,1659.2,137.4,1657.7,138.1,1655.8L138.1,1655.8z M134.6,1654.4c-0.7,1.8-1.4,3.1-2,4.5
				c-0.8,1.6-1.6,3.2-2.2,5.2c-1.1-1.8-2.7-5.3-4-9.8c-1-3.5-1.3-9.9,1.1-12.9c0.9-1.1,2-1.6,3.5-1.6c1,0,1.8,1.1,2.3,1.8
				C135.1,1644.6,136.2,1650.5,134.6,1654.4z"/>
			<path class="st1" d="M177.2,1648.6l-17.9,59.6c-0.3,1,0.3,2.1,1.3,2.4c1,0.3,2.1-0.3,2.4-1.3l17.9-59.6c0.3-1-0.3-2.1-1.3-2.4
				C178.6,1647,177.5,1647.6,177.2,1648.6L177.2,1648.6z"/>
			<path class="st1" d="M209.5,1677.3c-0.4,2-0.6,3.6-0.8,5.1c-0.3,2.1-0.5,3.9-1.3,6.2c-0.8,2.3,0.3,3.4,0.8,3.7
				c0.2,0.2,0.5,0.3,0.7,0.4c1.3,0.4,3.2-0.2,5.9-1.8c2.3-1.3,5.1-3.3,7.7-5.5c3.1-2.6,8-8.9,7.6-14.5c-0.2-2.6-1.5-4.8-3.8-6.2
				c0,0,0,0,0,0c-1.2-0.7-3.3-1.3-6.3,0C215.1,1666.8,210.6,1672.3,209.5,1677.3L209.5,1677.3z M221.4,1668.2
				c0.6-0.3,1.7-0.6,2.5-0.4c0.1,0,0.2,0.1,0.3,0.2c1.3,0.8,1.9,1.8,2,3.3c0.3,3.8-3.4,9-6.2,11.4c-3.6,3-6.9,5.1-8.8,6
				c0.6-2,0.8-3.8,1.1-5.6c0.2-1.5,0.4-3,0.8-4.8C214.1,1673.9,218.2,1669.6,221.4,1668.2L221.4,1668.2z"/>
			<path class="st1" d="M155,1654.7c0.9-0.5,1.3-1.6,0.8-2.5c-0.5-0.9-1.6-1.3-2.5-0.8l-5.1,2.5c-0.9,0.5-1.3,1.6-0.8,2.5
				c0.2,0.5,0.7,0.8,1.1,1c0.4,0.1,0.9,0.1,1.4-0.1L155,1654.7z"/>
			<path class="st1" d="M196.7,1664.4c-0.9,0.5-1.2,1.7-0.7,2.6l2.8,4.9c0.3,0.4,0.6,0.7,1.1,0.9c0.5,0.1,1,0.1,1.5-0.2
				c0.9-0.5,1.2-1.7,0.7-2.6l-2.8-4.9C198.8,1664.2,197.6,1663.9,196.7,1664.4L196.7,1664.4z"/>
			<path class="st1" d="M236.1,1660.1c-2.1-3.1-5-4.9-8.6-5.3c-1-0.1-2,0.6-2.1,1.7c-0.1,1,0.6,2,1.7,2.1c2.5,0.3,4.5,1.6,5.9,3.7
				c2.3,3.4,2.8,8.7,1.2,14c-2.4,8.4-10.9,19.1-27.8,23.9c-0.5,0.1-1,0.5-1.2,1c-8.4,18-39.2,21.3-47.5,19
				c-4.5-1.5-12.9-7.6-19.3-15.3c-0.7-0.8-1.9-0.9-2.7-0.2c-0.8,0.7-0.9,1.9-0.2,2.7c7.2,8.7,16.1,14.9,21.1,16.5c0,0,0,0,0,0
				c0,0,0,0,0,0c4.9,1.4,15.4,1.1,26-1.9c8.8-2.5,20.2-7.8,25.6-18.3c7.6-2.2,14.3-5.9,19.5-10.7c5-4.6,8.5-9.9,10.1-15.5
				C239.7,1670.8,239,1664.4,236.1,1660.1L236.1,1660.1z"/>
			<path class="st1" d="M133.5,1698.1c-4.2-7-5.9-13.8-5-20c0.1-0.5-0.1-1.1-0.4-1.5c-11.5-13.3-12.6-27.3-10-35.3
				c2.3-7.2,7.4-12,12.5-11.7c2.6,0.1,5.2,1.6,7.3,4.3c2.7,3.4,4.7,8.4,6.1,14.9c0.1,0.6,0.5,1,1,1.3c0.5,0.3,1.1,0.3,1.6,0
				l22.8-10.5c4.5-2.1,8.8-2.6,12.9-1.5c4,1.3,7.3,4.1,9.9,8.3l13.2,21.4c0.3,0.5,0.8,0.8,1.4,0.9c0.6,0.1,1.1-0.1,1.5-0.5
				c3.9-3.8,7.6-6.6,11.1-8.2c0.9-0.4,1.4-1.6,0.9-2.5c-0.4-0.9-1.6-1.4-2.5-0.9c-3.4,1.5-6.9,4-10.5,7.3l-12-19.4
				c-3.1-5-7.1-8.3-12-9.9c0,0-0.1,0-0.1,0c-4.9-1.4-10.2-0.8-15.5,1.7l-20.7,9.6c-1.5-6-3.6-10.8-6.3-14.1
				c-2.9-3.6-6.4-5.6-10.1-5.8c-6.9-0.3-13.4,5.4-16.3,14.3c-1.8,5.5-1.8,11.9-0.2,18.5c1.7,6.9,5.3,13.7,10.4,19.7
				c-0.8,6.9,1.1,14.2,5.6,21.7c0.3,0.4,0.6,0.7,1.1,0.8c0.5,0.1,1,0.1,1.5-0.2C133.8,1700.1,134.1,1699,133.5,1698.1L133.5,1698.1z
				"/>
		</g>
	</g>
	<g>
		<g>
			<path class="st1" d="M2056.8,793.9c-4.2-9.7-15.7-19-26.3-21.2c-6.7-1.4-10.7,0.7-12.8,2.6c0,0,0,0,0,0
				c-4.1,3.8-5.9,8.7-5.2,14.1c1.5,11.6,13.8,22.2,21.3,26.2c6.1,3.3,12.6,6.2,17.8,7.9c6.2,2.1,10.2,2.4,12.7,1.1
				c0.5-0.3,1-0.6,1.4-1c0.9-0.9,2.7-3.5,0.1-7.8c-2.5-4.3-3.8-7.8-5.2-11.9C2059.6,801,2058.5,797.8,2056.8,793.9L2056.8,793.9z
				 M2049.7,797c1.6,3.6,2.6,6.5,3.6,9.4c1.2,3.6,2.4,7,4.4,10.8c-4.2-1-11.6-3.8-20.2-8.4c-6.6-3.5-16.2-12.6-17.2-20.4
				c-0.4-2.9,0.5-5.3,2.8-7.4c1.5-1.4,4.3-1,5.9-0.7C2036.1,781.9,2046.2,788.9,2049.7,797z"/>
			<path class="st1" d="M2103.3,726.3l60.7,112.9c1,1.9,3.4,2.6,5.3,1.6c1.9-1,2.6-3.4,1.6-5.3l-60.7-112.9c-1-1.9-3.4-2.6-5.3-1.6
				C2103,722.1,2102.3,724.4,2103.3,726.3L2103.3,726.3z"/>
			<path class="st1" d="M2192.1,721.2c2.3,3.5,4.4,6.2,6.2,8.6c2.7,3.5,5,6.4,7.1,10.9c2.2,4.5,5.3,4.5,6.6,4.2
				c0.6-0.1,1.1-0.3,1.6-0.6c2.5-1.4,4.4-4.9,6.1-11.2c1.4-5.3,2.6-12.3,3.2-19.2c0.8-8.4-1.3-24.5-10.1-32.2
				c-4.1-3.6-9.2-4.8-14.6-3.4c0,0,0,0,0,0c-2.8,0.7-6.7,2.8-9.3,9.2C2185,697.6,2186.4,712.4,2192.1,721.2L2192.1,721.2z
				 M2196.2,690.5c0.5-1.3,1.6-3.4,3.1-4.2c0.2-0.1,0.5-0.2,0.7-0.3c3-0.7,5.5-0.2,7.7,1.8c5.9,5.2,8.2,18.2,7.5,25.6
				c-0.9,9.7-2.6,17.4-4.1,21.5c-2.1-3.8-4.3-6.7-6.6-9.7c-1.8-2.4-3.7-4.9-5.9-8.1C2193.8,709.6,2193.5,697.3,2196.2,690.5
				L2196.2,690.5z"/>
			<path class="st1" d="M2079.8,767.6c0.7-2-0.4-4.2-2.5-4.9c-2-0.7-4.2,0.4-4.9,2.5l-3.7,11c-0.7,2,0.4,4.2,2.5,4.9
				c1.1,0.4,2.2,0.2,3.1-0.3c0.8-0.5,1.5-1.2,1.8-2.2L2079.8,767.6z"/>
			<path class="st1" d="M2154.8,721.1c-0.6,2.1,0.7,4.2,2.7,4.8l11.2,3c1,0.3,2,0.1,2.9-0.3c0.9-0.5,1.6-1.3,1.9-2.4
				c0.6-2.1-0.7-4.2-2.7-4.8l-11.2-3C2157.5,717.8,2155.3,719,2154.8,721.1L2154.8,721.1z"/>
			<path class="st1" d="M2205.8,657.3c-7.5-1.5-14.5,0.2-20.4,4.8c-1.7,1.3-2,3.8-0.6,5.5c1.3,1.7,3.8,2,5.5,0.6
				c4-3.2,8.9-4.3,14-3.3c8.3,1.6,16.6,8.6,22.3,18.7c8.8,15.7,11.9,43.8-5.8,75.3c-0.6,1-0.7,2.2-0.3,3.2
				c14.1,38.5-26.1,88.1-41.5,96.9c-8.6,4.3-29.8,7.7-50.5,5.9c-2.1-0.2-4,1.4-4.2,3.5c-0.2,2.1,1.4,4,3.5,4.2
				c23.2,2.1,45.1-1.8,54.8-6.7c0,0,0.1,0,0.1,0c0,0,0.1,0,0.1,0c9.1-5.2,24.1-20.8,35.1-40.7c9.1-16.5,18.2-40.8,10.5-64
				c7.7-14.3,12.2-29.5,12.8-44.1c0.6-14-2.1-26.9-7.9-37.3C2226.7,667.8,2216.4,659.4,2205.8,657.3L2205.8,657.3z"/>
			<path class="st1" d="M2111.7,862.1c-16.4-4-28.7-11.4-36.4-21.9c-0.7-0.9-1.7-1.5-2.8-1.6c-36.1-2.7-58.1-21.5-66-36.7
				c-7.1-13.7-6.6-28.2,1.1-35.2c4-3.6,9.9-5.2,17-4.4c8.8,1,19.1,5.2,30.6,12.7c1,0.6,2.2,0.8,3.3,0.4c1.1-0.4,2-1.2,2.4-2.3
				l17.9-48.6c3.5-9.6,9.1-16.6,16.6-20.9c7.7-3.9,16.7-4.7,26.6-2.3l50.4,11.9c1.2,0.3,2.4,0,3.3-0.7c0.9-0.7,1.5-1.8,1.5-3
				c0.1-11.2,1.5-20.7,4.3-28.1c0.8-2-0.3-4.3-2.3-5c-2-0.8-4.3,0.3-5,2.3c-2.7,7.2-4.3,15.9-4.7,25.9l-45.8-10.8
				c-11.8-2.8-22.5-1.8-32,3c-0.1,0-0.1,0.1-0.2,0.1c-9.2,5.2-16,13.6-20.2,25l-16.3,44.1c-10.9-6.6-20.9-10.4-29.9-11.4
				c-9.4-1-17.4,1.2-23.1,6.3c-10.5,9.5-11.7,27.4-2.8,44.6c5.5,10.6,14.7,20,26.7,27.2c12.5,7.5,27.7,12.2,43.9,13.6
				c8.9,11.2,22.2,19.1,39.7,23.4c1,0.2,2,0.1,2.8-0.4c0.9-0.5,1.7-1.4,1.9-2.5C2115.1,864.7,2113.8,862.6,2111.7,862.1
				L2111.7,862.1z"/>
		</g>
	</g>
	<g>
		<g>
			<path class="st1" d="M1482.4,810.3c-4.3,12.1-4.5,24-0.6,34.3c3.4,9,10,16.2,18.1,19.9c0.4,0.2,0.8,0.4,1.2,0.5
				c8.5,3.4,17.8,3,26.3-1.4c9.3-4.7,17.2-13.8,22.9-26.4c6-13.1,5.8-25.8-0.3-36.1l4.8-5.4c1.5-1.7,1.4-4.4-0.3-5.9
				c-1.7-1.5-4.4-1.4-5.9,0.3l-3.8,4.2c-2.8-2.8-5.9-5.1-9.4-6.9l2.7-5.9c1-2.1,0-4.6-2.1-5.6c-2.1-1-4.6,0-5.6,2.1l-2.9,6.4
				c-3.3-0.8-6.7-1.3-10.1-1.2l-0.4-7.8c-0.1-2.3-2.1-4.1-4.4-3.9c-2.3,0.1-4.1,2.1-3.9,4.4l0.5,8.4
				C1496.9,787.5,1487.2,796.7,1482.4,810.3z M1513.6,792.1c5.8-0.9,11.6,0,16.8,2.4c4.2,1.9,8,4.9,10.8,8.6
				c6.3,8.3,6.8,19.2,1.6,30.8c-11.1,24.3-27.6,27.8-38.4,23.4c-6.5-2.7-11.9-8.4-14.7-15.6c-2.2-5.9-4-15.6,0.7-28.5
				C1494.5,801.2,1502.8,793.7,1513.6,792.1z"/>
			<path class="st1" d="M1615.2,710.8c-7-12.6-18.6-22.4-32.8-27.7c-15.6-5.8-32.9-5.8-48.8,0.1c-17.6,6.5-32,19.6-41.7,37.8
				l-1.2,2.3c-2.6,4.9-5.9,11.1-9.4,17.8c-1.1,2.1-0.2,4.6,1.8,5.6c2.1,1.1,4.6,0.2,5.6-1.8c3.4-6.6,6.5-12.5,9.3-17.6l1.2-2.3
				c11-20.6,27.1-31.7,43.5-35.8c-3.5,7.6-5.8,17.9-4.8,28.6c0.2,1.5,1.1,2.8,2.4,3.4c0.7,0.3,1.4,0.4,2.2,0.4
				c2.3-0.2,4-2.3,3.8-4.6c-1.3-12.7,3.2-24,6.9-29.5c7.8-0.6,15.4,0.2,22.3,2.3c-6.5,9-12.2,21.4-14.7,32.6c-0.5,2,0.6,3.9,2.3,4.8
				c0.3,0.1,0.5,0.2,0.8,0.3c2.3,0.5,4.5-0.9,5-3.1c2.5-10.8,8.4-23.3,14.7-31.4c6.3,3,12.5,7.4,17.7,13.2c-6.9,6.1-13,14.8-18.1,26
				c-1,2.1,0,4.6,2.1,5.6s4.6,0,5.6-2.1c4.5-9.8,9.7-17.4,15.6-22.7c7.1,11.2,10.4,26.2,6.1,45.1c-2.3,10.2-11.3,19.7-20,28.9
				c-7.5,7.9-14.6,15.4-18.3,23.8l-21.7,49.5c-5.9,13.4-16,19.4-23.5,22.1c-11.9,4.2-25.7,3.4-36.9-2.3
				c-24-12.2-33.9-30.1-31.1-56.4c1.8-16.9,8-36.8,19.2-61c1-2.1,0-4.6-2.1-5.6c0,0,0,0,0,0c-2.1-1-4.6,0-5.5,2.1
				c-11.5,25-18,45.8-19.9,63.6c-1.7,16.4,1.2,30.5,8.8,42c6,9.1,14.8,16.6,26.9,22.7c0.7,0.3,1.3,0.7,2,1
				c12.8,5.9,28.2,6.5,41.5,1.8c13-4.6,22.8-13.8,28.4-26.6l21.7-49.5c3.1-7.1,9.7-14.1,16.7-21.4c9.5-10,19.2-20.3,22.1-32.8
				C1624.8,741.7,1622.9,724.8,1615.2,710.8L1615.2,710.8z"/>
			<path class="st1" d="M1622.8,870.3c-5.7,12.5-7.4,24.5-4.9,34.6c2.3,9.3,8.1,16.6,16.2,20.8c0.4,0.2,0.8,0.4,1.2,0.6
				c8.1,3.7,17.8,3.9,26.9,0.6c10.4-3.8,19.2-11.7,25.5-23c7.1-12.5,7.7-25.9,2-37.1l6.7-5.2c1.8-1.4,2.2-4,0.8-5.9
				c-1.4-1.8-4-2.2-5.9-0.8l-6.2,4.8c-2.2-2.6-4.7-4.9-7.5-6.8l2.9-6.4c1-2.1,0-4.6-2.1-5.6s-4.6,0-5.6,2.1l-2.7,5.9
				c-3.6-1.5-7.5-2.4-11.4-2.6l0.7-5.6c0.3-2.3-1.3-4.4-3.6-4.7c-2.3-0.3-4.4,1.3-4.7,3.6l-0.9,7.2
				C1638.5,849,1628.8,857.2,1622.8,870.3L1622.8,870.3z M1654.7,854.8c4.7-0.3,9.3,0.6,13.6,2.5c5.1,2.3,9.7,6.2,12.8,11.1
				c5.8,9.2,5.6,20.3-0.6,31.4c-6.7,11.9-15.2,17-21.1,19.2c-7.3,2.7-15.1,2.4-21.4-0.8c-10.4-5.3-18.6-20.1-7.5-44.4
				C1635.7,862.3,1644.3,855.5,1654.7,854.8L1654.7,854.8z"/>
			<path class="st1" d="M1733.2,877.2c1-2.1,0-4.6-2.1-5.5c-2.1-0.9-4.6,0-5.5,2.1c-11,24.5-22,42.4-33.7,54.9
				c-18,19.3-38,23.5-63,13.4c-11.5-4.7-21.4-14.7-25.9-26.3c-2.9-7.4-5-19,1.2-32.2l23.1-48.8c3.9-8.3,4.9-18.6,6-29.4
				c1.2-12.6,2.5-25.6,8.7-34c11.5-15.7,25-23,38.1-25c-0.2,7.9-2.5,16.8-7,26.6c-1,2.1,0,4.6,2.1,5.6c2.1,1,4.6,0,5.6-2.1
				c5.1-11.2,7.7-21.5,7.7-30.7c7.8,0.1,15.1,1.9,21.5,4.7c-2,10.1-7.5,22.7-14.1,31.7c-1.4,1.9-0.9,4.5,0.9,5.9
				c0.2,0.2,0.5,0.3,0.7,0.4c1.8,0.8,3.9,0.3,5.1-1.4c6.8-9.3,12.4-21.7,15-32.5c6.1,3.9,11.7,9.1,16.3,15.3
				c-1.7,6.5-7.3,17.2-17.7,24.6c-1.9,1.3-2.3,4-1,5.8c0.4,0.6,1,1.1,1.7,1.4c1.3,0.6,2.9,0.5,4.2-0.4c8.7-6.2,15-14.7,18.5-22.3
				c7.6,15.1,9.8,34.6,1.5,56.4l-1.1,2.9c-2,5.2-4.3,11.2-6.9,17.7c-0.9,2.1,0.2,4.6,2.3,5.5c2.1,0.9,4.6-0.2,5.5-2.3
				c2.7-6.6,4.9-12.6,6.9-17.8l1.1-2.9c7.4-19.3,7.8-38.8,1.2-56.3c-6-15.8-17.3-28.9-32-36.9c-13.3-7.2-28.3-9.6-42.4-6.6
				c-15.6,3.3-29.6,12.9-40.5,27.8c-7.5,10.3-8.9,24.5-10.3,38.1c-1,10.1-1.9,19.7-5.2,26.7l-23.1,48.8c-6,12.6-6.5,26.1-1.5,38.9
				c5.1,13.2,15.7,24.3,28.6,30.2c0.7,0.3,1.4,0.6,2.1,0.9c12.5,5.1,23.9,6.8,34.8,5.4c13.6-1.8,26.3-8.8,37.5-20.9
				C1710.3,921.2,1721.8,902.5,1733.2,877.2L1733.2,877.2z"/>
		</g>
	</g>
	<g>
		<g>
			<path class="st1" d="M2069.8,1655.3c5.5,11.6,13.8,20.2,23.8,24.7c8.8,3.9,18.5,4.4,26.9,1.2c0.4-0.2,0.8-0.3,1.2-0.5
				c8.4-3.6,14.7-10.5,17.7-19.6c3.2-9.9,2.4-21.9-2.5-34.8c-5-13.5-14.1-22.3-25.8-25.3l-0.4-7.2c-0.1-2.3-2.1-4.1-4.4-4
				c-2.3,0.1-4.1,2.1-4,4.4l0.3,5.7c-3.9,0-7.8,0.6-11.5,1.8l-2.3-6c-0.8-2.2-3.2-3.3-5.4-2.5c-2.2,0.8-3.3,3.2-2.5,5.4l2.4,6.5
				c-2.9,1.7-5.6,3.8-8,6.3l-5.9-5.2c-1.7-1.5-4.4-1.4-5.9,0.3c-1.5,1.7-1.4,4.4,0.3,5.9l6.3,5.6
				C2063.9,1628.9,2063.7,1642.3,2069.8,1655.3z M2079,1620.4c3.4-4.7,8.2-8.2,13.5-10.2c4.4-1.6,9.1-2.2,13.7-1.6
				c10.3,1.4,18.4,8.8,22.9,20.7c9.4,25,0.1,39.2-10.6,43.8c-6.5,2.7-14.3,2.5-21.4-0.7c-5.7-2.6-13.8-8.2-19.7-20.6
				C2072,1640.3,2072.6,1629.1,2079,1620.4z"/>
			<path class="st1" d="M2093.4,1491.1c-13.8-4-29-2.7-42.7,3.6c-15.2,6.9-27.4,19.2-34.5,34.6c-7.8,17-8.8,36.5-2.8,56.2l0.8,2.5
				c1.6,5.4,3.6,12,6,19.2c0.7,2.2,3.1,3.4,5.3,2.7c2.2-0.7,3.4-3.1,2.7-5.3c-2.3-7.1-4.2-13.4-5.9-19l-0.8-2.5
				c-6.8-22.3-3.3-41.5,5.4-56.1c3,7.9,8.6,16.8,16.8,23.6c1.2,1,2.8,1.2,4.1,0.7c0.7-0.3,1.3-0.7,1.8-1.3c1.5-1.8,1.2-4.4-0.6-5.9
				c-9.9-8.1-14.7-19.2-15.9-25.7c5.1-5.9,11-10.7,17.4-14.2c1.8,11,6.5,23.7,12.6,33.5c1.1,1.7,3.2,2.4,5,1.7
				c0.3-0.1,0.5-0.2,0.8-0.4c2-1.2,2.6-3.8,1.3-5.8c-5.9-9.4-10.5-22.4-11.8-32.6c6.6-2.4,14.1-3.6,21.8-3.2
				c-0.6,9.2,1.2,19.7,5.5,31.2c0.8,2.2,3.2,3.3,5.4,2.5c2.2-0.8,3.3-3.2,2.5-5.4c-3.8-10.1-5.5-19.2-5.1-27.1
				c12.9,2.9,25.9,11.2,36.2,27.6c5.6,8.9,5.9,21.9,6.3,34.5c0.3,10.9,0.6,21.2,3.9,29.8l19.7,50.3c5.3,13.6,2.4,25.1-1,32.2
				c-5.4,11.4-15.8,20.5-27.7,24.4c-25.6,8.3-45.3,2.7-61.9-17.8c-10.7-13.2-20.4-31.7-29.6-56.7c-0.8-2.2-3.2-3.3-5.4-2.5
				c0,0,0,0,0,0c-2.2,0.8-3.3,3.2-2.5,5.4c9.5,25.8,19.6,45.1,30.9,59c10.4,12.8,22.5,20.7,35.9,23.5c10.7,2.2,22.2,1.2,35-3
				c0.7-0.2,1.4-0.5,2.1-0.7c13.2-4.9,24.5-15.3,30.6-28.1c5.9-12.4,6.3-25.9,1.2-38.9l-19.7-50.3c-2.8-7.2-3.1-16.8-3.4-27
				c-0.4-13.8-0.8-28-7.6-38.8C2122.1,1506.1,2108.7,1495.5,2093.4,1491.1L2093.4,1491.1z"/>
			<path class="st1" d="M2211.6,1598.4c4.8,12.9,12.1,22.6,21,27.9c8.2,4.9,17.5,6.1,26.2,3.2c0.4-0.1,0.8-0.3,1.2-0.4
				c8.4-3.1,15.4-9.8,19.5-18.6c4.7-10,5.3-21.9,1.8-34.3c-3.9-13.9-12.8-23.8-24.8-27.6l1.1-8.4c0.3-2.3-1.3-4.4-3.6-4.7
				s-4.4,1.3-4.7,3.6l-1,7.8c-3.4-0.3-6.8-0.1-10.1,0.5l-2.4-6.5c-0.8-2.2-3.2-3.3-5.4-2.5s-3.3,3.2-2.5,5.4l2.3,6
				c-3.6,1.5-6.9,3.6-9.9,6.2l-3.5-4.5c-1.4-1.8-4.1-2.2-5.9-0.7c-1.8,1.4-2.2,4.1-0.7,5.9l4.4,5.7
				C2207.6,1572.3,2206.6,1584.9,2211.6,1598.4L2211.6,1598.4z M2223.2,1564.9c3.1-3.5,7-6.2,11.4-7.8c5.3-2,11.2-2.5,16.9-1.2
				c10.6,2.4,18.4,10.4,21.8,22.6c3.7,13.2,1.3,22.8-1.3,28.5c-3.3,7.1-9,12.4-15.7,14.6c-11.1,3.6-27.3-1-36.7-26.1
				C2215,1583.6,2216.3,1572.7,2223.2,1564.9L2223.2,1564.9z"/>
			<path class="st1" d="M2294.5,1525.3c-0.8-2.2-3.3-3.2-5.4-2.4c-2.2,0.8-3.3,3.2-2.4,5.4c9.5,25.1,14.4,45.6,15,62.6
				c0.9,26.3-10.2,43.5-35,54c-11.4,4.8-25.6,4.7-37-0.3c-7.3-3.2-17-9.9-21.9-23.7l-18.2-50.9c-3.1-8.7-9.6-16.6-16.6-25.1
				c-8-9.8-16.3-19.8-17.9-30.2c-3-19.2,1.4-33.9,9.3-44.6c5.5,5.7,10.1,13.6,13.9,23.8c0.8,2.2,3.2,3.3,5.4,2.5
				c2.2-0.8,3.3-3.2,2.5-5.4c-4.3-11.5-9.8-20.6-16.3-27.2c5.5-5.4,12-9.4,18.6-11.9c5.7,8.5,10.7,21.3,12.5,32.4
				c0.4,2.3,2.5,3.8,4.8,3.5c0.3,0,0.6-0.1,0.8-0.2c1.8-0.7,3-2.6,2.7-4.6c-1.8-11.4-6.6-24.1-12.4-33.6c7.1-1.5,14.7-1.9,22.4-0.7
				c3.4,5.8,7,17.3,4.9,29.9c-0.4,2.3,1.1,4.4,3.4,4.8c0.8,0.1,1.5,0,2.2-0.2c1.4-0.5,2.4-1.7,2.7-3.2c1.8-10.6,0.2-21-2.7-28.9
				c16.1,5.3,31.4,17.5,40.9,38.8l1.3,2.8c2.3,5.1,4.9,10.9,7.6,17.4c0.9,2.1,3.4,3.1,5.5,2.2c2.1-0.9,3.1-3.4,2.2-5.5
				c-2.8-6.5-5.4-12.4-7.7-17.5l-1.2-2.8c-8.4-18.9-21.9-33-39-40.7c-15.4-7-32.7-8.2-48.7-3.5c-14.5,4.3-26.8,13.3-34.6,25.3
				c-8.7,13.4-11.8,30.1-9,48.3c2,12.6,11,23.6,19.7,34.2c6.5,7.9,12.6,15.3,15.2,22.6l18.2,50.9c4.7,13.1,13.8,23,26.4,28.5
				c13,5.7,28.3,6.1,41.5,1.1c0.7-0.3,1.4-0.5,2.1-0.8c12.5-5.3,21.8-12.1,28.4-20.8c8.4-10.9,12.3-24.8,11.7-41.3
				C2309.4,1572.6,2304.3,1551.2,2294.5,1525.3L2294.5,1525.3z"/>
		</g>
	</g>
	<g>
		<g>
			<path class="st1" d="M1777.6,659.8c-1.5,5.9-1.1,11.5,1.2,16.2c2,4.1,5.4,7.2,9.4,8.6c0.2,0.1,0.4,0.1,0.6,0.2
				c4.1,1.2,8.5,0.6,12.3-1.8c4.1-2.6,7.5-7.3,9.6-13.4c2.2-6.4,1.6-12.4-1.7-17l2-2.7c0.6-0.9,0.5-2.1-0.4-2.8
				c-0.9-0.6-2.1-0.5-2.8,0.4l-1.6,2.2c-1.4-1.2-3-2.1-4.7-2.8l1-2.9c0.4-1-0.2-2.2-1.2-2.5c-1-0.4-2.2,0.2-2.5,1.2l-1.1,3.1
				c-1.6-0.3-3.2-0.3-4.8-0.1l-0.6-3.7c-0.2-1.1-1.2-1.8-2.3-1.7c-1.1,0.2-1.8,1.2-1.7,2.3l0.6,3.9
				C1783.4,648.4,1779.3,653.2,1777.6,659.8z M1791.5,649.8c2.7-0.7,5.5-0.5,8,0.4c2.1,0.7,4,1.9,5.5,3.6c3.3,3.6,4.1,8.7,2.1,14.4
				c-4.1,11.9-11.8,14.3-17,12.7c-3.2-1-5.9-3.4-7.6-6.7c-1.3-2.7-2.5-7.2-0.9-13.4C1782.9,655,1786.5,651.1,1791.5,649.8z"/>
			<path class="st1" d="M1835.7,607.2c-3.8-5.6-9.7-9.7-16.6-11.6c-7.6-2-15.7-1.3-23,2.2c-8,3.8-14.2,10.6-18,19.6l-0.5,1.1
				c-1,2.4-2.3,5.5-3.6,8.8c-0.4,1,0.1,2.2,1.1,2.6c1,0.4,2.2-0.1,2.6-1.1c1.3-3.3,2.5-6.1,3.6-8.7l0.5-1.1
				c4.3-10.2,11.3-16.1,18.9-18.8c-1.3,3.7-1.9,8.7-1,13.6c0.1,0.7,0.7,1.3,1.3,1.5c0.3,0.1,0.7,0.1,1,0.1c1.1-0.2,1.8-1.2,1.6-2.3
				c-1.1-5.9,0.4-11.4,2-14.2c3.6-0.6,7.2-0.6,10.6,0.1c-2.7,4.5-4.8,10.6-5.5,16c-0.1,0.9,0.4,1.8,1.3,2.1c0.1,0,0.3,0.1,0.4,0.1
				c1.1,0.1,2.1-0.6,2.2-1.7c0.7-5.2,2.9-11.3,5.5-15.4c3.1,1.1,6.2,2.9,8.9,5.4c-3,3.2-5.5,7.5-7.4,13c-0.4,1,0.2,2.2,1.2,2.5
				c1,0.4,2.2-0.2,2.5-1.2c1.7-4.8,3.8-8.6,6.3-11.4c3.8,5,6,11.9,4.8,20.9c-0.6,4.9-4.4,9.8-8.1,14.5c-3.2,4.1-6.2,7.9-7.6,12
				l-8,24.2c-2.2,6.6-6.7,9.8-10.1,11.4c-5.4,2.5-11.9,2.7-17.4,0.5c-11.8-4.7-17.3-12.7-17.1-25.1c0.1-8,2.2-17.7,6.3-29.5
				c0.4-1-0.2-2.2-1.2-2.5c0,0,0,0,0,0c-1-0.4-2.2,0.2-2.5,1.2c-4.3,12.3-6.5,22.3-6.6,30.8c-0.1,7.8,1.9,14.3,6,19.4
				c3.2,4,7.7,7.1,13.6,9.5c0.3,0.1,0.7,0.3,1,0.4c6.3,2.2,13.5,1.8,19.6-1c5.9-2.7,10.1-7.5,12.2-13.8l8-24.2
				c1.1-3.5,3.9-7,6.9-10.8c4-5.1,8.2-10.4,8.9-16.4C1841.6,621.3,1839.9,613.4,1835.7,607.2L1835.7,607.2z"/>
			<path class="st1" d="M1846.3,681.8c-2.1,6.1-2.4,11.8-0.8,16.5c1.5,4.2,4.5,7.5,8.5,9.1c0.2,0.1,0.4,0.1,0.6,0.2
				c4,1.4,8.6,1.1,12.7-0.9c4.7-2.2,8.5-6.4,11-11.9c2.8-6.2,2.5-12.5-0.7-17.5l2.9-2.7c0.8-0.7,0.8-2,0.1-2.8s-2-0.8-2.8-0.1
				l-2.7,2.5c-1.2-1.1-2.4-2.1-3.8-2.9l1.1-3.1c0.4-1-0.2-2.2-1.2-2.5c-1-0.4-2.2,0.2-2.5,1.2l-1,2.9c-1.8-0.5-3.6-0.8-5.5-0.7
				l0.1-2.7c0-1.1-0.8-2-1.9-2c-1.1,0-2,0.8-2,1.9l-0.1,3.4C1852.7,671.1,1848.5,675.4,1846.3,681.8L1846.3,681.8z M1860.6,673.1
				c2.2-0.4,4.4-0.1,6.5,0.6c2.5,0.9,4.8,2.5,6.5,4.7c3.1,4.1,3.5,9.3,1.1,14.8c-2.6,5.9-6.4,8.7-9.1,9.9c-3.3,1.6-7,1.8-10.1,0.6
				c-5.1-2-9.6-8.6-5.5-20.5C1852,677.5,1855.7,673.9,1860.6,673.1L1860.6,673.1z"/>
			<path class="st1" d="M1898.4,680.2c0.4-1-0.2-2.2-1.2-2.5c-1-0.4-2.2,0.2-2.5,1.2c-4.1,12-8.5,20.9-13.4,27.3
				c-7.6,9.9-16.8,12.7-29,9.1c-5.6-1.7-10.7-6-13.4-11.2c-1.7-3.4-3.2-8.7-0.8-15.2l8.7-24c1.5-4.1,1.5-8.9,1.5-14.1
				c0-6,0.1-12.1,2.6-16.4c4.7-7.9,10.7-11.9,16.8-13.4c0.3,3.7-0.4,8-2.1,12.8c-0.4,1,0.2,2.2,1.2,2.5s2.2-0.2,2.5-1.2
				c1.9-5.5,2.7-10.4,2.3-14.8c3.6-0.3,7.2,0.2,10.3,1.3c-0.5,4.8-2.5,11-5.2,15.5c-0.6,0.9-0.2,2.2,0.7,2.7
				c0.1,0.1,0.2,0.1,0.4,0.2c0.9,0.3,1.9,0,2.4-0.9c2.8-4.7,4.9-10.8,5.6-15.9c3,1.6,5.9,3.8,8.4,6.5c-0.5,3.1-2.7,8.4-7.2,12.3
				c-0.8,0.7-0.9,2-0.2,2.8c0.2,0.3,0.5,0.5,0.9,0.6c0.6,0.2,1.4,0.1,1.9-0.4c3.8-3.3,6.4-7.6,7.7-11.3c4.3,6.8,6.1,15.8,3.2,26.4
				l-0.4,1.4c-0.7,2.5-1.5,5.4-2.5,8.6c-0.3,1,0.3,2.2,1.3,2.5c1,0.3,2.1-0.3,2.5-1.3c1-3.2,1.8-6.1,2.5-8.7l0.4-1.4
				c2.6-9.4,2-18.6-1.9-26.5c-3.5-7.2-9.4-12.8-16.6-16c-6.6-2.8-13.7-3.3-20.2-1.2c-7.2,2.2-13.4,7.4-17.8,14.9
				c-3.1,5.2-3.1,11.9-3.2,18.4c0,4.8,0,9.3-1.3,12.8l-8.7,24c-2.3,6.2-1.9,12.5,1,18.3c3,6,8.5,10.7,14.7,12.9
				c0.3,0.1,0.7,0.2,1,0.3c6.1,1.8,11.5,2.2,16.6,1c6.3-1.4,12-5.3,16.7-11.5C1889.6,701.9,1894.2,692.6,1898.4,680.2L1898.4,680.2z
				"/>
		</g>
	</g>
	<g>
		<g>
			<path class="st1" d="M635.6,568.8c-2.5,7-2.6,13.9-0.3,19.8c2,5.2,5.8,9.4,10.5,11.5c0.2,0.1,0.5,0.2,0.7,0.3
				c4.9,2,10.3,1.7,15.2-0.8c5.4-2.7,9.9-8,13.2-15.2c3.5-7.6,3.4-14.9-0.2-20.9l2.8-3.1c0.9-1,0.8-2.5-0.2-3.4
				c-1-0.9-2.5-0.8-3.4,0.2l-2.2,2.5c-1.6-1.6-3.4-2.9-5.5-4l1.5-3.4c0.6-1.2,0-2.7-1.2-3.2s-2.7,0-3.2,1.2l-1.7,3.7
				c-1.9-0.5-3.9-0.7-5.8-0.7l-0.3-4.5c-0.1-1.3-1.2-2.4-2.6-2.3c-1.3,0.1-2.4,1.2-2.3,2.6l0.3,4.9C644,555.6,638.4,561,635.6,568.8
				z M653.6,558.3c3.3-0.5,6.7,0,9.7,1.4c2.5,1.1,4.6,2.8,6.3,5c3.6,4.8,3.9,11.1,0.9,17.8c-6.4,14.1-16,16.1-22.2,13.6
				c-3.8-1.5-6.9-4.8-8.5-9c-1.3-3.4-2.3-9,0.4-16.5C642.6,563.6,647.4,559.2,653.6,558.3z"/>
			<path class="st1" d="M712.4,511.3c-4-7.3-10.8-13-18.9-16c-9-3.4-19.1-3.3-28.2,0c-10.2,3.8-18.5,11.3-24.1,21.9l-0.7,1.3
				c-1.5,2.9-3.4,6.4-5.4,10.3c-0.6,1.2-0.1,2.7,1.1,3.3c1.2,0.6,2.7,0.1,3.3-1.1c2-3.8,3.8-7.2,5.4-10.2l0.7-1.3
				c6.3-11.9,15.6-18.3,25.1-20.7c-2,4.4-3.4,10.4-2.8,16.5c0.1,0.9,0.6,1.6,1.4,2c0.4,0.2,0.8,0.2,1.2,0.2c1.3-0.1,2.3-1.3,2.2-2.7
				c-0.7-7.3,1.8-13.9,4-17c4.5-0.4,8.9,0.1,12.9,1.3c-3.7,5.2-7,12.4-8.5,18.9c-0.3,1.1,0.3,2.3,1.4,2.8c0.1,0.1,0.3,0.1,0.5,0.2
				c1.3,0.3,2.6-0.5,2.9-1.8c1.4-6.3,4.9-13.5,8.5-18.2c3.7,1.7,7.3,4.3,10.2,7.6c-4,3.5-7.5,8.6-10.5,15c-0.6,1.2,0,2.7,1.2,3.2
				c1.2,0.6,2.7,0,3.2-1.2c2.6-5.7,5.6-10.1,9-13.1c4.1,6.5,6,15.2,3.5,26.1c-1.3,5.9-6.5,11.4-11.6,16.7
				c-4.3,4.6-8.4,8.9-10.6,13.8l-12.5,28.6c-3.4,7.8-9.3,11.2-13.6,12.8c-6.9,2.5-14.8,2-21.3-1.4c-13.9-7.1-19.6-17.4-18-32.6
				c1-9.8,4.7-21.3,11.1-35.3c0.6-1.2,0-2.7-1.2-3.2c0,0,0,0,0,0c-1.2-0.6-2.6,0-3.2,1.2c-6.7,14.5-10.4,26.5-11.5,36.8
				c-1,9.5,0.7,17.7,5.1,24.3c3.5,5.3,8.6,9.6,15.5,13.1c0.4,0.2,0.8,0.4,1.2,0.6c7.4,3.4,16.3,3.8,24,1c7.5-2.7,13.2-8,16.4-15.4
				l12.5-28.6c1.8-4.1,5.6-8.1,9.7-12.4c5.5-5.8,11.1-11.8,12.8-19C718,529.2,716.9,519.4,712.4,511.3L712.4,511.3z"/>
			<path class="st1" d="M716.8,603.5c-3.3,7.3-4.3,14.2-2.8,20c1.3,5.3,4.7,9.6,9.4,12c0.2,0.1,0.5,0.2,0.7,0.3
				c4.7,2.1,10.3,2.3,15.6,0.4c6-2.2,11.1-6.8,14.8-13.3c4.1-7.3,4.5-15,1.2-21.4l3.9-3c1.1-0.8,1.3-2.3,0.4-3.4s-2.3-1.3-3.4-0.4
				l-3.6,2.8c-1.3-1.5-2.7-2.8-4.4-3.9l1.7-3.7c0.6-1.2,0-2.7-1.2-3.2c-1.2-0.6-2.7,0-3.2,1.2l-1.5,3.4c-2.1-0.8-4.3-1.4-6.6-1.5
				l0.4-3.3c0.2-1.3-0.8-2.5-2.1-2.7c-1.3-0.2-2.5,0.8-2.7,2.1l-0.5,4.1C725.8,591.2,720.3,596,716.8,603.5L716.8,603.5z
				 M735.2,594.6c2.7-0.2,5.4,0.3,7.9,1.5c3,1.4,5.6,3.6,7.4,6.4c3.4,5.3,3.2,11.8-0.3,18.1c-3.9,6.9-8.8,9.8-12.2,11.1
				c-4.2,1.5-8.8,1.4-12.4-0.5c-6-3.1-10.8-11.6-4.3-25.7C724.3,598.9,729.2,595,735.2,594.6L735.2,594.6z"/>
			<path class="st1" d="M780.6,607.5c0.5-1.2,0-2.7-1.2-3.2c-1.2-0.5-2.7,0-3.2,1.2c-6.4,14.2-12.7,24.5-19.5,31.8
				c-10.4,11.1-22,13.6-36.4,7.8c-6.6-2.7-12.4-8.5-15-15.2c-1.7-4.3-2.9-11,0.7-18.6l13.4-28.2c2.3-4.8,2.9-10.7,3.5-17
				c0.7-7.3,1.5-14.8,5-19.7c6.6-9.1,14.5-13.3,22-14.4c-0.1,4.6-1.4,9.7-4,15.4c-0.6,1.2,0,2.7,1.2,3.2s2.7,0,3.2-1.2
				c2.9-6.5,4.4-12.4,4.5-17.8c4.5,0,8.7,1.1,12.5,2.7c-1.1,5.8-4.3,13.1-8.1,18.3c-0.8,1.1-0.5,2.6,0.5,3.4
				c0.1,0.1,0.3,0.2,0.4,0.2c1,0.5,2.3,0.2,3-0.8c3.9-5.4,7.2-12.6,8.6-18.8c3.5,2.3,6.8,5.3,9.5,8.9c-1,3.7-4.2,10-10.2,14.2
				c-1.1,0.8-1.4,2.3-0.6,3.4c0.3,0.4,0.6,0.6,1,0.8c0.8,0.3,1.7,0.3,2.4-0.2c5.1-3.6,8.7-8.5,10.7-12.9c4.4,8.7,5.7,20,0.8,32.6
				l-0.6,1.7c-1.2,3-2.5,6.5-4,10.2c-0.5,1.2,0.1,2.7,1.3,3.2c1.2,0.5,2.7-0.1,3.2-1.3c1.5-3.8,2.9-7.3,4-10.3l0.6-1.7
				c4.3-11.2,4.5-22.4,0.7-32.6c-3.5-9.2-10-16.7-18.5-21.3c-7.7-4.2-16.4-5.5-24.5-3.8c-9,1.9-17.1,7.5-23.4,16.1
				c-4.4,6-5.2,14.1-5.9,22.1c-0.6,5.9-1.1,11.4-3,15.4l-13.4,28.2c-3.5,7.3-3.8,15.1-0.9,22.5c3,7.6,9.1,14.1,16.5,17.4
				c0.4,0.2,0.8,0.4,1.2,0.5c7.3,2.9,13.8,4,20.1,3.1c7.9-1,15.2-5.1,21.7-12.1C767.4,633,774,622.2,780.6,607.5L780.6,607.5z"/>
		</g>
	</g>
	<path class="st1" d="M1105,355.1c-14.9,5.6-31.6-2-37.2-16.9l-16-42.6l-42.6,16c-14.9,5.6-31.6-2-37.2-16.9s2-31.6,16.9-37.2
		l42.6-16l-16-42.6c-5.6-14.9,2-31.6,16.9-37.2c14.9-5.6,31.6,2,37.2,16.9l16,42.6l42.6-16c14.9-5.6,31.6,2,37.2,16.9
		c5.6,14.9-2,31.6-16.9,37.2l-42.6,16l16,42.6C1127.5,332.8,1119.9,349.5,1105,355.1z M993.2,269.1c-8.5,3.2-12.8,12.7-9.6,21.3
		c3.2,8.5,12.7,12.8,21.3,9.6l48.4-18.2c3.2-1.2,6.8,0.4,8,3.6l18.2,48.4c3.2,8.5,12.7,12.8,21.3,9.6c8.5-3.2,12.8-12.7,9.6-21.3
		l-18.2-48.4c-1.2-3.2,0.4-6.8,3.6-8l48.4-18.2c8.5-3.2,12.8-12.7,9.6-21.3c-3.2-8.5-12.7-12.8-21.3-9.6l-48.4,18.2
		c-3.2,1.2-6.8-0.4-8-3.6l-18.2-48.4c-3.2-8.5-12.7-12.8-21.3-9.6c-8.5,3.2-12.8,12.7-9.6,21.3l18.2,48.4c1.2,3.2-0.4,6.8-3.6,8
		L993.2,269.1z"/>
	<path class="st1" d="M1963.7,1268.6c-7.4,2.8-15.8-1-18.6-8.4l-8-21.3l-21.3,8c-7.4,2.8-15.8-1-18.6-8.4c-2.8-7.4,1-15.8,8.4-18.6
		l21.3-8l-8-21.3c-2.8-7.4,1-15.8,8.4-18.6c7.4-2.8,15.8,1,18.6,8.4l8,21.3l21.3-8c7.4-2.8,15.8,1,18.6,8.4c2.8,7.4-1,15.8-8.4,18.6
		l-21.3,8l8,21.3C1975,1257.4,1971.2,1265.8,1963.7,1268.6z M1907.9,1225.7c-4.3,1.6-6.4,6.4-4.8,10.6c1.6,4.3,6.4,6.4,10.6,4.8
		l24.2-9.1c1.6-0.6,3.4,0.2,4,1.8l9.1,24.2c1.6,4.3,6.4,6.4,10.6,4.8c4.3-1.6,6.4-6.4,4.8-10.6l-9.1-24.2c-0.6-1.6,0.2-3.4,1.8-4
		l24.2-9.1c4.3-1.6,6.4-6.4,4.8-10.6c-1.6-4.3-6.4-6.4-10.6-4.8l-24.2,9.1c-1.6,0.6-3.4-0.2-4-1.8l-9.1-24.2
		c-1.6-4.3-6.4-6.4-10.6-4.8c-4.3,1.6-6.4,6.4-4.8,10.6l9.1,24.2c0.6,1.6-0.2,3.4-1.8,4L1907.9,1225.7z"/>
	<path class="st1" d="M1062,1592c-14.5-6.6-21-23.7-14.4-38.2l18.8-41.4l-41.4-18.8c-14.5-6.6-21-23.7-14.4-38.2
		c6.6-14.5,23.7-21,38.2-14.4l41.4,18.8l18.8-41.4c6.6-14.5,23.7-21,38.2-14.4c14.5,6.6,21,23.7,14.4,38.2l-18.8,41.4l41.4,18.8
		c14.5,6.6,21,23.7,14.4,38.2c-6.6,14.5-23.7,21-38.2,14.4l-41.4-18.8l-18.8,41.4C1093.7,1592.2,1076.5,1598.6,1062,1592z
		 M1043.8,1452.2c-8.3-3.8-18.1-0.1-21.9,8.2c-3.8,8.3-0.1,18.1,8.2,21.9l47.1,21.3c3.1,1.4,4.5,5.1,3.1,8.2l-21.3,47.1
		c-3.8,8.3-0.1,18.1,8.2,21.9c8.3,3.8,18.1,0.1,21.9-8.2l21.3-47.1c1.4-3.1,5.1-4.5,8.2-3.1l47.1,21.3c8.3,3.8,18.1,0.1,21.9-8.2
		c3.8-8.3,0.1-18.1-8.2-21.9l-47.1-21.3c-3.1-1.4-4.5-5.1-3.1-8.2l21.3-47.1c3.8-8.3,0.1-18.1-8.2-21.9c-8.3-3.8-18.1-0.1-21.9,8.2
		l-21.3,47.1c-1.4,3.1-5.1,4.5-8.2,3.1L1043.8,1452.2z"/>
	<g>
		<path class="st1" d="M449.5,1408.6c-1.1,1.1-2.6,1.7-4.1,1.7l-99.8,0c-30.7,0-55.7-25-55.7-55.7c0-14.9,5.8-28.9,16.3-39.4
			c9.2-9.2,21.1-14.8,33.8-16c1.3-12.8,6.8-24.6,16-33.8c10.5-10.5,24.5-16.3,39.4-16.3c30.7,0,55.7,25,55.7,55.7l0,99.8
			C451.2,1406.1,450.6,1407.5,449.5,1408.6z M314.4,1323.5c-8.3,8.3-12.9,19.4-12.9,31.2c0,24.3,19.8,44.1,44.1,44.1h93.9v-93.9
			c0-24.3-19.8-44.1-44.1-44.1c-11.8,0-22.8,4.6-31.2,12.9c-8.3,8.3-12.9,19.4-12.9,31.2c0,3.2-2.6,5.8-5.8,5.8
			C333.8,1310.6,322.8,1315.1,314.4,1323.5z"/>
		<path class="st1" d="M428.1,1308.9c-1.1,1.1-2.5,1.7-4.1,1.7c-3.2,0-5.8-2.6-5.8-5.8c0-6-2.4-11.7-6.6-16c-4.3-4.3-10-6.7-16-6.7
			c-6.1,0-11.7,2.4-16,6.6c-2.3,2.3-6,2.3-8.2,0c-2.3-2.3-2.3-6,0-8.2c6.5-6.5,15.1-10.1,24.3-10.1c9.2,0,17.8,3.6,24.3,10.1
			c6.5,6.5,10.1,15.1,10.1,24.3C429.8,1306.3,429.2,1307.8,428.1,1308.9z"/>
	</g>
	<g>
		<path class="st1" d="M698.7,1689.9c-1.2-1.2-1.8-2.7-1.8-4.3l0-105.2c0-32.4,26.4-58.7,58.7-58.7c15.7,0,30.4,6.1,41.5,17.2
			c9.7,9.7,15.6,22.2,16.9,35.7c13.5,1.3,26,7.2,35.7,16.9c11.1,11.1,17.2,25.8,17.2,41.5c0,32.4-26.4,58.7-58.7,58.7l-105.2,0
			C701.4,1691.7,699.8,1691,698.7,1689.9z M788.5,1547.5c-8.8-8.8-20.4-13.6-32.8-13.6c-25.6,0-46.4,20.8-46.4,46.4v99h99
			c25.6,0,46.4-20.8,46.4-46.4c0-12.4-4.8-24.1-13.6-32.8c-8.8-8.8-20.4-13.6-32.8-13.6c-3.4,0-6.1-2.8-6.1-6.1
			C802.1,1568,797.2,1556.3,788.5,1547.5z"/>
		<path class="st1" d="M803.9,1667.3c-1.1-1.1-1.8-2.6-1.8-4.3c0-3.4,2.8-6.1,6.2-6.1c6.4,0,12.4-2.5,16.9-7c4.5-4.5,7-10.5,7-16.9
			c0-6.4-2.5-12.4-7-16.9c-2.4-2.4-2.4-6.3,0-8.7c2.4-2.4,6.3-2.4,8.7,0c6.8,6.8,10.6,15.9,10.6,25.6c0,9.7-3.8,18.7-10.6,25.6
			c-6.8,6.8-15.9,10.6-25.6,10.6C806.5,1669.1,805,1668.5,803.9,1667.3z"/>
	</g>
	<g>
		<path class="st1" d="M2142.2,363.1c-0.6-0.6-0.9-1.4-0.9-2.2l0-53.6c0-16.5,13.4-29.9,29.9-29.9c8,0,15.5,3.1,21.2,8.8
			c4.9,4.9,7.9,11.3,8.6,18.2c6.9,0.7,13.2,3.7,18.2,8.6c5.7,5.7,8.8,13.2,8.8,21.2c0,16.5-13.4,29.9-29.9,29.9l-53.6,0
			C2143.6,364,2142.8,363.7,2142.2,363.1z M2188,290.5c-4.5-4.5-10.4-6.9-16.7-6.9c-13.1,0-23.7,10.6-23.7,23.7v50.5h50.5
			c13.1,0,23.7-10.6,23.7-23.7c0-6.3-2.5-12.3-6.9-16.7c-4.5-4.5-10.4-6.9-16.7-6.9c-1.7,0-3.1-1.4-3.1-3.1
			C2194.9,300.9,2192.4,295,2188,290.5z"/>
		<path class="st1" d="M2195.8,351.6c-0.6-0.6-0.9-1.3-0.9-2.2c0-1.7,1.4-3.1,3.1-3.1c3.2,0,6.3-1.3,8.6-3.6
			c2.3-2.3,3.6-5.4,3.6-8.6c0-3.3-1.3-6.3-3.6-8.6c-1.2-1.2-1.2-3.2,0-4.4c1.2-1.2,3.2-1.2,4.4,0c3.5,3.5,5.4,8.1,5.4,13
			c0,4.9-1.9,9.6-5.4,13c-3.5,3.5-8.1,5.4-13,5.4C2197.2,352.5,2196.4,352.2,2195.8,351.6z"/>
	</g>
	<path class="st1" d="M1946.8,317.6c-8.5-7.8-21.9-7.2-29.7,1.3c-6.5,7.2-7.2,17.7-2.2,25.5l-1.3,1.4c-12.5,13.7-33.8,14.6-47.5,2.1
		c-13.7-12.5-14.6-33.8-2.1-47.5l22.8-24.9c22.8,17.7,55.8,15.3,75.6-6.4l15.7-17.1l6.1,5.6c2.2,2,5.6,1.9,7.7-0.3
		c2-2.2,1.9-5.6-0.3-7.7l-10.1-9.2c-2.2-2-5.6-1.9-7.7,0.3l-19.3,21.1c-16.8,18.3-45.3,19.6-63.7,2.8c-18.3-16.8-19.6-45.3-2.8-63.7
		l19.3-21.1c2-2.2,1.9-5.6-0.3-7.7l-10.1-9.3c-2.2-2-5.6-1.9-7.7,0.3c-2,2.2-1.9,5.6,0.3,7.7l6.1,5.6l-15.7,17.1
		c-19.4,21.2-19.3,53.3-0.9,74.4l-22.9,25c-16.6,18.1-15.3,46.3,2.8,62.8c18.1,16.6,46.3,15.3,62.8-2.8l1.3-1.4
		c8.2,4.3,18.6,2.7,25.2-4.4C1956,338.7,1955.4,325.4,1946.8,317.6z M1925.8,340.6c-4.1-3.8-4.4-10.2-0.6-14.3
		c3.8-4.1,10.2-4.4,14.3-0.6c4.1,3.8,4.4,10.2,0.6,14.3C1936.4,344,1929.9,344.3,1925.8,340.6z"/>
	<path class="st1" d="M388.4,763.4c-7.8,8.5-7.2,21.9,1.3,29.7c7.2,6.5,17.7,7.2,25.5,2.2l1.4,1.3c13.7,12.5,14.6,33.8,2.1,47.5
		c-12.5,13.7-33.8,14.6-47.5,2.1l-24.9-22.8c17.7-22.8,15.3-55.8-6.4-75.6l-17.1-15.7l5.6-6.1c2-2.2,1.9-5.6-0.3-7.7
		c-2.2-2-5.6-1.9-7.7,0.3l-9.2,10.1c-2,2.2-1.9,5.6,0.3,7.7l21.1,19.3c18.3,16.8,19.6,45.3,2.8,63.7c-16.8,18.3-45.3,19.6-63.7,2.8
		L250.6,803c-2.2-2-5.6-1.9-7.7,0.3l-9.3,10.1c-2,2.2-1.9,5.6,0.3,7.7c2.2,2,5.6,1.9,7.7-0.3l5.6-6.1l17.1,15.7
		c21.2,19.4,53.3,19.3,74.4,0.9l25,22.9c18.1,16.6,46.3,15.3,62.8-2.8c16.6-18.1,15.3-46.3-2.8-62.8l-1.4-1.3
		c4.3-8.2,2.7-18.6-4.4-25.2C409.5,754.2,396.2,754.8,388.4,763.4z M411.4,784.4c-3.8,4.1-10.2,4.4-14.3,0.6
		c-4.1-3.8-4.4-10.2-0.6-14.3c3.8-4.1,10.2-4.4,14.3-0.6C414.8,773.8,415.1,780.3,411.4,784.4z"/>
	<path class="st1" d="M1387.1,1187.5c-4.3,4.7-4,12.1,0.7,16.4c4,3.6,9.7,4,14.1,1.2l0.8,0.7c7.6,6.9,8.1,18.7,1.2,26.2
		c-6.9,7.6-18.7,8.1-26.2,1.2l-13.7-12.6c9.8-12.6,8.4-30.8-3.5-41.7l-9.5-8.6l3.1-3.4c1.1-1.2,1-3.1-0.2-4.2
		c-1.2-1.1-3.1-1-4.2,0.2l-5.1,5.6c-1.1,1.2-1,3.1,0.2,4.2l11.7,10.7c10.1,9.3,10.8,25,1.6,35.1c-9.3,10.1-25,10.8-35.1,1.6
		l-11.7-10.7c-1.2-1.1-3.1-1-4.2,0.2l-5.1,5.6c-1.1,1.2-1,3.1,0.2,4.2c1.2,1.1,3.1,1,4.2-0.2l3.1-3.4l9.5,8.6
		c11.7,10.7,29.4,10.7,41.1,0.5l13.8,12.6c10,9.1,25.6,8.4,34.7-1.5c9.1-10,8.4-25.6-1.5-34.7l-0.8-0.7c2.4-4.5,1.5-10.3-2.5-13.9
		C1398.8,1182.5,1391.4,1182.8,1387.1,1187.5z M1399.8,1199.2c-2.1,2.3-5.6,2.4-7.9,0.4c-2.3-2.1-2.4-5.6-0.4-7.9
		c2.1-2.3,5.6-2.4,7.9-0.4C1401.7,1193.3,1401.9,1196.9,1399.8,1199.2z"/>
	<path class="st1" d="M284.4,558.9c-22.9,0-41.5-18.6-41.5-41.5s18.6-41.5,41.5-41.5s41.5,18.6,41.5,41.5S307.3,558.9,284.4,558.9z
		 M284.4,481.4c-19.9,0-36.1,16.2-36.1,36.1c0,19.9,16.2,36.1,36.1,36.1s36.1-16.2,36.1-36.1C320.5,497.6,304.3,481.4,284.4,481.4z"
		/>
	<path class="st1" d="M685.7,911.3c-16.7,0-30.3-13.6-30.3-30.3s13.6-30.3,30.3-30.3c16.7,0,30.3,13.6,30.3,30.3
		S702.4,911.3,685.7,911.3z M685.7,856.1c-13.7,0-24.9,11.2-24.9,24.9s11.2,24.9,24.9,24.9c13.7,0,24.9-11.2,24.9-24.9
		S699.4,856.1,685.7,856.1z"/>
	<path class="st1" d="M1913,1044.7c-25.9,0-46.9-21.1-46.9-46.9c0-25.9,21.1-46.9,46.9-46.9c25.9,0,46.9,21.1,46.9,46.9
		C1959.9,1023.6,1938.9,1044.7,1913,1044.7z M1913,956.2c-22.9,0-41.5,18.6-41.5,41.5s18.6,41.5,41.5,41.5
		c22.9,0,41.5-18.6,41.5-41.5S1935.9,956.2,1913,956.2z"/>
	<path class="st1" d="M2155.6,1163.1c-15.9,0-28.9-13-28.9-28.9c0-15.9,13-28.9,28.9-28.9s28.9,13,28.9,28.9
		C2184.6,1150.1,2171.6,1163.1,2155.6,1163.1z M2155.6,1110.7c-13,0-23.5,10.5-23.5,23.5c0,13,10.5,23.5,23.5,23.5
		s23.5-10.5,23.5-23.5C2179.1,1121.2,2168.6,1110.7,2155.6,1110.7z"/>
	<path class="st1" d="M1153,563.3c-28.1,0-51-22.9-51-51c0-28.1,22.9-51,51-51c28.1,0,51,22.9,51,51
		C1204,540.4,1181.1,563.3,1153,563.3z M1153,466.7c-25.1,0-45.6,20.5-45.6,45.6c0,25.1,20.5,45.6,45.6,45.6
		c25.1,0,45.6-20.5,45.6-45.6C1198.6,487.1,1178.1,466.7,1153,466.7z"/>
	<path class="st1" d="M1129.7,1271.3c-15.3,0-27.8-12.5-27.8-27.8s12.5-27.8,27.8-27.8c15.3,0,27.8,12.5,27.8,27.8
		S1145,1271.3,1129.7,1271.3z M1129.7,1221.2c-12.3,0-22.3,10-22.3,22.3c0,12.3,10,22.3,22.3,22.3c12.3,0,22.3-10,22.3-22.3
		C1152.1,1231.2,1142,1221.2,1129.7,1221.2z"/>
</g>
</svg>
