<svg xmlns="http://www.w3.org/2000/svg" xmlns:xlink="http://www.w3.org/1999/xlink" width="453.89" height="453.89" viewBox="0 0 453.89 453.89">
  <defs>
    <clipPath id="clip-path">
      <path id="Trazado_19187" data-name="Trazado 19187" d="M979.28,322.22a49.661,49.661,0,0,1-18.189,9.076c-9.036,2.467-19.412.066-27.472-4.282-13.33-7.19-14.277-21.77-17.778-34.682l26.233-6.714a49.1,49.1,0,0,1,24.328,0l26.234,6.715c-2.174,8.016-3.5,16.524-7.92,23.753A25.477,25.477,0,0,1,979.28,322.22Z" fill="#81bace"/>
    </clipPath>
    <radialGradient id="radial-gradient" cx="0.5" cy="0.5" r="0.5" gradientTransform="translate(0)" gradientUnits="objectBoundingBox">
      <stop offset="0.465" stop-color="#fff" stop-opacity="0"/>
      <stop offset="1" stop-color="#fff"/>
    </radialGradient>
  </defs>
  <g id="Grupo_13101" data-name="Grupo 13101" transform="translate(-732.91 -155.44)">
    <path id="Trazado_19156" data-name="Trazado 19156" d="M1037.44,595.72q-3.42,1.245-6.9,2.38a226.648,226.648,0,0,1-70.69,11.23c-3.52,0-7.03-.08-10.51-.25a225.465,225.465,0,0,1-68.93-14.05c-3.2-1.2-6.38-2.47-9.51-3.81,1.31-24.29,2.31-45.41,2.29-54.27q-.06-38.43.48-76.88c.33-24.5-1.5-49.95,2.58-74.2,3.35-19.91,12.44-39.02,34.58-41.02,13.17-1.2,26.41-2.59,39.67-2.76v-.03c.47,0,.94.01,1.42.01s.94-.02,1.41-.02v.03c13.27.13,26.51,1.48,39.68,2.62,17.7,1.55,28.67,15.76,32.35,31.95,5.1,22.42,5.65,45.67,4.8,68.56-.88,23.45.6,46.82,1.88,70.25C1033.5,542.3,1033.23,569.28,1037.44,595.72Z" fill="#fff"/>
    <g id="Grupo_13095" data-name="Grupo 13095">
      <path id="Trazado_19157" data-name="Trazado 19157" d="M867.092,370.13c9.385-11.2,20.151-22.182,34.939-25.448,8.628-1.9,23.933-1.369,25.337,9.778.784,6.225-4.547,11.4-8.087,16.692-3.935,5.879-6.131,12.855-9.209,19.172-6.173,12.669-15.63,23.067-23.6,34.664-8.858,12.895-15.3,27.525-24.456,40.092-7.055,9.686-16.5,20-27.79,24.912-9.348,4.07-21.21,3.255-26.015-6.617-4.263-8.759-2.854-20.261.33-29.245,2.239-6.32,6.53-11.48,10.7-16.669,5.316-6.619,9.621-13.756,14.2-20.85A464.675,464.675,0,0,1,867.092,370.13Z" fill="#fff"/>
      <path id="Trazado_19158" data-name="Trazado 19158" d="M1070.562,494.127c-14.886-.814-32.742-17.239-40.315-26.782-22.553-28.422-53.582-64.873-51.958-103.105.171-4.028.792-8.193,3.017-11.555,12.365-18.685,48.787-2.557,59.831,9.334,10.83,11.662,17.824,25.979,24.939,40.038,7.8,15.4,15.569,30.956,20.721,47.5,2.793,8.969,6.145,21.417,2.506,30.555C1085.016,490.875,1078.178,494.544,1070.562,494.127Z" fill="#fff"/>
      <path id="Trazado_19159" data-name="Trazado 19159" d="M959.85,609.33a226.648,226.648,0,0,0,70.69-11.23c-.27-2.51-.6-5.01-.98-7.48-3.66-23.93-10.94-51.89-41.14-52.88-11.44-.38-24.15-.11-32.52,7.71a24.093,24.093,0,0,0-3.61,4.29c-4.43,6.71-5.71,15.46-6.05,23.68-.52,12.18,1.08,23.95,3.1,35.66Z" fill="#1f314e"/>
      <path id="Trazado_19160" data-name="Trazado 19160" d="M959.85,609.33q.36-6.45.69-12.88c.8-15.92.6-34.5-8.25-46.71-4.38-6.04-10.87-10.53-20.4-12.37-17.08-3.29-39.97,12.95-45.08,29.58a180.968,180.968,0,0,0-6.4,28.08,225.465,225.465,0,0,0,68.93,14.05Z" fill="#1f314e"/>
      <g id="Grupo_13087" data-name="Grupo 13087">
        <path id="Trazado_19161" data-name="Trazado 19161" d="M922.643,334.759,950.78,448.484l38.589-118.34Z" fill="#5790a6"/>
        <g id="Grupo_13086" data-name="Grupo 13086">
          <path id="Trazado_19162" data-name="Trazado 19162" d="M923.813,334.691l30.426,29.447,37.114-29.447Z" fill="#e29f7b"/>
        </g>
        <line id="Línea_195" data-name="Línea 195" x2="4.588" y2="160.685" transform="translate(950.78 448.484)" fill="none" stroke="#b9c4c8" stroke-miterlimit="10" stroke-width="0.98"/>
        <path id="Trazado_19163" data-name="Trazado 19163" d="M950.78,448.484,940.615,407.4s7.566-28.625,7.866-30.74a17.605,17.605,0,0,1-4.516-2.868c-2.567-3.533.673-8.74,1.945-12.233,0,0,17.381-1.306,17.75-.875.907,1.057.917,4.158,1.179,5.459.472,2.348,1.262,5.221.122,7.481a6.707,6.707,0,0,1-3.017,2.773,22.714,22.714,0,0,0-2.531,1.344c1.534,7.648,1.534,7.648,3.069,15.295.79,3.941,2.474,11.976,2.474,11.976Z" fill="#1f314e"/>
      </g>
      <g id="Grupo_13088" data-name="Grupo 13088">
        <path id="Trazado_19164" data-name="Trazado 19164" d="M982.645,338.2c5.067,3.128,8.509,7.231,12.3,13.913,5.668,9.987,7.745,21.581,9.11,32.984a316.423,316.423,0,0,1,1.579,57.938" fill="none" stroke="#525252" stroke-miterlimit="10" stroke-width="3.594"/>
        <path id="Trazado_19165" data-name="Trazado 19165" d="M924.068,337.892c-13.282,8.51-20.835,26.214-24.142,40.732-3.83,16.817-3.881,26.98-3.882,44.059" fill="none" stroke="#525252" stroke-miterlimit="10" stroke-width="3.594"/>
        <path id="Trazado_19166" data-name="Trazado 19166" d="M910.27,441.6c-.329,6.112-2.275,12.439-3.272,18.019l-6.333,35.441c-1.58,8.841-3.885,18.772-11.622,23.333-6.639,3.913-15,2.454-22.545.875" fill="none" stroke="#8d8d8d" stroke-miterlimit="10" stroke-width="3.268"/>
        <path id="Trazado_19167" data-name="Trazado 19167" d="M882.53,443.5c-.743-4.977-1.475-10.549,1.5-14.983,2.763-4.117,8.088-6.228,12.938-5.769a14.11,14.11,0,0,1,10.776,6.732A21.016,21.016,0,0,1,910.27,441.6" fill="none" stroke="#525252" stroke-miterlimit="10" stroke-width="3.594"/>
        <path id="Trazado_19168" data-name="Trazado 19168" d="M923.684,520.154c-7.585,1.364-15.987,2.583-22.511-1.518-7.6-4.779-9.624-14.772-10.951-23.655L882.53,443.5" fill="none" stroke="#8d8d8d" stroke-miterlimit="10" stroke-width="3.268"/>
        <circle id="Elipse_717" data-name="Elipse 717" cx="13.266" cy="13.266" r="13.266" transform="translate(993.026 433.574)" fill="#cacfd6"/>
        <circle id="Elipse_718" data-name="Elipse 718" cx="6.112" cy="6.112" r="6.112" transform="matrix(0.606, -0.795, 0.795, 0.606, 997.726, 447.994)" fill="#89898a"/>
        <circle id="Elipse_719" data-name="Elipse 719" cx="4.11" cy="4.11" r="4.11" transform="translate(862.388 515.158)" fill="#525252"/>
        <circle id="Elipse_720" data-name="Elipse 720" cx="4.11" cy="4.11" r="4.11" transform="translate(919.958 515.158)" fill="#525252"/>
      </g>
      <path id="Trazado_19169" data-name="Trazado 19169" d="M838.456,422.021c.523,6.622,1.009,13.246,1.349,19.878a134.246,134.246,0,0,1-.72,26.207c-.979,6.737-1.834,14.978-8.524,18.593a20.509,20.509,0,0,1-10.509,2.114c-7.691-.279-15.173-3.68-17.02-11.348a96.091,96.091,0,0,1-2.511-27.713c.733-16.872,2.623-33.727,3.908-50.556,1.165-15.245,1.813-30.6,5.665-45.545,1.4-5.436,3.836-10.431,9.588-12.142,4.718-1.4,10.116-.021,12.293,4.588,3.164,6.7,3.3,14.637,3.213,21.984-.1,8.043.567,16.142,1.038,24.176C836.808,402.188,837.673,412.1,838.456,422.021Z" fill="#e29f7b"/>
      <path id="Trazado_19170" data-name="Trazado 19170" d="M936.095,347.372c13.048,2.981,26.725,3.829,39.154-.79a7.131,7.131,0,0,0,3.537-2.28c2.1-3.012-2.483-9.367-3.286-12.351-1.454-5.4-1.311-10.967-1.16-16.463.176-6.415.226-12.847.578-19.252a86.752,86.752,0,0,0-20.63-1.736c-6.31.23-12.613-.353-18.92-.025a2.432,2.432,0,0,0-1.417.37,1.678,1.678,0,0,0-.47,1.2c-.845,8.662-.014,17.434-.677,26.111-.371,4.855-1.035,10.408-3.252,14.912-.814,1.652-4.088,5.825-2.393,7.615a3.367,3.367,0,0,0,1.569.775C931.152,346.16,933.612,346.8,936.095,347.372Z" fill="#e29f7b"/>
      <path id="Trazado_19171" data-name="Trazado 19171" d="M975.211,330.783c-1.132-5.021-.836-10.281-.7-15.367.176-6.415.227-12.847.578-19.252a86.744,86.744,0,0,0-20.63-1.736c-6.31.23-12.612-.353-18.919-.025a2.435,2.435,0,0,0-1.418.37,1.677,1.677,0,0,0-.469,1.2c-.846,8.662-.015,17.434-.677,26.112a56.579,56.579,0,0,1-1.061,7.421c.991.767,2,1.5,3.036,2.18a35.808,35.808,0,0,0,27.607,4.446A42.878,42.878,0,0,0,975.211,330.783Z" fill="#cb775e"/>
      <path id="Trazado_19172" data-name="Trazado 19172" d="M987.542,302.859c-5.953,7.187-14.294,11.921-22.556,16.26a27.1,27.1,0,0,1-6.32,2.647c-6.842,1.6-13.748-2.109-19.454-6.208a112.629,112.629,0,0,1-21.193-19.844c-6.209-7.537-9.68-15.775-13.728-24.644-4.075-8.929-4.968-17.905-4.109-27.664.884-10.026-4.721-18.982-2.189-29.115a28.967,28.967,0,0,1,10.881-16.19,20.915,20.915,0,0,1,9.948-4.139c8.077-.878,14.946,4.612,22.929,4.989,8.055.379,15.805-2.554,23.544-4.316,6.764-1.54,14.169-2.385,20.878-.089,7.468,2.555,11.065,8.269,15.194,14.883,3.53,5.652,8.841,9.892,13.088,14.909,5.691,6.723,7.487,15.278,5.68,24.034a74.571,74.571,0,0,1-8.173,21.566c-3.28,5.715-6.848,11.732-10.71,17.148-2.939,4.123-6.162,7.161-9.6,10.757C990.166,299.4,988.929,301.183,987.542,302.859Z" fill="#1f314e"/>
      <path id="Trazado_19173" data-name="Trazado 19173" d="M913.095,269.212c-10.669-5.972-14.119,8.848-12.347,16.258a23.59,23.59,0,0,0,3.778,8.581c2.518,3.408,9.762,9.092,14,5.433,1.925-1.66,2.15-4.511,2.234-7.052C920.989,285.62,920.327,273.261,913.095,269.212Z" fill="#cb775e"/>
      <path id="Trazado_19174" data-name="Trazado 19174" d="M994.858,268.476A75.323,75.323,0,0,0,991.334,246c-9.409-27.861-44.346-34.419-65.144-14.146-23.193,22.608-13.7,76.018,11.151,94.566a27.674,27.674,0,0,0,23.61,4.407C985.119,324.092,995.266,294.168,994.858,268.476Z" fill="#e29f7b"/>
      <path id="Trazado_19175" data-name="Trazado 19175" d="M997.594,269.534c10.67-5.972,14.119,8.848,12.347,16.258a23.575,23.575,0,0,1-3.777,8.58c-2.518,3.408-9.763,9.093-14,5.434-1.925-1.661-2.15-4.512-2.234-7.053C989.7,285.941,990.362,273.582,997.594,269.534Z" fill="#e29f7b"/>
      <path id="Trazado_19176" data-name="Trazado 19176" d="M997.993,246.994c-10.583-27.85-47.438-35.445-70.939-15.145-5.5,4.748-11.351,12.217-13.9,19.053-2.732,7.323-2.016,15.42-1.261,23.2a30.025,30.025,0,0,1,7.812-16.988,56.425,56.425,0,0,1,6.856-6.475c.887-.72,7.55-6.773,6.911-7.606,2.371,3.088,4.722,6.159,8.376,7.71a78.135,78.135,0,0,0,14.144,4.107C964.523,256.7,971.2,259.1,977.4,265.49a109.645,109.645,0,0,1,12.07,15.212c.5.754,3.563,4.778,3.2,5.587q2.548-5.721,4.659-11.625c1.342-3.754,2.876-7.337,2.809-11.39C1000,255.05,1000.446,253.449,997.993,246.994Z" fill="#cb775e"/>
      <path id="Trazado_19177" data-name="Trazado 19177" d="M953.013,361.2l15.019,17.822,29.778-34.986-16.286-9.627Z" fill="#62acca"/>
      <path id="Trazado_19178" data-name="Trazado 19178" d="M954.625,361.2l-15.019,17.822-29.778-34.986,16.286-9.627Z" fill="#62acca"/>
      <path id="Trazado_19179" data-name="Trazado 19179" d="M993.905,276.342l-2.285,19.7-2.571-.472Z" fill="#81bace"/>
      <path id="Trazado_19180" data-name="Trazado 19180" d="M911.958,273.988l7.962,21.438-2.5.769Z" fill="#81bace"/>
      <path id="Trazado_19181" data-name="Trazado 19181" d="M984.712,263.488c3.062,3.389,5.269,5.3,6.319,9.747,1.134,4.8,1.456,6.2,1.572,13.587,5.677-12.853,8.367-15.5,8.711-25.476.428-12.424,1-15.285-2.035-23.778-1.961-5.49-2.179-11.777-6.643-15.959-12.885-12.076-22.089-11.8-40.729-10.577-6.548.431-11.888,2.738-18.036,4.52-5.646,1.636-9.963,2.708-14.111,7.354-3.69,4.134-6.056,9.278-7.912,14.5-3.026,8.513-4.739,17.286-4.074,26.331.426,5.783,5.854,16.014,5.854,16.014-.391-.16-.042-7.157-.046-7.939a73.591,73.591,0,0,1,.3-7.828,29.948,29.948,0,0,1,7.044-16.154c3.787-4.546,8.787-8.661,9.845-14.483,8.968,8.715,19.549,14.173,31.333,18.23,4.6,1.584,9.47,2.751,13.632,5.366C978.65,258.77,982.4,260.927,984.712,263.488Z" fill="#1f314e"/>
      <path id="Trazado_19182" data-name="Trazado 19182" d="M902.705,245.07c-.09-4.35-2.981-8.047-5.186-11.8a31.712,31.712,0,0,1-3.958-19.559A25.915,25.915,0,0,1,906,194.5a21.691,21.691,0,0,1,16.817-2.323c5.257,1.5,9.531,5.525,14.633,6.922,11.436,3.129,23.153-6.168,34.031-8.416,10.772-2.226,22.289,1.4,27.676,12.226,2.126,4.271,3.06,9.219,5.837,13.052,4.637,6.4,13.556,8.515,17.245,15.569,6.025,11.516-5.951,28.355-12.041,37.309" fill="none" stroke="#1f314e" stroke-miterlimit="10" stroke-width="1.307"/>
      <g id="Grupo_13090" data-name="Grupo 13090">
        <g id="Grupo_13089" data-name="Grupo 13089">
          <path id="Trazado_19183" data-name="Trazado 19183" d="M929.735,211.06c8.876.573,17.521-1.347,26.191-3.117a88.536,88.536,0,0,1,13.26-1.348q3.335-.1,6.673.035a41.882,41.882,0,0,1,6.7.664,18.785,18.785,0,0,1,11.454,7.1,12.775,12.775,0,0,1,1.929,6.606,45.56,45.56,0,0,0,.55,6.506,13.616,13.616,0,0,0,2.81,5.684,36.619,36.619,0,0,1,3.8,5.5,16.847,16.847,0,0,1,1.523,6.522,46.045,46.045,0,0,1-.242,6.637,57,57,0,0,0-.148-6.606,16.314,16.314,0,0,0-1.776-6.223,36.934,36.934,0,0,0-3.9-5.26,14.687,14.687,0,0,1-3.179-6,37.876,37.876,0,0,1-.715-6.669,11.494,11.494,0,0,0-1.767-5.942,12.179,12.179,0,0,0-2.132-2.3,18.042,18.042,0,0,0-2.569-1.878,18.967,18.967,0,0,0-5.944-2.241,40.62,40.62,0,0,0-6.464-.7q-3.285-.164-6.577-.1a104.938,104.938,0,0,0-13.11,1.123c-4.323.682-8.7,1.59-13.107,2.036A58.622,58.622,0,0,1,929.735,211.06Z" fill="#89b6d1"/>
        </g>
      </g>
      <g id="Grupo_13093" data-name="Grupo 13093">
        <path id="Trazado_19184" data-name="Trazado 19184" d="M979.28,322.22a49.661,49.661,0,0,1-18.189,9.076c-9.036,2.467-19.412.066-27.472-4.282-13.33-7.19-14.277-21.77-17.778-34.682l26.233-6.714a49.1,49.1,0,0,1,24.328,0l26.234,6.715c-2.174,8.016-3.5,16.524-7.92,23.753A25.477,25.477,0,0,1,979.28,322.22Z" fill="#81bace"/>
        <g id="Grupo_13092" data-name="Grupo 13092" clip-path="url(#clip-path)">
          <g id="Grupo_13091" data-name="Grupo 13091" opacity="0.3" style="mix-blend-mode: multiply;isolation: isolate">
            <path id="Trazado_19185" data-name="Trazado 19185" d="M969.422,330.928c6.544-2.812,13.239-5.7,18.763-10.216,5.431-4.441,6.49-10.01,6.293-16.67a7.546,7.546,0,0,0-.416-2.716c-.883-2.111-3.506-3.042-5.847-2.975-15,.431-24.7,15.613-24.77,29.048-.007,1.413.142,3.04,1.323,3.862C966.095,332.186,967.928,331.57,969.422,330.928Z" fill="#81bace"/>
            <path id="Trazado_19186" data-name="Trazado 19186" d="M938.377,330.928c-6.544-2.812-13.239-5.7-18.763-10.216-5.431-4.441-6.491-10.01-6.293-16.67a7.546,7.546,0,0,1,.416-2.716c.883-2.111,3.505-3.042,5.847-2.975,15,.431,24.7,15.613,24.769,29.048.008,1.413-.142,3.04-1.322,3.862C941.7,332.186,939.87,331.57,938.377,330.928Z" fill="#81bace"/>
          </g>
        </g>
      </g>
      <path id="Trazado_19188" data-name="Trazado 19188" d="M828.667,283.083c-1.244,8.784-.206,17.862-.263,26.707a11.633,11.633,0,0,0-4.847-.448,3.973,3.973,0,0,0-3.341,3.135,5.833,5.833,0,0,0-8.307,4.715,6.345,6.345,0,0,0-7.012.671c-3.012,2.544-2.346,7.838-2.21,11.386a71.4,71.4,0,0,0,1.907,14.176c2.172,8.9,6.435,17.448,13.488,23.474a3.733,3.733,0,0,0,2.551,1.18,3.884,3.884,0,0,0,2.452-1.728,121.873,121.873,0,0,0,13.355-20.137c1.738-3.29,3.351-6.748,3.7-10.452s-.792-7.117-1.015-10.738q-.39-6.334-.759-12.671-.447-7.756-.856-15.514c-.187-3.556.513-19.914-6.051-18.434C829.568,278.832,828.939,281.163,828.667,283.083Z" fill="#e29f7b"/>
      <path id="Trazado_19189" data-name="Trazado 19189" d="M827.829,348.4a34.017,34.017,0,0,1,9.768-13.224,1.912,1.912,0,0,0,.868-1.226c.034-.585-.473-1.044-.944-1.392,0-.911-4.767-2.688-5.589-3.185a7.819,7.819,0,0,1-4.127,4.518,4.55,4.55,0,0,1-5.525-1.662,8.306,8.306,0,0,1-7.552,3.705c2.3,2.009,5.277,2.994,7.622,5.044A21.19,21.19,0,0,1,827.829,348.4Z" fill="#cb775e"/>
      <path id="Trazado_19190" data-name="Trazado 19190" d="M833.746,332.735c-1.779-1.934-4.382-2.864-6.472-4.456s-3.692-4.538-2.351-6.8c1.323-2.228,4.56-2.279,7.03-1.5a34.943,34.943,0,0,1,6.133,2.861c4.888,2.679,11.252,5.339,11.317,11.941a17.052,17.052,0,0,1-2.287,7.817,47.237,47.237,0,0,1-19.682,19.945c-1.853-4.045.5-8.716,3.075-12.343C833.864,345.484,838.732,338.155,833.746,332.735Z" fill="#e29f7b"/>
      <path id="Trazado_19191" data-name="Trazado 19191" d="M1110.6,501.9a8.194,8.194,0,0,0,.131-1.725c-.221-7.045-8.528-8.944-13.938-6.9-3.989,1.5-9.213,5.295-12.436,8.085-4.693,4.064-10.492,9.737-12.524,15.75a2.168,2.168,0,0,0-.142,1.283c.277.945,1.519,1.12,2.5,1.115l16.829-.078c2.563-.012,5.22-.044,7.543-1.127a12.729,12.729,0,0,0,3.939-3.076,60.086,60.086,0,0,0,4.568-6.269C1108.578,506.789,1110.136,504.452,1110.6,501.9Z" fill="#cb775e"/>
      <g id="Grupo_13094" data-name="Grupo 13094">
        <path id="Trazado_19192" data-name="Trazado 19192" d="M1085.953,384.731,983.484,470.512l-1.416,5.415,169.389-8.466,1.417-5.415Z" fill="#b73531"/>
        <path id="Trazado_19193" data-name="Trazado 19193" d="M1084.536,390.146,982.068,475.927l59.11,72.335,110.279-80.8Z" fill="#c7544c"/>
      </g>
      <path id="Trazado_19194" data-name="Trazado 19194" d="M1110.634,498.552a3.531,3.531,0,0,1-1.649,3,14.872,14.872,0,0,0-2.246.983c-1.349,1.072-1.538,3.231-2.9,4.325-1.388,1.115-3.038.632-4.524,1.36-2.334,1.148-1.814,5.281-4.214,6.283-1.32.551-2.983-.167-4.2.59-.648.4-1.008,1.147-1.6,1.634a3.478,3.478,0,0,1-3.725.155,10.205,10.205,0,0,1-2.914-2.626q-3.242-3.783-6.482-7.568c-1.408-1.644-3.092-3.74-2.818-6.019.14-1.168,3.5-4.223,3.533-3.98-.239-1.992-1.871-3.762-1.559-5.744s2.358-3.1,4.172-3.942a2.974,2.974,0,0,1-1.7-3.667,4.532,4.532,0,0,1,3.242-2.826,10.033,10.033,0,0,1,4.451.057c-1.278-.728-1.3-2.714-.38-3.859a6.225,6.225,0,0,1,3.886-1.872,4.266,4.266,0,0,1,1.767-.037,4.732,4.732,0,0,1,1.881,1.188c4.82,4.25,9.644,8.459,13.336,13.775l2.47,3.558a11.241,11.241,0,0,1,2.094,4.147A4.6,4.6,0,0,1,1110.634,498.552Z" fill="#e29f7b"/>
      <path id="Trazado_19195" data-name="Trazado 19195" d="M794.611,448.465c-.987-16.191,1.022-32.408,3.688-48.355,2.026-12.126,4.471-24.152,6.8-36.18a1.453,1.453,0,0,1,1.781-1.422,204.283,204.283,0,0,1,30.94,1.47,2.353,2.353,0,0,1,1.407.5,2.379,2.379,0,0,1,.459,1.773c-.229,16.238.427,31.951,1.66,48.115a576.493,576.493,0,0,1,1.768,61.588c-.155,4.862-1.593,9.356-5.821,12.18-6.1,4.07-15.323,5.964-22.316,3.244-7.934-3.087-13.262-11.2-16.023-18.917C796.241,464.874,795.1,456.484,794.611,448.465Z" fill="#fff"/>
    </g>
    <g id="Grupo_13100" data-name="Grupo 13100">
      <g id="Grupo_13099" data-name="Grupo 13099">
        <path id="Trazado_19196" data-name="Trazado 19196" d="M1186.8,382.38c0,98.09-62.23,181.64-149.36,213.34q-3.42,1.245-6.9,2.38a226.648,226.648,0,0,1-70.69,11.23c-3.52,0-7.03-.08-10.51-.25a225.465,225.465,0,0,1-68.93-14.05c-3.2-1.2-6.38-2.47-9.51-3.81A226.974,226.974,0,0,1,732.91,382.38c0-125.33,101.6-226.94,226.94-226.94S1186.8,257.05,1186.8,382.38Z" opacity="0.7" fill="url(#radial-gradient)"/>
        <g id="Grupo_13098" data-name="Grupo 13098" opacity="0.7">
          <g id="Grupo_13096" data-name="Grupo 13096">
            <path id="Trazado_19197" data-name="Trazado 19197" d="M777.07,370.029a18.909,18.909,0,0,1-3.143-.265,18.694,18.694,0,0,1-15.31-21.552A204.469,204.469,0,0,1,827.525,227.1a18.693,18.693,0,1,1,24.268,28.439,167.011,167.011,0,0,0-56.314,98.911A18.7,18.7,0,0,1,777.07,370.029Z" fill="#fff"/>
          </g>
          <g id="Grupo_13097" data-name="Grupo 13097">
            <path id="Trazado_19198" data-name="Trazado 19198" d="M887.762,230.271a18.7,18.7,0,0,1-7.3-35.91,203.4,203.4,0,0,1,22.781-8.087,18.693,18.693,0,1,1,10.382,35.915,166.118,166.118,0,0,0-18.577,6.6A18.645,18.645,0,0,1,887.762,230.271Z" fill="#fff"/>
          </g>
        </g>
      </g>
    </g>
  </g>
</svg>
